<?xml version="1.0" encoding="UTF-8" standalone="no"?>
<svg
   xmlns:dc="http://purl.org/dc/elements/1.1/"
   xmlns:cc="http://creativecommons.org/ns#"
   xmlns:rdf="http://www.w3.org/1999/02/22-rdf-syntax-ns#"
   xmlns:svg="http://www.w3.org/2000/svg"
   xmlns="http://www.w3.org/2000/svg"
   height="60.000011"
   width="159.72406"
   id="svg548"
   version="1.1"
   class="icon"
   viewBox="0 0 159.72406 60.000011"
   data-v-423bf9ae="">
  <g
     style="fill:#ffffff"
     fill="#ffffff"
     stroke="none"
     transform="matrix(0.66671109,0,0,0.66671109,46.526467,-3.3355532)"
     id="c0caabe9-9bc6-43bb-bfe4-012bbdd44e4f"
     data-v-423bf9ae="">
    <path
       style="fill:#ffffff"
       id="path545"
       d="M 50.001,18.34 C 67.458,18.34 81.66,32.542 81.66,50 81.66,67.457 67.458,81.66 50.001,81.66 32.543,81.66 18.34,67.457 18.34,50 18.34,32.542 32.543,18.34 50.001,18.34 m 0,-2.34 C 31.222,16 16,31.222 16,50 16,68.777 31.222,84 50.001,84 68.779,84 84,68.777 84,50 84,31.222 68.779,16 50.001,16 Z M 50,40.794 c 3.031,0 9.387,-9.661 9.515,-13.551 0.128,-3.892 -7.93,-3.946 -9.515,-3.946 -1.585,0 -9.643,0.055 -9.515,3.946 0.128,3.89 6.485,13.551 9.515,13.551 z m -8.759,6.359 c 0.937,-2.882 -6.288,-11.914 -9.948,-13.236 -3.661,-1.325 -6.202,6.322 -6.692,7.829 -0.49,1.507 -2.929,9.188 0.813,10.268 3.737,1.082 14.891,-1.979 15.827,-4.861 z m 3.345,10.296 c -2.452,-1.781 -13.272,2.299 -15.664,5.368 -2.39,3.074 4.098,7.854 5.379,8.785 1.281,0.933 7.833,5.627 10.017,2.4 2.183,-3.219 2.718,-14.773 0.268,-16.553 z m 10.824,0 c -2.452,1.78 -1.917,13.332 0.265,16.556 2.186,3.223 8.735,-1.47 10.02,-2.402 1.28,-0.928 7.771,-5.711 5.377,-8.785 -2.387,-3.07 -13.212,-7.15 -15.662,-5.369 z m 3.347,-10.292 c 0.934,2.884 12.087,5.945 15.826,4.865 3.74,-1.084 1.302,-8.761 0.812,-10.27 -0.486,-1.508 -3.029,-9.156 -6.693,-7.83 -3.658,1.324 -10.885,10.356 -9.945,13.235 z m -8.751,6.128 a 1.729,1.729 0 1 0 0,3.457 1.729,1.729 0 0 0 0,-3.457 z m -4.77,-3.466 a 1.73,1.73 0 1 0 0.003,3.459 1.73,1.73 0 0 0 -0.003,-3.459 z m 1.818,-5.601 a 1.7285,1.7285 0 1 0 0,3.457 1.7285,1.7285 0 0 0 0,-3.457 z m 5.891,0 a 1.7285,1.7285 0 1 0 0,3.457 1.7285,1.7285 0 0 0 0,-3.457 z m 1.827,5.606 a 1.73,1.73 0 1 0 0.002,3.458 1.73,1.73 0 0 0 -0.002,-3.458 z M 50.001,5.003 C 25.147,5.003 5,25.148 5,50 5,74.851 25.147,94.997 50.001,94.997 74.855,94.997 95,74.851 95,50 95,25.148 74.854,5.003 50.001,5.003 Z M 50,84.999 C 30.67,84.999 15.001,69.327 15.001,50 15.001,30.673 30.67,15.001 50,15.001 69.33,15.001 85,30.673 85,50 85,69.327 69.33,84.999 50,84.999 Z" />
  </g>
  <text
     transform="matrix(2.0576021,0,0,2.0576021,-4.0187541,-29.561952)"
     style="font-style:normal;font-weight:normal;font-size:40px;line-height:1.25;font-family:sans-serif;white-space:pre;shape-inside:url(#rect558);fill:#ffffff;fill-opacity:1;stroke:none;"
     id="text556"
     xml:space="preserve"><tspan
       x="0"
       y="43.527344"><tspan
         style="fill:#ffffff">4</tspan></tspan></text>
  <text
     id="text564"
     y="60.000011"
     x="111.98125"
     style="font-style:normal;font-weight:normal;font-size:82.3041px;line-height:1.25;font-family:sans-serif;fill:#ffffff;fill-opacity:1;stroke:none;stroke-width:2.0576;"
     xml:space="preserve"><tspan
       style="fill:#ffffff;stroke-width:2.0576;"
       y="60.000011"
       x="111.98125"
       id="tspan562">4</tspan></text>
  <metadata
     id="metadata554">
    <rdf:RDF>
      <cc:Work
         rdf:about="">
        <dc:format>image/svg+xml</dc:format>
        <dc:type
           rdf:resource="http://purl.org/dc/dcmitype/StillImage" />
        <dc:title></dc:title>
      </cc:Work>
    </rdf:RDF>
  </metadata>
  <defs
     id="defs552">
    <rect
       id="rect558"
       height="81.391228"
       width="58.412006"
       y="8.1358967"
       x="0" />
  </defs>
  <!---->
  <!---->
  <!---->
  <!---->
  <!---->
</svg>
