<?xml version="1.0" encoding="UTF-8" standalone="no"?><!-- Generator: Gravit.io --><svg xmlns="http://www.w3.org/2000/svg" xmlns:xlink="http://www.w3.org/1999/xlink" style="isolation:isolate" viewBox="0 0 300 421" width="300pt" height="421pt"><defs><clipPath id="_clipPath_aLJPRVbWQQWtcLKQinWAGXWCm5sT6kBy"><rect width="300" height="421"/></clipPath></defs><g clip-path="url(#_clipPath_aLJPRVbWQQWtcLKQinWAGXWCm5sT6kBy)"><clipPath id="_clipPath_pujbxawfWtdztHFRb6g5GXuEDgqecCVy"><path d=" M -100 467 L 306 467 L 306 -33 L -100 -33 L -100 467 Z " fill="rgb(255,255,255)"/></clipPath><g clip-path="url(#_clipPath_pujbxawfWtdztHFRb6g5GXuEDgqecCVy)"><path d=" M 272.803 23.77 L 27.198 23.77 C 15.443 23.77 5.914 33.299 5.914 45.053 L 5.914 88.185 C 5.914 99.939 15.443 109.468 27.198 109.468 L 33.466 109.468 C 33.466 109.468 32.219 122.933 46.371 126.976 C 47.82 127.389 49.116 125.94 48.575 124.534 C 46.911 120.209 44.978 112.682 50 109.468 L 272.803 109.468 C 284.557 109.468 294.086 99.939 294.086 88.185 L 294.086 45.053 C 294.086 33.299 284.557 23.77 272.803 23.77 Z " fill="rgb(255,255,255)"/><path d=" M 151.884 47.941 L 24.435 47.941 C 23.742 47.941 23.179 47.379 23.179 46.685 C 23.179 45.992 23.742 45.43 24.435 45.43 L 151.884 45.43 C 152.577 45.43 153.139 45.992 153.139 46.685 C 153.139 47.379 152.577 47.941 151.884 47.941 Z " fill="rgb(191,202,211)"/><path d=" M 151.884 55.789 L 24.435 55.789 C 23.742 55.789 23.179 55.227 23.179 54.533 C 23.179 53.84 23.742 53.278 24.435 53.278 L 151.884 53.278 C 152.577 53.278 153.139 53.84 153.139 54.533 C 153.139 55.227 152.577 55.789 151.884 55.789 Z " fill="rgb(191,202,211)"/><path d=" M 151.884 63.637 L 24.435 63.637 C 23.742 63.637 23.179 63.075 23.179 62.382 C 23.179 61.688 23.742 61.126 24.435 61.126 L 151.884 61.126 C 152.577 61.126 153.139 61.688 153.139 62.382 C 153.139 63.075 152.577 63.637 151.884 63.637 Z " fill="rgb(191,202,211)"/><path d=" M 103.518 71.485 L 24.173 71.485 C 23.624 71.485 23.179 71.04 23.179 70.491 L 23.179 69.967 C 23.179 69.418 23.624 68.974 24.173 68.974 L 103.518 68.974 C 104.066 68.974 104.511 69.418 104.511 69.967 L 104.511 70.491 C 104.511 71.04 104.066 71.485 103.518 71.485 Z " fill="rgb(191,202,211)"/><path d=" M 49.238 83.4 L 51.362 87.704 L 56.111 88.394 L 52.675 91.743 L 53.486 96.473 L 49.238 94.24 L 44.99 96.473 L 45.801 91.743 L 42.365 88.394 L 47.114 87.704 L 49.238 83.4 Z " fill="rgb(244,209,122)"/><path d=" M 30.053 83.4 L 32.177 87.704 L 36.926 88.394 L 33.49 91.743 L 34.301 96.473 L 30.053 94.24 L 25.805 96.473 L 26.616 91.743 L 23.179 88.394 L 27.929 87.704 L 30.053 83.4 Z " fill="rgb(244,209,122)"/><path d=" M 68.533 83.4 L 70.657 87.704 L 75.406 88.394 L 71.97 91.743 L 72.781 96.473 L 68.533 94.24 L 64.285 96.473 L 65.096 91.743 L 61.66 88.394 L 66.409 87.704 L 68.533 83.4 Z " fill="rgb(244,209,122)"/><path d=" M 87.368 83.4 L 89.492 87.704 L 94.241 88.394 L 90.805 91.743 L 91.616 96.473 L 87.368 94.24 L 83.12 96.473 L 83.931 91.743 L 80.495 88.394 L 85.244 87.704 L 87.368 83.4 Z " fill="rgb(244,209,122)"/><path d=" M 105.575 83.4 L 107.699 87.704 L 112.449 88.394 L 109.012 91.743 L 109.823 96.473 L 105.575 94.24 L 101.327 96.473 L 102.138 91.743 L 98.702 88.394 L 103.451 87.704 L 105.575 83.4 Z " fill="rgb(244,209,122)"/><path d=" M 274.239 66.948 C 274.239 83.255 261.02 96.474 244.713 96.474 C 228.406 96.474 215.187 83.255 215.187 66.948 C 215.187 50.641 228.406 37.422 244.713 37.422 C 261.02 37.422 274.239 50.641 274.239 66.948 Z " fill="rgb(218,237,249)"/><path d=" M 235.346 66.063 C 235.346 66.063 233.453 63.981 231.749 66.063 C 230.046 68.145 231.56 73.824 235.346 72.688 C 235.346 72.688 237.759 79.976 244.999 79.408 C 252.24 78.84 255.789 72.451 255.789 67.909 C 255.789 67.909 249.968 65.069 248.691 59.106 C 247.412 53.144 238.611 53.428 237.049 54.848 C 237.049 54.848 232.506 52.576 235.346 66.063 Z " fill="rgb(236,189,170)"/><path d=" M 236.339 50.305 C 236.339 50.305 232.725 48.318 231.054 53.002 C 229.383 57.687 231.749 66.063 231.749 66.063 C 231.749 66.063 233.305 64.304 235.346 66.063 C 235.346 66.063 232.363 53.994 237.049 54.848 C 237.049 54.848 246.27 52.228 248.608 59.595 C 251.229 67.852 255.789 67.909 255.789 67.909 C 255.789 67.909 258.912 68.476 259.338 65.211 C 259.764 61.946 259.077 52.434 251.897 48.318 C 244.715 44.201 236.623 47.466 236.339 50.305 Z " fill="rgb(55,42,28)"/><path d=" M 242.382 79.254 C 242.382 79.254 242.314 84.207 241.735 85.1 C 241.735 85.1 244.006 88.494 248.265 85.228 C 248.265 85.228 246.901 82.84 247.582 78.923 C 247.582 78.923 244.412 79.952 242.382 79.254 Z " fill="rgb(236,189,170)"/><path d=" M 244.36 65.851 C 244.36 65.851 245.187 70.107 245.85 71.054 C 246.841 72.466 246.277 73.773 244.36 73.631 L 244.36 65.851 Z " fill="rgb(225,127,104)"/><path d=" M 238.185 66.717 L 239.326 67.913 C 239.683 68.266 240.076 68.533 240.299 68.508 C 240.519 68.552 240.881 68.268 241.241 67.928 C 241.592 67.558 241.928 67.131 242.373 66.717 C 242.364 67.312 242.237 67.89 241.964 68.439 C 241.909 68.58 241.801 68.709 241.707 68.839 C 241.611 68.969 241.525 69.103 241.37 69.217 C 241.114 69.446 240.713 69.653 240.279 69.642 C 239.367 69.572 238.895 68.944 238.613 68.435 C 238.324 67.897 238.174 67.32 238.185 66.717 Z " fill="rgb(0,0,0)"/><path d=" M 247.123 66.717 L 248.264 67.913 C 248.621 68.266 249.014 68.533 249.237 68.508 C 249.456 68.552 249.819 68.268 250.179 67.928 C 250.53 67.558 250.866 67.131 251.311 66.717 C 251.302 67.312 251.175 67.89 250.902 68.439 C 250.847 68.58 250.738 68.709 250.645 68.839 C 250.549 68.969 250.463 69.103 250.308 69.217 C 250.051 69.446 249.651 69.653 249.216 69.642 C 248.305 69.572 247.833 68.944 247.551 68.435 C 247.262 67.897 247.111 67.32 247.123 66.717 Z " fill="rgb(0,0,0)"/><path d=" M 242.373 62.656 C 241.426 62.586 240.7 62.492 239.955 62.504 C 239.587 62.495 239.22 62.513 238.831 62.547 C 238.437 62.571 238.039 62.641 237.546 62.656 C 237.786 62.241 238.144 61.906 238.572 61.699 C 238.993 61.467 239.481 61.378 239.962 61.369 C 240.443 61.381 240.924 61.48 241.344 61.702 C 241.763 61.915 242.143 62.224 242.373 62.656 Z " fill="rgb(55,42,28)"/><path d=" M 251.619 62.656 C 250.672 62.586 249.946 62.492 249.202 62.504 C 248.834 62.495 248.466 62.513 248.078 62.547 C 247.683 62.571 247.285 62.641 246.793 62.656 C 247.032 62.241 247.39 61.906 247.819 61.699 C 248.239 61.467 248.727 61.378 249.209 61.369 C 249.69 61.38 250.17 61.48 250.591 61.702 C 251.01 61.915 251.39 62.224 251.619 62.656 Z " fill="rgb(55,42,28)"/><path d=" M 229.559 92.293 C 229.559 92.293 232.879 83.63 241.735 85.101 C 241.735 85.101 244.056 88.183 248.265 85.229 C 248.265 85.229 257.85 84.81 259.017 92.784 C 259.017 92.784 245.668 101.663 229.559 92.293 Z " fill="rgb(62,68,121)"/><path d=" M 27.197 142.115 L 272.802 142.115 C 284.556 142.115 294.086 151.643 294.086 163.398 L 294.086 206.53 C 294.086 218.284 284.556 227.813 272.802 227.813 L 266.535 227.813 C 266.535 227.813 267.781 241.278 253.63 245.32 C 252.18 245.734 250.884 244.285 251.425 242.879 C 253.089 238.553 255.022 231.027 250.001 227.813 L 27.197 227.813 C 15.443 227.813 5.914 218.284 5.914 206.53 L 5.914 163.398 C 5.914 151.643 15.443 142.115 27.197 142.115 Z " fill="rgb(255,255,255)"/><path d=" M 148.117 166.286 L 275.565 166.286 C 276.259 166.286 276.821 165.724 276.821 165.031 C 276.821 164.337 276.259 163.775 275.565 163.775 L 148.117 163.775 C 147.423 163.775 146.861 164.337 146.861 165.031 C 146.861 165.724 147.423 166.286 148.117 166.286 Z " fill="rgb(191,202,211)"/><path d=" M 148.117 174.134 L 275.565 174.134 C 276.259 174.134 276.821 173.572 276.821 172.879 C 276.821 172.185 276.259 171.623 275.565 171.623 L 148.117 171.623 C 147.423 171.623 146.861 172.185 146.861 172.879 C 146.861 173.572 147.423 174.134 148.117 174.134 Z " fill="rgb(191,202,211)"/><path d=" M 148.117 181.982 L 275.565 181.982 C 276.259 181.982 276.821 181.42 276.821 180.726 C 276.821 180.033 276.259 179.471 275.565 179.471 L 148.117 179.471 C 147.423 179.471 146.861 180.033 146.861 180.726 C 146.861 181.42 147.423 181.982 148.117 181.982 Z " fill="rgb(191,202,211)"/><path d=" M 196.482 189.83 L 275.827 189.83 C 276.376 189.83 276.82 189.385 276.82 188.837 L 276.82 188.312 C 276.82 187.764 276.376 187.319 275.827 187.319 L 196.482 187.319 C 195.933 187.319 195.489 187.764 195.489 188.312 L 195.489 188.837 C 195.489 189.385 195.933 189.83 196.482 189.83 Z " fill="rgb(191,202,211)"/><path d=" M 250.763 201.746 L 248.639 206.049 L 243.89 206.739 L 247.326 210.089 L 246.515 214.819 L 250.763 212.586 L 255.01 214.819 L 254.2 210.089 L 257.636 206.739 L 252.887 206.049 L 250.763 201.746 Z " fill="rgb(244,209,122)"/><path d=" M 269.947 201.746 L 267.823 206.049 L 263.074 206.739 L 266.51 210.089 L 265.699 214.819 L 269.947 212.586 L 274.195 214.819 L 273.384 210.089 L 276.82 206.739 L 272.071 206.049 L 269.947 201.746 Z " fill="rgb(244,209,122)"/><path d=" M 231.467 201.746 L 229.343 206.049 L 224.594 206.739 L 228.03 210.089 L 227.219 214.819 L 231.467 212.586 L 235.715 214.819 L 234.904 210.089 L 238.34 206.739 L 233.591 206.049 L 231.467 201.746 Z " fill="rgb(244,209,122)"/><path d=" M 212.632 201.746 L 210.508 206.049 L 205.759 206.739 L 209.195 210.089 L 208.384 214.819 L 212.632 212.586 L 216.88 214.819 L 216.069 210.089 L 219.505 206.739 L 214.756 206.049 L 212.632 201.746 Z " fill="rgb(244,209,122)"/><path d=" M 194.425 201.746 L 192.301 206.049 L 187.552 206.739 L 190.988 210.089 L 190.178 214.819 L 194.425 212.586 L 198.673 214.819 L 197.862 210.089 L 201.298 206.739 L 196.549 206.049 L 194.425 201.746 Z " fill="rgb(244,209,122)"/><path d=" M 25.761 185.293 C 25.761 201.6 38.98 214.819 55.287 214.819 C 71.594 214.819 84.813 201.6 84.813 185.293 C 84.813 168.986 71.594 155.767 55.287 155.767 C 38.98 155.767 25.761 168.986 25.761 185.293 Z " fill="rgb(218,237,249)"/><path d=" M 55.077 163.932 C 55.077 163.932 46.017 162.598 42.564 171.308 C 39.111 180.02 40.348 210.328 40.348 210.328 L 69.806 210.328 C 69.806 210.328 72.235 197.265 70.05 174.497 C 69.789 171.779 68.728 169.161 66.84 167.188 C 64.624 164.873 60.941 162.833 55.077 163.932 Z " fill="rgb(55,42,28)"/><path d=" M 53.171 197.291 C 53.171 197.291 53.102 202.243 52.523 203.137 C 52.523 203.137 54.795 206.53 59.053 203.265 C 59.053 203.265 57.689 200.877 58.371 196.96 C 58.371 196.96 55.201 197.989 53.171 197.291 Z " fill="rgb(206,150,111)"/><path d=" M 66.578 186.313 C 66.578 186.313 66.511 197.071 55.789 197.813 C 44.643 198.583 44.643 185.121 44.643 185.121 L 44.643 176.111 C 44.643 176.111 56.64 179.199 66.578 176.111 C 66.578 176.111 66.909 183.997 66.578 186.313 Z " fill="rgb(206,150,111)"/><path d=" M 55.149 185.293 C 55.149 185.293 55.788 189.928 56.65 190.605 C 57.559 191.319 56.993 193.322 55.076 193.18 L 55.149 185.293 Z " fill="rgb(168,101,56)"/><path d=" M 48.974 184.753 L 50.114 185.949 C 50.472 186.302 50.864 186.569 51.088 186.543 C 51.307 186.588 51.67 186.304 52.029 185.964 C 52.381 185.594 52.717 185.167 53.162 184.753 C 53.153 185.348 53.026 185.926 52.753 186.474 C 52.698 186.616 52.59 186.745 52.496 186.875 C 52.399 187.005 52.313 187.139 52.159 187.253 C 51.902 187.482 51.502 187.689 51.067 187.678 C 50.155 187.608 49.684 186.98 49.402 186.471 C 49.113 185.932 48.962 185.356 48.974 184.753 Z " fill="rgb(0,0,0)"/><path d=" M 57.913 184.753 L 59.053 185.949 C 59.411 186.302 59.803 186.569 60.027 186.543 C 60.246 186.588 60.609 186.304 60.968 185.964 C 61.32 185.594 61.656 185.167 62.101 184.753 C 62.091 185.348 61.965 185.926 61.692 186.474 C 61.637 186.616 61.528 186.745 61.435 186.875 C 61.338 187.005 61.252 187.139 61.098 187.253 C 60.841 187.482 60.441 187.689 60.006 187.678 C 59.094 187.608 58.622 186.98 58.341 186.471 C 58.052 185.932 57.901 185.356 57.913 184.753 Z " fill="rgb(0,0,0)"/><path d=" M 53.162 180.692 C 52.215 180.622 51.489 180.528 50.745 180.54 C 50.376 180.53 50.009 180.549 49.62 180.583 C 49.226 180.607 48.828 180.677 48.335 180.692 C 48.575 180.277 48.933 179.942 49.362 179.735 C 49.782 179.502 50.27 179.414 50.751 179.405 C 51.233 179.416 51.713 179.515 52.133 179.738 C 52.552 179.95 52.932 180.259 53.162 180.692 Z " fill="rgb(55,42,28)"/><path d=" M 62.42 180.692 C 61.473 180.622 60.747 180.528 60.003 180.54 C 59.634 180.53 59.267 180.549 58.878 180.583 C 58.484 180.607 58.086 180.677 57.593 180.692 C 57.833 180.277 58.191 179.942 58.62 179.735 C 59.04 179.502 59.528 179.414 60.009 179.405 C 60.491 179.416 60.971 179.515 61.391 179.738 C 61.81 179.95 62.19 180.259 62.42 180.692 Z " fill="rgb(55,42,28)"/><path d=" M 40.348 210.329 C 40.348 210.329 43.668 201.665 52.524 203.137 C 52.524 203.137 54.846 206.218 59.054 203.265 C 59.054 203.265 68.64 202.846 69.806 210.819 C 69.806 210.819 56.457 219.699 40.348 210.329 Z " fill="rgb(229,195,20)"/><path d=" M 49.858 186.345 C 49.802 186.529 49.653 186.637 49.497 186.72 C 49.333 186.779 49.129 186.808 48.974 186.691 C 49.304 186.557 49.5 186.44 49.858 186.345 Z " fill="rgb(0,0,0)"/><path d=" M 50.564 186.977 C 50.556 187.2 50.434 187.379 50.293 187.537 C 50.135 187.673 49.927 187.794 49.705 187.75 C 50.032 187.488 50.225 187.247 50.564 186.977 Z " fill="rgb(0,0,0)"/><path d=" M 49.416 185.68 C 49.271 185.805 49.092 185.821 48.916 185.813 C 48.749 185.782 48.548 185.702 48.489 185.513 C 48.828 185.588 49.063 185.563 49.416 185.68 Z " fill="rgb(0,0,0)"/><path d=" M 61.443 186.345 C 61.801 186.44 61.997 186.557 62.327 186.691 C 62.172 186.808 61.968 186.779 61.804 186.72 C 61.648 186.637 61.499 186.529 61.443 186.345 Z " fill="rgb(0,0,0)"/><path d=" M 60.738 186.977 C 61.077 187.247 61.27 187.488 61.597 187.75 C 61.375 187.794 61.167 187.673 61.009 187.536 C 60.868 187.379 60.745 187.2 60.738 186.977 Z " fill="rgb(0,0,0)"/><path d=" M 61.886 185.68 C 62.239 185.563 62.474 185.588 62.813 185.513 C 62.754 185.702 62.553 185.782 62.385 185.813 C 62.209 185.821 62.031 185.805 61.886 185.68 Z " fill="rgb(0,0,0)"/><path d=" M 36.367 375.448 L 36.367 389.834 C 36.367 392.674 41.233 394.976 47.236 394.976 L 252.763 394.976 C 258.765 394.976 263.633 392.674 263.633 389.833 L 263.633 375.448 L 36.367 375.448 Z " fill="rgb(191,202,211)"/><path d=" M 101.477 273.259 L 37.246 372.354 C 34.113 377.186 39.746 382.479 48.019 382.479 L 251.982 382.479 C 260.019 382.479 265.639 377.461 262.955 372.682 L 207.309 273.586 C 205.662 270.655 201.267 268.695 196.337 268.695 L 112.251 268.695 C 107.524 268.695 103.267 270.498 101.477 273.259 Z " fill="rgb(125,134,151)"/><path d=" M 107.015 274.041 L 56.066 352.963 C 54.432 355.494 57.384 358.264 61.716 358.264 L 240.992 358.264 C 245.215 358.264 248.16 355.622 246.734 353.114 L 201.833 274.192 C 200.963 272.664 198.666 271.645 196.092 271.645 L 112.664 271.645 C 110.184 271.645 107.951 272.592 107.015 274.041 Z " fill="rgb(42,40,62)"/><path d=" M 167.903 369.981 C 167.903 374.916 159.026 378.917 148.076 378.917 C 137.126 378.917 128.249 374.916 128.249 369.981 C 128.249 365.046 137.126 361.045 148.076 361.045 C 159.026 361.045 167.903 365.046 167.903 369.981 Z " fill="rgb(42,40,62)"/><g opacity="0.660004"><path d=" M 64.037 340.617 L 196.092 271.644 C 196.092 271.644 200.089 271.126 201.833 274.192 L 58.719 348.855 L 64.037 340.617 Z " fill="rgb(191,202,211)"/></g><g opacity="0.660004"><path d=" M 56.066 352.963 L 202.984 276.217 L 208.309 285.576 L 70.08 358.264 C 70.08 358.264 53.194 360.356 56.066 352.963 Z " fill="rgb(191,202,211)"/></g></g></g></svg>