<?xml version="1.0" encoding="UTF-8" standalone="no"?><!-- Generator: Gravit.io --><svg xmlns="http://www.w3.org/2000/svg" xmlns:xlink="http://www.w3.org/1999/xlink" style="isolation:isolate" viewBox="0 0 500 500" width="500pt" height="500pt"><defs><clipPath id="_clipPath_Wp6XynwIQrNqAO755HxMr2mCBNJscLEC"><rect width="500" height="500"/></clipPath></defs><g clip-path="url(#_clipPath_Wp6XynwIQrNqAO755HxMr2mCBNJscLEC)"><clipPath id="_clipPath_Isql0tsVFB4RBDof2ocWl1zFceZHh2F2"><path d=" M 0 0 L 500 0 L 500 500 L 0 500 L 0 0 Z " fill="rgb(255,255,255)"/></clipPath><g clip-path="url(#_clipPath_Isql0tsVFB4RBDof2ocWl1zFceZHh2F2)"><path d=" M 53.332 223.834 L 53.332 271.47 C 53.332 280.089 60.318 287.076 68.937 287.076 L 239.746 287.076 C 248.365 287.076 255.352 280.089 255.352 271.47 L 255.352 231.22 L 276.616 208.877 L 68.986 208.229 C 60.349 208.201 53.332 215.196 53.332 223.834 Z " fill="rgb(245,245,245)"/><path d=" M 230.173 237.089 L 75.175 236.374 L 75.192 231.61 L 230.189 232.326 L 230.173 237.089 Z " fill="rgb(224,224,224)"/><path d=" M 230.173 252.762 L 75.175 252.046 L 75.192 247.282 L 230.189 247.998 L 230.173 252.762 Z " fill="rgb(224,224,224)"/><path d=" M 230.173 268.038 L 168.845 267.736 L 168.864 262.973 L 230.192 263.274 L 230.173 268.038 Z " fill="rgb(224,224,224)"/><path d=" M 144.63 44.39 L 245.374 44.39 C 250.361 44.39 254.404 48.432 254.404 53.418 L 254.404 102.695 C 254.404 107.682 250.361 111.724 245.374 111.724 L 159.886 111.724 C 154.899 111.724 150.856 107.682 150.856 102.695 L 150.856 50.616 L 144.63 44.39 Z " fill="rgb(245,245,245)"/><path d=" M 203.033 92.294 L 203.033 123.889 C 203.033 129.605 198.4 134.239 192.683 134.239 L 79.395 134.239 C 73.678 134.239 69.044 129.605 69.044 123.889 L 69.044 97.193 L 54.94 82.375 L 192.651 81.944 C 198.379 81.926 203.033 86.565 203.033 92.294 Z " fill="rgb(224,224,224)"/><path d=" M 85.744 101.085 L 188.545 100.61 L 188.535 97.451 L 85.734 97.926 L 85.744 101.085 Z " fill="rgb(245,245,245)"/><path d=" M 85.744 111.48 L 188.545 111.005 L 188.535 107.846 L 85.734 108.321 L 85.744 111.48 Z " fill="rgb(245,245,245)"/><path d=" M 85.744 121.612 L 126.419 121.412 L 126.407 118.253 L 85.731 118.452 L 85.744 121.612 Z " fill="rgb(245,245,245)"/><path d=" M 417.644 238.805 L 417.644 270.399 C 417.644 276.115 413.01 280.75 407.293 280.75 L 294.005 280.75 C 288.289 280.75 283.655 276.115 283.655 270.399 L 283.655 243.704 L 269.55 228.885 L 407.261 228.455 C 412.99 228.437 417.644 233.076 417.644 238.805 Z " fill="rgb(224,224,224)"/><path d=" M 300.354 247.596 L 403.156 247.121 L 403.145 243.962 L 300.344 244.437 L 300.354 247.596 Z " fill="rgb(245,245,245)"/><path d=" M 300.354 257.991 L 403.156 257.515 L 403.145 254.356 L 300.344 254.832 L 300.354 257.991 Z " fill="rgb(245,245,245)"/><path d=" M 300.354 268.122 L 341.03 267.922 L 341.017 264.763 L 300.341 264.963 L 300.354 268.122 Z " fill="rgb(245,245,245)"/><path d=" M 422.536 128.998 C 451.128 185.968 442.084 257.879 406.349 310.662 C 370.613 363.444 311.162 397.619 248.646 410.062 C 204.021 418.946 156.013 417.138 115.238 396.944 C 74.463 376.751 42.401 336.125 39.955 290.689 C 39.032 273.527 42.672 255.304 54.124 242.49 C 72.411 222.028 103.63 221.308 131.058 222.152 C 158.488 222.997 189.685 222.357 208.061 201.976 C 222.181 186.315 224.26 163.6 231.701 143.87 C 244.352 110.324 274.874 84.129 309.952 76.715 C 314.824 75.685 319.763 75.022 324.722 74.712 C 363.303 72.304 399.895 92.157 420.135 125.091 L 422.536 128.998 Z " fill="rgb(235,235,235)"/><path d=" M 296.744 433.735 L 181.244 433.201 C 167.352 433.138 156.142 421.827 156.201 407.936 L 157.425 118.374 C 157.483 104.474 168.801 93.256 182.7 93.32 L 298.201 93.854 C 312.093 93.918 323.303 105.228 323.244 119.119 L 322.02 408.682 C 321.961 422.582 310.643 433.799 296.744 433.735 Z " fill="rgb(38,50,56)"/><path d=" M 298.036 103.846 L 275.642 103.744 C 272.64 103.729 270.194 106.264 270.182 109.402 L 270.163 113.464 C 270.151 116.604 267.705 119.139 264.702 119.125 L 221.052 118.922 C 218.049 118.91 215.625 116.352 215.639 113.212 L 215.656 109.151 C 215.669 106.012 213.245 103.455 210.242 103.441 L 202.366 103.405 L 182.766 103.315 C 173.032 103.27 165.106 111.127 165.065 120.86 L 163.87 403.495 C 163.828 413.224 171.68 421.145 181.409 421.19 L 296.679 421.722 C 306.412 421.767 314.339 413.911 314.38 404.177 L 315.575 121.541 C 315.616 111.812 307.765 103.892 298.036 103.846 Z " fill="rgb(250,250,250)"/><path d=" M 232.8 394.662 C 232.795 395.791 231.726 396.7 230.413 396.694 C 229.1 396.688 228.039 395.768 228.043 394.641 C 228.049 393.512 229.117 392.601 230.43 392.608 C 231.743 392.614 232.804 393.533 232.8 394.662 Z " fill="rgb(69,90,100)"/><path d=" M 240.17 394.697 C 240.165 395.825 239.097 396.735 237.783 396.729 C 236.47 396.723 235.409 395.803 235.414 394.675 C 235.418 393.547 236.487 392.636 237.8 392.642 C 239.114 392.648 240.174 393.568 240.17 394.697 Z " fill="rgb(69,90,100)"/><path d=" M 247.539 394.73 C 247.535 395.859 246.466 396.769 245.152 396.762 C 243.839 396.756 242.778 395.837 242.783 394.709 C 242.788 393.58 243.856 392.67 245.169 392.675 C 246.483 392.681 247.544 393.601 247.539 394.73 Z " fill="rgb(69,90,100)"/><path d=" M 199.517 240.099 C 201.395 240.368 314.702 262.591 314.702 262.591 L 314.702 240.099 L 199.517 240.099 Z " fill="rgb(235,235,235)"/><path d=" M 163.869 382.895 C 163.869 382.895 287.125 365.458 286.052 365.994 C 284.979 366.531 163.869 365.994 163.869 365.994 L 163.869 382.895 Z " fill="rgb(235,235,235)"/><path d=" M 424.226 154.092 L 198.782 154.092 C 193.913 154.092 189.965 158.039 189.965 162.908 L 189.965 232.839 C 189.965 237.708 193.913 241.655 198.782 241.655 L 215.577 241.655 C 216.93 248.958 218.513 258.172 218.513 258.172 L 233.715 241.655 L 424.226 241.655 C 429.095 241.655 433.042 237.708 433.042 232.839 L 433.042 162.908 C 433.042 158.039 429.095 154.092 424.226 154.092 Z " fill="rgb(7,157,182)"/><path d=" M 331.213 192.025 C 331.213 192.169 304.38 192.285 271.287 192.285 C 238.186 192.285 211.359 192.169 211.359 192.025 C 211.359 191.881 238.186 191.764 271.287 191.764 C 304.38 191.764 331.213 191.881 331.213 192.025 Z " fill="rgb(245,245,245)"/><path d=" M 331.213 181.276 C 331.213 181.42 304.38 181.536 271.287 181.536 C 238.186 181.536 211.359 181.42 211.359 181.276 C 211.359 181.132 238.186 181.016 271.287 181.016 C 304.38 181.016 331.213 181.132 331.213 181.276 Z " fill="rgb(245,245,245)"/><path d=" M 331.213 202.656 C 331.213 202.8 304.38 202.917 271.287 202.917 C 238.186 202.917 211.359 202.8 211.359 202.656 C 211.359 202.512 238.186 202.396 271.287 202.396 C 304.38 202.396 331.213 202.512 331.213 202.656 Z " fill="rgb(245,245,245)"/><path d=" M 289.865 213.668 C 289.865 213.812 272.289 213.929 250.614 213.929 C 228.93 213.929 211.359 213.812 211.359 213.668 C 211.359 213.524 228.93 213.408 250.614 213.408 C 272.289 213.408 289.865 213.524 289.865 213.668 Z " fill="rgb(245,245,245)"/><path d=" M 322.365 279.816 L 95.07 279.816 C 91.664 279.816 88.902 282.578 88.902 285.984 L 88.902 359.97 C 88.902 363.378 91.664 366.139 95.07 366.139 L 260.149 366.139 L 275.177 382.466 C 275.177 382.466 276.753 373.29 278.081 366.139 L 322.365 366.139 C 325.771 366.139 328.533 363.378 328.533 359.97 L 328.533 285.984 C 328.533 282.578 325.771 279.816 322.365 279.816 Z " fill="rgb(2,2,62)"/><path d=" M 313.449 317.968 C 313.449 318.112 286.616 318.228 253.525 318.228 C 220.422 318.228 193.595 318.112 193.595 317.968 C 193.595 317.824 220.422 317.707 253.525 317.707 C 286.616 317.707 313.449 317.824 313.449 317.968 Z " fill="rgb(245,245,245)"/><path d=" M 313.449 307.218 C 313.449 307.363 286.616 307.479 253.525 307.479 C 220.422 307.479 193.595 307.363 193.595 307.218 C 193.595 307.074 220.422 306.958 253.525 306.958 C 286.616 306.958 313.449 307.074 313.449 307.218 Z " fill="rgb(245,245,245)"/><path d=" M 313.449 328.599 C 313.449 328.743 286.616 328.86 253.525 328.86 C 220.422 328.86 193.595 328.743 193.595 328.599 C 193.595 328.455 220.422 328.338 253.525 328.338 C 286.616 328.338 313.449 328.455 313.449 328.599 Z " fill="rgb(245,245,245)"/><path d=" M 272.101 339.612 C 272.101 339.756 254.525 339.872 232.85 339.872 C 211.166 339.872 193.595 339.756 193.595 339.612 C 193.595 339.467 211.166 339.351 232.85 339.351 C 254.525 339.351 272.101 339.467 272.101 339.612 Z " fill="rgb(245,245,245)"/><path d=" M 367.553 124.431 C 367.687 122.593 366.048 120.058 364.529 118.601 C 363.009 117.145 362.068 115.168 362.86 112.23 C 363.472 109.96 364.911 110.129 365.481 108.795 C 365.902 107.806 365.724 106.68 365.812 105.609 C 366.11 101.932 370.156 99.05 373.728 99.969 C 374.734 96.473 377.994 93.742 381.613 93.365 C 385.232 92.988 388.985 94.989 390.689 98.203 C 392.754 97.13 395.358 97.167 397.391 98.299 C 399.425 99.431 400.828 101.623 401.004 103.944 C 403.018 102.49 406.107 103.05 407.7 104.955 C 409.293 106.861 409.391 109.777 408.182 111.947 C 406.972 114.116 404.626 115.528 402.172 115.905 C 399.717 116.282 397.179 115.702 394.956 114.594 C 392.734 113.486 390.798 111.872 389.036 110.122" fill="rgb(38,50,56)"/><path d=" M 427.193 197.068 C 427.193 220.416 407.811 239.343 383.903 239.343 C 359.995 239.343 340.613 220.416 340.613 197.068 C 340.613 173.72 359.995 154.793 383.903 154.793 C 407.811 154.793 427.193 173.72 427.193 197.068 Z " fill="rgb(224,224,224)"/><path d=" M 427.37 197.104 L 422.579 184.817 L 405.405 195.607 L 420.708 219.203 C 420.708 219.203 426.933 211.118 427.37 197.104 Z " fill="rgb(235,153,110)"/><path d=" M 379.961 170.501 L 379.961 170.501 C 386.133 170.511 391.225 165.717 391.529 159.608 C 391.783 154.521 391.996 149.621 391.996 149.621 C 391.996 149.621 401.442 148.937 402.315 139.701 C 403.186 130.466 403.305 109.108 403.305 109.108 C 392.884 103.638 380.293 104.185 370.398 110.538 L 369.5 111.115 L 368.408 158.908 C 368.338 165.282 373.529 170.491 379.961 170.501 Z " fill="rgb(255,190,157)"/><path d=" M 385.382 123.315 C 386.094 123.549 386.48 124.312 386.244 125.018 C 386.008 125.723 385.238 126.106 384.527 125.872 C 383.814 125.637 383.428 124.875 383.664 124.169 C 383.9 123.463 384.669 123.081 385.382 123.315 Z " fill="rgb(38,50,56)"/><path d=" M 387.97 123.795 C 387.814 123.947 386.939 123.192 385.653 123.11 C 384.367 123.009 383.393 123.631 383.261 123.459 C 383.196 123.382 383.359 123.102 383.784 122.818 C 384.202 122.537 384.907 122.284 385.708 122.341 C 386.51 122.398 387.17 122.749 387.543 123.087 C 387.924 123.427 388.045 123.729 387.97 123.795 Z " fill="rgb(38,50,56)"/><path d=" M 399.481 123.315 C 400.193 123.549 400.579 124.312 400.343 125.018 C 400.107 125.723 399.337 126.106 398.626 125.872 C 397.913 125.637 397.527 124.875 397.763 124.169 C 398 123.463 398.768 123.081 399.481 123.315 Z " fill="rgb(38,50,56)"/><path d=" M 402.242 123.824 C 402.086 123.975 401.211 123.221 399.925 123.139 C 398.639 123.038 397.665 123.66 397.533 123.488 C 397.468 123.41 397.631 123.13 398.056 122.847 C 398.475 122.566 399.179 122.312 399.98 122.369 C 400.782 122.427 401.442 122.778 401.815 123.116 C 402.196 123.456 402.317 123.757 402.242 123.824 Z " fill="rgb(38,50,56)"/><path d=" M 392.539 133.81 C 392.538 133.709 393.346 133.614 394.652 133.541 C 394.991 133.532 395.262 133.478 395.3 133.301 C 395.377 133.104 395.276 132.738 395.138 132.328 C 394.876 131.459 394.611 130.58 394.333 129.659 C 393.231 125.86 392.496 122.736 392.69 122.681 C 392.885 122.625 393.935 125.659 395.038 129.458 C 395.296 130.385 395.543 131.269 395.787 132.143 C 395.879 132.538 396.075 133.007 395.857 133.542 C 395.742 133.81 395.461 133.988 395.234 134.027 C 395.007 134.076 394.817 134.061 394.655 134.055 C 393.349 133.997 392.54 133.91 392.539 133.81 Z " fill="rgb(38,50,56)"/><path d=" M 392.021 149.489 C 392.021 149.489 386.087 149.489 380.141 145.083 C 380.141 145.083 382.471 151.968 391.847 151.886 L 392.021 149.489 Z " fill="rgb(235,153,110)"/><path d=" M 369.273 124.68 C 369.283 123.933 368.706 123.288 367.953 123.253 C 366.211 123.172 363.347 123.802 362.987 128.562 C 362.472 135.364 369.113 133.793 369.14 133.599 C 369.161 133.448 369.24 127.326 369.273 124.68 Z " fill="rgb(255,190,157)"/><path d=" M 367.678 130.893 C 367.65 130.869 367.552 130.967 367.343 131.044 C 367.139 131.119 366.796 131.155 366.449 130.996 C 365.743 130.678 365.219 129.491 365.279 128.263 C 365.308 127.643 365.484 127.063 365.741 126.592 C 365.989 126.11 366.34 125.787 366.709 125.749 C 367.079 125.693 367.322 125.929 367.391 126.127 C 367.468 126.324 367.414 126.456 367.449 126.471 C 367.468 126.489 367.606 126.368 367.572 126.083 C 367.553 125.946 367.486 125.779 367.334 125.637 C 367.179 125.492 366.943 125.406 366.686 125.414 C 366.154 125.411 365.641 125.858 365.358 126.375 C 365.044 126.893 364.832 127.543 364.799 128.24 C 364.74 129.613 365.35 130.949 366.321 131.307 C 366.794 131.468 367.207 131.354 367.428 131.209 C 367.654 131.057 367.7 130.907 367.678 130.893 Z " fill="rgb(235,153,110)"/><path d=" M 381.882 120.173 C 382.221 120.609 383.404 120.405 384.941 120.34 C 386.474 120.216 387.674 120.275 387.953 119.801 C 388.271 119.307 386.786 118.173 384.809 118.336 C 382.827 118.417 381.503 119.722 381.882 120.173 Z " fill="rgb(38,50,56)"/><path d=" M 396.858 119.721 C 397.044 120.314 398.17 120.492 399.42 120.485 C 400.67 120.46 401.792 120.252 401.962 119.654 C 402.138 119.072 401.004 118.237 399.393 118.26 C 397.783 118.28 396.669 119.144 396.858 119.721 Z " fill="rgb(38,50,56)"/><path d=" M 404.618 112.033 C 404.618 112.033 399.014 114.746 391.721 111.106 C 386.934 108.717 381.356 107.55 380.126 108.512 C 378.896 109.474 378.637 114.406 373.895 115.846 C 373.895 115.846 374.222 125.254 370.471 124.918 C 366.719 124.583 369.063 110.011 369.063 110.011 L 378.24 105.529 L 388.255 103.637 L 397.691 104.967 L 404.993 106.966 L 404.618 112.033 Z " fill="rgb(38,50,56)"/><path d=" M 341.812 166.477 C 351.618 156.392 368.879 157.492 368.879 157.492 L 383.187 167.735 L 391.3 158.289 C 391.3 158.289 399.827 159.225 407.817 163.399 L 408.367 163.57 L 408.36 163.684 C 414.635 167.092 423.523 175.266 431.989 183.198 L 421.858 192.6 L 410.644 202.554 C 410.644 202.554 410.688 202.625 410.664 202.753 C 410.546 203.356 412.223 217.048 413.939 227.454 C 403.726 237.199 390.709 241.371 376.257 238.838 C 371.671 238.034 369.451 236.916 365.204 235.802 C 358.925 234.155 354.375 228.712 353.812 222.246 C 353.047 213.525 352.465 202.727 352.465 202.727" fill="rgb(69,90,100)"/><path d=" M 400.272 160.048 C 400.306 160.037 400.524 160.61 400.888 161.657 C 401.255 162.704 401.754 164.228 402.343 166.12 C 403.525 169.903 405.029 175.172 406.451 181.051 C 407.87 186.934 408.936 192.309 409.612 196.214 C 409.95 198.167 410.202 199.751 410.352 200.849 C 410.506 201.946 410.574 202.556 410.539 202.562 C 410.503 202.568 410.368 201.969 410.153 200.882 C 409.922 199.711 409.618 198.159 409.25 196.281 C 408.482 192.398 407.361 187.046 405.945 181.173 C 404.525 175.304 403.081 170.031 401.991 166.225 C 401.461 164.386 401.025 162.866 400.695 161.718 C 400.39 160.653 400.238 160.059 400.272 160.048 Z " fill="rgb(38,50,56)"/><path d=" M 409.484 196.1 C 409.393 195.989 413.671 192.353 419.038 187.981 C 424.407 183.607 428.831 180.153 428.921 180.265 C 429.012 180.376 424.735 184.011 419.367 188.385 C 414.001 192.757 409.575 196.212 409.484 196.1 Z " fill="rgb(38,50,56)"/><g opacity="0.199997"><path d=" M 354.757 180.32 L 345.98 209.195 L 349.245 210.893 L 352.466 202.727 C 352.466 202.727 355.776 185.572 354.757 180.32 Z " fill="rgb(0,0,0)"/></g><g opacity="0.199997"><path d=" M 399.321 160.066 C 404.052 162.561 392.194 168.563 386.839 168.401 L 390.727 158.139 C 390.727 158.139 397.733 159.229 399.321 160.066 Z " fill="rgb(0,0,0)"/></g><path d=" M 367.468 158.139 L 367.468 150.493 C 367.468 150.493 382.403 154.336 382.945 163.272 C 382.945 163.272 384.844 153.394 392.538 152.921 L 393.625 166.814 L 384.671 174.605 L 375.596 174.605 L 368.407 168.404 L 367.468 158.756" fill="rgb(69,90,100)"/><path d=" M 386.305 206.132 C 386.27 206.13 386.262 205.544 386.28 204.487 C 386.301 203.431 386.321 201.902 386.326 200.014 C 386.338 196.238 386.22 191.021 385.746 185.281 C 385.267 179.54 384.522 174.375 383.886 170.653 C 383.568 168.861 383.303 167.377 383.103 166.248 C 382.911 165.209 382.822 164.63 382.857 164.622 C 382.892 164.614 383.048 165.179 383.301 166.206 C 383.558 167.233 383.885 168.729 384.248 170.587 C 384.979 174.3 385.784 179.477 386.266 185.238 C 386.742 190.998 386.801 196.236 386.694 200.02 C 386.642 201.911 386.566 203.442 386.482 204.496 C 386.403 205.552 386.341 206.134 386.305 206.132 Z " fill="rgb(38,50,56)"/><path d=" M 382.257 160.7 C 382.251 160.744 381.918 160.571 381.371 160.782 C 380.8 160.967 380.29 161.677 379.872 162.691 C 378.955 164.679 377.82 167.543 377.031 170.953 L 376.952 171.294 L 376.651 171.113 C 375.758 170.574 374.843 169.991 373.922 169.366 C 372.137 168.151 370.505 166.913 369.079 165.687 C 368.362 165.07 367.771 164.322 367.431 163.528 C 367.096 162.733 366.965 161.938 366.928 161.222 C 366.869 159.783 367.105 158.649 367.259 157.878 C 367.427 157.105 367.554 156.688 367.587 156.695 C 367.624 156.702 367.564 157.135 367.459 157.912 C 367.366 158.687 367.192 159.821 367.295 161.198 C 367.354 161.883 367.5 162.627 367.825 163.352 C 368.157 164.076 368.695 164.738 369.397 165.326 C 370.809 166.506 372.448 167.734 374.214 168.935 C 375.127 169.554 376.033 170.136 376.915 170.677 L 376.535 170.836 C 377.36 167.387 378.569 164.512 379.574 162.547 C 379.821 162.057 380.062 161.603 380.361 161.26 C 380.653 160.912 381.008 160.7 381.314 160.614 C 381.947 160.437 382.281 160.692 382.257 160.7 Z " fill="rgb(38,50,56)"/><path d=" M 392.539 152.921 C 392.575 152.92 392.621 153.345 392.68 154.115 C 392.744 154.992 392.823 156.08 392.918 157.369 C 393.03 158.741 393.196 160.369 393.476 162.163 C 393.586 163.048 393.897 164.01 393.656 165.098 C 393.347 166.167 392.543 166.964 391.691 167.608 C 390.495 168.496 389.245 169.162 388.405 170.103 L 388.008 170.549 L 387.969 169.954 C 387.761 166.796 386.706 164.197 385.763 162.507 C 384.813 160.804 384.03 159.928 384.092 159.879 C 384.112 159.86 384.326 160.062 384.682 160.468 C 385.034 160.878 385.517 161.504 386.035 162.349 C 387.072 164.024 388.222 166.667 388.468 169.92 L 388.031 169.771 C 388.944 168.734 390.236 168.046 391.378 167.192 C 392.191 166.586 392.909 165.835 393.162 164.971 C 393.375 164.095 393.111 163.14 393.002 162.234 C 392.745 160.42 392.616 158.774 392.551 157.393 C 392.485 156.012 392.474 154.894 392.477 154.122 C 392.481 153.35 392.504 152.922 392.539 152.921 Z " fill="rgb(38,50,56)"/><path d=" M 440.607 154.84 C 440.001 155.555 418.014 184.954 418.014 184.954 L 421.109 186.708 L 443.67 157.683 L 440.607 154.84 Z " fill="rgb(38,50,56)"/><path d=" M 352.284 178.083 C 352.284 178.083 375.413 211.377 376.807 212.031 C 379.553 213.32 411.195 185.976 414.213 183.359 C 414.628 182.804 415.487 181.631 417.172 179.299 C 417.172 179.299 419.669 167.875 422.333 168.753 C 424.997 169.63 420.873 174.558 422.608 178.898 C 424.343 183.239 432.289 172.886 432.607 171.957 L 434.657 169.279 C 434.657 169.279 436.805 175.372 436.66 177.916 C 436.193 186.066 428.482 195.759 428.482 195.759 C 428.482 195.759 393.852 238.657 370.132 239.988 C 363.3 240.372 351.159 220.986 343.042 206.45 C 338.14 197.671 340.587 186.613 348.71 180.689 L 352.284 178.083 Z " fill="rgb(255,190,157)"/><path d=" M 432.767 179.365 C 432.69 179.318 433.431 178.009 434.249 176.349 C 435.072 174.691 435.663 173.308 435.747 173.341 C 435.825 173.368 435.36 174.814 434.529 176.488 C 433.703 178.163 432.836 179.409 432.767 179.365 Z " fill="rgb(235,153,110)"/><path d=" M 348.369 161.835 C 348.369 161.835 323.543 170.661 342.001 212.409 L 370.659 195.112 L 366.583 185.35 L 348.369 161.835 Z " fill="rgb(69,90,100)"/><path d=" M 346.466 162.557 C 346.466 162.557 347.549 162.378 349.455 162.808 C 350.395 163.05 351.526 163.466 352.71 164.182 C 353.898 164.893 355.13 165.893 356.327 167.15 C 358.737 169.661 360.986 173.166 363.07 177.225 C 365.171 181.284 367.13 185.907 369.141 190.765 C 369.742 192.22 370.335 193.654 370.898 195.013 L 370.987 195.227 L 370.782 195.339 C 362.491 199.859 355.271 204.092 350.167 207.26 C 347.614 208.84 345.58 210.14 344.185 211.043 C 343.517 211.472 342.984 211.814 342.576 212.076 C 342.207 212.307 342.009 212.422 342 212.409 C 341.99 212.395 342.17 212.253 342.522 211.995 C 342.874 211.739 343.394 211.358 344.079 210.887 C 345.445 209.933 347.451 208.588 349.983 206.966 C 355.043 203.717 362.242 199.424 370.534 194.885 L 370.42 195.211 C 369.857 193.853 369.262 192.419 368.659 190.964 C 366.651 186.108 364.709 181.492 362.644 177.444 C 360.593 173.395 358.398 169.906 356.06 167.403 C 354.898 166.15 353.705 165.15 352.558 164.431 C 351.411 163.705 350.319 163.272 349.404 163.004 C 347.55 162.521 346.461 162.629 346.466 162.557 Z " fill="rgb(38,50,56)"/><path d=" M 399.871 100.661 C 399.889 100.658 399.931 100.806 399.994 101.097 C 400.04 101.388 400.102 101.827 400.066 102.392 C 400.011 103.502 399.607 105.222 398.173 106.722 C 396.786 108.225 394.149 109.174 391.491 108.409 C 390.189 108.029 388.875 107.237 388.07 105.929 C 387.68 105.282 387.445 104.477 387.558 103.671 C 387.667 102.882 388.064 102.082 388.786 101.608 C 389.508 101.119 390.455 101.133 391.186 101.453 C 391.928 101.768 392.54 102.372 392.827 103.103 C 393.413 104.57 392.981 106.157 392.171 107.259 C 390.448 109.539 387.337 109.723 385.613 108.684 C 384.703 108.266 383.9 107.872 383.143 107.737 C 382.391 107.582 381.722 107.714 381.232 107.938 C 380.252 108.41 379.855 108.932 379.809 108.875 C 379.797 108.862 379.897 108.745 380.102 108.531 C 380.204 108.422 380.33 108.287 380.511 108.163 C 380.684 108.028 380.884 107.873 381.146 107.754 C 381.648 107.488 382.379 107.311 383.192 107.45 C 384.008 107.568 384.854 107.957 385.761 108.347 C 386.217 108.532 386.693 108.732 387.203 108.824 C 387.703 108.91 388.263 108.9 388.813 108.794 C 389.916 108.596 391.046 107.992 391.784 106.975 C 392.508 105.981 392.866 104.534 392.356 103.299 C 391.909 102.092 390.228 101.275 389.071 102.043 C 388.507 102.41 388.163 103.073 388.071 103.74 C 387.976 104.412 388.166 105.09 388.509 105.668 C 389.212 106.83 390.421 107.587 391.626 107.949 C 394.097 108.685 396.577 107.844 397.911 106.463 C 399.3 105.08 399.751 103.448 399.864 102.376 C 399.982 101.28 399.813 100.668 399.871 100.661 Z " fill="rgb(69,90,100)"/><path d=" M 394.465 138.371 C 394.476 138.434 394.157 138.566 393.607 138.589 C 393.061 138.615 392.287 138.493 391.53 138.114 C 390.777 137.732 390.218 137.182 389.914 136.728 C 389.606 136.272 389.523 135.938 389.578 135.91 C 389.71 135.83 390.376 136.969 391.766 137.649 C 393.138 138.361 394.45 138.218 394.465 138.371 Z " fill="rgb(38,50,56)"/><path d=" M 368.241 133.95 C 368.286 133.907 368.567 134.39 368.205 135.078 C 368.028 135.4 367.693 135.748 367.185 135.887 C 366.675 136.03 366.068 135.862 365.633 135.48 C 365.193 135.101 364.949 134.537 364.974 134.028 C 364.99 133.52 365.204 133.11 365.431 132.831 C 365.911 132.266 366.399 132.214 366.408 132.271 C 366.445 132.346 366.054 132.523 365.729 133.046 C 365.393 133.541 365.262 134.495 365.974 135.087 C 366.302 135.372 366.725 135.496 367.075 135.42 C 367.43 135.348 367.719 135.115 367.893 134.882 C 368.257 134.395 368.159 133.961 368.241 133.95 Z " fill="rgb(38,50,56)"/><path d=" M 401.517 104.03 C 401.564 104.006 401.933 104.67 401.998 105.867 C 402.073 107.039 401.733 108.782 400.514 110.196 C 399.288 111.602 397.61 112.185 396.439 112.278 C 395.246 112.383 394.536 112.112 394.553 112.062 C 394.565 111.973 395.28 112.105 396.39 111.913 C 397.485 111.735 399.003 111.136 400.121 109.854 C 401.231 108.567 401.609 106.979 401.629 105.87 C 401.663 104.744 401.43 104.055 401.517 104.03 Z " fill="rgb(69,90,100)"/><path d=" M 367.7 187.699 C 367.763 187.828 361.17 191.219 352.973 195.271 C 344.775 199.325 338.079 202.506 338.015 202.377 C 337.952 202.248 344.545 198.858 352.743 194.804 C 360.939 190.752 367.637 187.57 367.7 187.699 Z " fill="rgb(224,224,224)"/><path d=" M 361.69 176.357 C 361.758 176.484 355.888 179.766 348.582 183.688 C 341.272 187.611 335.294 190.688 335.225 190.561 C 335.158 190.434 341.026 187.152 348.336 183.229 C 355.642 179.308 361.622 176.231 361.69 176.357 Z " fill="rgb(224,224,224)"/><path d=" M 355.884 167.186 C 355.918 167.251 354.787 167.9 352.947 168.923 C 350.982 170.02 348.506 171.401 345.769 172.929 C 343.044 174.482 340.582 175.886 338.626 177.001 C 336.799 178.046 335.659 178.678 335.62 178.615 C 335.584 178.556 336.655 177.812 338.437 176.686 C 340.217 175.559 342.711 174.056 345.513 172.475 C 348.314 170.895 350.891 169.539 352.776 168.598 C 354.661 167.656 355.853 167.124 355.884 167.186 Z " fill="rgb(224,224,224)"/><path d=" M 377.845 165.017 C 377.831 165.077 377.062 164.976 375.913 164.497 C 374.765 164.028 373.279 163.125 371.869 161.865 C 370.46 160.605 369.367 159.294 368.609 158.333 C 367.853 157.368 367.426 156.74 367.48 156.695 C 367.536 156.648 368.065 157.194 368.889 158.095 C 369.716 158.991 370.839 160.246 372.216 161.475 C 373.59 162.705 374.991 163.622 376.069 164.163 C 377.143 164.713 377.867 164.937 377.845 165.017 Z " fill="rgb(224,224,224)"/><path d=" M 392.433 159.601 C 392.559 159.638 391.954 161.265 390.356 162.598 C 388.77 163.946 387.063 164.266 387.048 164.134 C 386.997 163.985 388.537 163.467 390.02 162.2 C 391.521 160.954 392.294 159.526 392.433 159.601 Z " fill="rgb(224,224,224)"/><path d=" M 418.436 174.65 C 418.437 174.668 418.246 174.703 417.878 174.754 C 417.454 174.806 416.921 174.872 416.27 174.952 C 414.872 175.107 412.844 175.302 410.336 175.497 C 405.32 175.897 398.38 176.289 390.709 176.568 C 383.037 176.836 376.085 176.94 371.054 176.899 C 368.539 176.883 366.502 176.833 365.097 176.779 C 364.442 176.745 363.907 176.718 363.479 176.696 C 363.109 176.671 362.915 176.65 362.915 176.631 C 362.916 176.613 363.111 176.6 363.481 176.591 C 363.909 176.587 364.445 176.582 365.1 176.576 C 366.579 176.565 368.594 176.549 371.053 176.53 C 376.08 176.478 383.023 176.316 390.691 176.047 C 398.356 175.768 405.293 175.435 410.311 175.129 C 412.765 174.973 414.777 174.844 416.251 174.75 C 416.907 174.71 417.441 174.676 417.869 174.65 C 418.239 174.632 418.434 174.632 418.436 174.65 Z " fill="rgb(224,224,224)"/><path d=" M 410.539 186.508 C 410.543 186.544 409.957 186.634 408.895 186.767 C 407.834 186.899 406.295 187.065 404.39 187.236 C 400.58 187.587 395.308 187.95 389.476 188.187 C 383.642 188.421 378.355 188.485 374.53 188.442 C 372.618 188.425 371.07 188.384 370.002 188.338 C 368.933 188.291 368.343 188.248 368.344 188.212 C 368.344 188.176 368.935 188.151 370.005 188.135 C 371.162 188.119 372.687 188.099 374.529 188.074 C 378.351 188.022 383.628 187.9 389.454 187.667 C 395.279 187.43 400.549 187.126 404.361 186.869 C 406.199 186.745 407.722 186.643 408.877 186.565 C 409.943 186.494 410.535 186.472 410.539 186.508 Z " fill="rgb(224,224,224)"/><path d=" M 392.614 201.134 C 392.62 201.204 391.355 201.39 389.3 201.601 C 387.245 201.813 384.398 202.041 381.25 202.198 C 378.1 202.354 375.246 202.41 373.179 202.404 C 371.113 202.398 369.836 202.338 369.836 202.268 C 369.835 202.194 371.111 202.123 373.173 202.035 C 375.383 201.937 378.156 201.814 381.224 201.678 C 384.29 201.509 387.061 201.356 389.27 201.234 C 391.33 201.117 392.607 201.061 392.614 201.134 Z " fill="rgb(224,224,224)"/><path d=" M 369.698 166.427 C 369.695 166.576 366.627 166.609 362.852 166.767 C 359.075 166.919 356.016 167.138 356 166.99 C 355.984 166.852 359.034 166.4 362.831 166.247 C 366.626 166.088 369.703 166.289 369.698 166.427 Z " fill="rgb(224,224,224)"/><path d=" M 411.885 165.887 C 411.884 166.031 407.906 166.132 402.998 166.114 C 398.09 166.095 394.114 165.964 394.114 165.82 C 394.114 165.676 398.092 165.575 403 165.593 C 407.907 165.612 411.885 165.743 411.885 165.887 Z " fill="rgb(224,224,224)"/><path d=" M 413.421 226.737 C 413.437 226.769 413.111 226.954 412.51 227.26 C 411.91 227.57 411.023 227.978 409.908 228.445 C 407.684 229.381 404.522 230.486 400.926 231.318 C 397.328 232.143 394.001 232.534 391.591 232.667 C 390.386 232.735 389.408 232.757 388.734 232.74 C 388.059 232.728 387.687 232.704 387.686 232.669 C 387.685 232.585 389.173 232.528 391.563 232.3 C 393.952 232.074 397.241 231.629 400.809 230.81 C 404.374 229.985 407.526 228.945 409.774 228.102 C 412.022 227.261 413.386 226.661 413.421 226.737 Z " fill="rgb(224,224,224)"/><path d=" M 100.004 321.55 C 100.004 344.357 119.386 362.846 143.294 362.846 C 167.202 362.846 186.584 344.357 186.584 321.55 C 186.584 298.742 167.202 280.253 143.294 280.253 C 119.386 280.253 100.004 298.742 100.004 321.55 Z " fill="rgb(224,224,224)"/><path d=" M 134.474 221.982 C 127.606 222.339 124.91 229.499 124.088 231.097 C 123.267 232.695 123.139 234.545 122.988 236.336 C 122.837 238.127 122.625 239.985 121.67 241.508 C 120.159 243.92 116.983 245.167 116.118 247.879 C 115.139 250.946 117.651 254.228 116.981 257.377 C 116.622 259.067 115.388 260.458 114.952 262.129 C 114.496 263.876 114.971 265.763 115.879 267.322 C 118.134 271.196 122.81 273.142 127.29 273.301 C 131.77 273.461 136.153 272.122 140.435 270.795" fill="rgb(38,50,56)"/><path d=" M 164.695 230.88 C 164.023 232.334 164.658 234.099 165.712 235.305 C 166.766 236.51 168.182 237.329 169.429 238.334 C 170.676 239.338 171.822 240.663 171.967 242.258 C 172.1 243.723 171.364 245.175 171.564 246.632 C 172.077 250.376 178.047 251.499 178.365 255.265 C 178.577 257.772 176.004 260.075 176.716 262.487 C 176.99 263.412 177.706 264.128 178.203 264.954 C 179.897 267.768 178.748 271.649 176.294 273.829 C 173.839 276.011 170.426 276.779 167.146 276.927 C 164.387 277.051 161.253 276.6 159.629 274.366 C 158.142 272.323 158.447 269.536 158.744 267.027 C 160.131 255.309 159.895 243.466 159.657 231.669" fill="rgb(38,50,56)"/><path d=" M 136.278 285.112 C 136.33 278.955 136.273 272.472 136.273 272.472 C 136.273 272.472 128.357 271.064 126.834 260.698 C 125.381 250.811 127.845 229.547 127.845 229.547 C 139.313 225.024 152.225 226.774 160.259 236.004 L 159.01 286 C 158.865 291.804 153.759 296.302 147.546 296.099 L 147.546 296.099 C 141.27 295.894 136.228 290.977 136.278 285.112 Z " fill="rgb(255,190,157)"/><path d=" M 130 245.874 C 129.967 246.575 130.533 247.18 131.264 247.228 C 131.994 247.275 132.613 246.748 132.646 246.047 C 132.679 245.347 132.113 244.741 131.383 244.693 C 130.652 244.645 130.033 245.174 130 245.874 Z " fill="rgb(38,50,56)"/><path d=" M 127.865 244.848 C 128.027 245.023 129.041 244.291 130.469 244.311 C 133.157 244.701 133.107 245.111 133.093 244.885 C 133.17 244.808 133.006 244.494 132.553 244.156 C 132.108 243.82 131.345 243.49 130.456 243.483 C 129.566 243.477 128.814 243.796 128.38 244.127 C 127.937 244.458 127.785 244.77 127.865 244.848 Z " fill="rgb(38,50,56)"/><path d=" M 144.615 246.296 C 144.582 246.997 145.148 247.602 145.879 247.65 C 146.609 247.697 147.228 247.17 147.261 246.469 C 147.294 245.769 146.728 245.162 145.998 245.114 C 145.267 245.067 144.648 245.596 144.615 246.296 Z " fill="rgb(38,50,56)"/><path d=" M 142.759 245.342 C 142.922 245.517 143.937 244.784 145.364 244.805 C 146.79 244.804 147.83 245.551 147.987 245.378 C 148.064 245.301 147.902 244.988 147.447 244.65 C 147.002 244.314 146.239 243.984 145.35 243.977 C 144.461 243.971 143.709 244.29 143.275 244.62 C 142.833 244.952 142.679 245.263 142.759 245.342 Z " fill="rgb(38,50,56)"/><path d=" M 137.455 255.585 C 137.462 255.504 136.577 255.34 135.14 255.14 C 134.776 255.098 134.432 255.022 134.373 254.772 C 134.29 254.507 134.448 254.116 134.629 253.693 C 134.982 252.815 135.351 251.895 135.74 250.93 C 137.283 246.994 138.404 243.755 138.246 243.695 C 138.086 243.634 136.706 246.775 135.163 250.711 C 134.791 251.682 134.436 252.606 134.098 253.492 C 133.955 253.905 133.712 254.372 133.892 254.921 C 133.987 255.194 134.252 255.396 134.485 255.461 C 134.718 255.535 134.923 255.541 135.104 255.555 C 136.55 255.649 137.448 255.666 137.455 255.585 Z " fill="rgb(38,50,56)"/><path d=" M 136.273 272.472 C 136.273 272.472 143.229 273.001 150.173 268.936 C 150.173 268.936 146.73 276.005 136.384 274.917 L 136.273 272.472 Z " fill="rgb(235,153,110)"/><path d=" M 138.019 259.034 C 138.54 258.361 139.444 257.998 140.336 258.105 C 140.956 258.18 141.578 258.485 141.949 258.993 C 142.319 259.503 142.39 260.221 142.042 260.698 C 141.651 261.235 140.844 261.349 140.165 261.149 C 139.485 260.948 138.904 260.492 138.352 260.039 C 138.2 259.913 138.043 259.782 137.949 259.611 C 137.855 259.441 137.837 259.219 137.957 259.08" fill="rgb(235,153,110)"/><path d=" M 141.646 256.621 C 141.414 256.605 141.393 258.155 140.054 259.24 C 138.716 260.328 137.066 260.135 137.051 260.351 C 137.029 260.449 137.416 260.657 138.113 260.684 C 138.797 260.716 139.798 260.508 140.618 259.844 C 141.435 259.179 141.793 258.282 141.854 257.646 C 141.92 257 141.752 256.613 141.646 256.621 Z " fill="rgb(38,50,56)"/><path d=" M 155.765 228.619 C 151.979 234.019 141.955 239.571 134.777 240.86 C 135.615 239.757 140.024 237.038 140.862 235.935 C 137.608 238.365 132.952 241.615 128.636 241.835 C 128.125 241.861 127.572 241.86 127.152 241.604 C 126.579 241.255 126.463 240.577 126.397 239.978 C 126.118 237.449 126.293 233.111 126.696 230.601 C 127.098 228.091 128.252 225.593 130.43 223.911 C 133.196 221.774 137.154 221.247 140.883 221.157 C 144.011 221.082 147.235 221.267 150.094 222.396 C 152.952 223.524 155.398 225.755 155.816 228.437" fill="rgb(38,50,56)"/><path d=" M 166.62 252.81 C 167.141 250.131 167.557 247.59 167.654 245.893 C 167.959 240.553 166.417 220.844 148.005 222.43 L 147.263 228.038 C 147.263 228.038 144.417 247.231 156.327 247.373 C 156.327 247.373 156.985 253.091 162.378 258.655 C 162.378 258.655 165.501 258.56 166.62 252.81 Z " fill="rgb(38,50,56)"/><path d=" M 156.327 247.373 C 157.436 247.172 158.605 247.216 159.656 247.625 C 160.705 248.034 161.624 248.83 162.068 249.865 C 162.513 250.904 162.453 252.115 162.058 253.173 C 161.663 254.232 160.954 255.15 160.141 255.934 C 159.556 256.498 158.893 257.01 158.117 257.245 C 157.34 257.478 156.43 257.391 155.816 256.86" fill="rgb(255,190,157)"/><path d=" M 156.861 254.088 C 156.734 254.128 157.207 254.803 158.222 254.542 C 158.71 254.419 159.191 253.996 159.485 253.465 C 159.78 252.924 159.976 252.331 160.057 251.635 C 160.135 250.945 159.986 250.209 159.611 249.681 C 159.255 249.145 158.665 248.822 158.168 248.806 C 157.127 248.771 156.797 249.488 156.914 249.51 C 156.997 249.595 157.404 249.229 158.084 249.401 C 158.736 249.527 159.366 250.434 159.213 251.551 C 159.076 252.688 158.626 253.725 158.017 253.978 C 157.383 254.292 156.931 253.997 156.861 254.088 Z " fill="rgb(235,153,110)"/><path d=" M 158.337 226.595 C 159.746 227.399 161.472 227.626 163.041 227.213 C 164.609 226.801 166.002 225.754 166.833 224.362 C 167.37 223.463 167.678 222.373 167.415 221.359 C 167.055 219.974 165.708 219.039 164.322 218.678 C 162.313 218.156 160.036 218.656 158.517 220.072 C 156.998 221.489 156.344 223.805 157.018 225.77 C 157.692 227.734 159.72 229.183 161.794 229.065" fill="rgb(38,50,56)"/><path d=" M 160.015 256.445 C 158.991 257.184 157.953 257.935 157.153 258.913 C 156.352 259.89 155.802 261.137 155.918 262.395 C 155.983 263.099 156.252 263.795 156.15 264.494 C 156.01 265.456 155.22 266.169 154.699 266.989 C 153.352 269.112 153.931 272.09 155.634 273.938 C 157.337 275.788 159.925 276.622 162.437 276.704 C 163.894 276.752 165.424 276.547 166.619 275.711 C 168.34 274.506 169.003 272.247 169.047 270.145" fill="rgb(38,50,56)"/><path d=" M 161.265 230.725 C 161.319 230.757 160.954 231.509 160.18 232.613 C 159.41 233.716 158.197 235.148 156.634 236.494 C 155.068 237.836 153.47 238.821 152.264 239.417 C 151.056 240.016 150.259 240.264 150.235 240.205 C 150.159 240.055 153.233 238.756 156.295 236.099 C 159.381 233.472 161.127 230.628 161.265 230.725 Z " fill="rgb(69,90,100)"/><path d=" M 163.175 230.624 C 163.231 230.63 163.195 231.609 162.836 233.147 C 162.481 234.683 161.74 236.763 160.497 238.837 C 159.247 240.907 157.755 242.536 156.566 243.569 C 155.374 244.607 154.528 245.098 154.495 245.051 C 154.372 244.922 157.622 242.663 160.05 238.568 C 162.529 234.506 163.004 230.575 163.175 230.624 Z " fill="rgb(69,90,100)"/><path d=" M 123.201 238.958 C 123.354 238.947 123.552 240.68 124.149 242.725 C 124.734 244.775 125.49 246.346 125.355 246.418 C 125.241 246.489 124.253 244.985 123.649 242.87 C 123.033 240.758 123.067 238.959 123.201 238.958 Z " fill="rgb(69,90,100)"/><path d=" M 167.305 274.337 C 167.332 274.274 167.769 274.804 168.827 274.826 C 169.341 274.831 169.988 274.683 170.589 274.271 C 171.189 273.866 171.681 273.139 171.924 272.25 C 172.165 271.357 172.17 270.315 171.943 269.236 C 171.727 268.15 171.306 267.028 170.935 265.805 C 170.574 264.586 170.259 263.215 170.491 261.774 C 170.721 260.309 171.671 259.12 172.134 257.805 C 172.606 256.491 172.416 255.036 171.838 253.859 C 171.247 252.666 170.251 251.799 169.097 251.354 C 168.525 251.109 167.931 250.902 167.382 250.604 C 166.834 250.31 166.324 249.9 166.013 249.377 C 165.371 248.322 165.397 247.178 165.394 246.231 C 165.412 245.262 165.464 244.414 165.291 243.688 C 165.136 242.962 164.865 242.368 164.54 241.965 C 163.868 241.142 163.158 241.2 163.192 241.132 C 163.191 241.123 163.346 241.099 163.628 241.165 C 163.909 241.226 164.322 241.418 164.695 241.834 C 165.069 242.247 165.384 242.866 165.575 243.622 C 165.785 244.383 165.756 245.288 165.762 246.231 C 165.782 247.168 165.804 248.252 166.377 249.144 C 166.936 250.063 168.101 250.443 169.283 250.912 C 170.503 251.361 171.659 252.337 172.295 253.631 C 172.933 254.911 173.15 256.513 172.626 257.977 C 172.105 259.411 171.193 260.554 170.994 261.86 C 170.774 263.164 171.053 264.473 171.395 265.669 C 171.746 266.873 172.16 268.021 172.367 269.153 C 172.585 270.283 172.562 271.398 172.278 272.352 C 171.992 273.305 171.434 274.086 170.751 274.513 C 170.075 274.941 169.372 275.066 168.821 275.028 C 168.263 274.996 167.859 274.798 167.623 274.637 C 167.384 274.473 167.305 274.337 167.305 274.337 Z " fill="rgb(69,90,100)"/><path d=" M 160.086 273.634 C 160.132 273.605 160.217 273.954 160.702 274.175 C 161.138 274.386 162.11 274.4 162.642 273.65 C 163.183 272.894 163.099 271.621 162.48 270.52 C 161.91 269.389 160.777 268.282 160.487 266.631 C 160.335 265.833 160.526 264.924 161.044 264.324 C 161.532 263.721 162.108 263.319 162.482 262.824 C 163.237 261.828 163.3 260.579 163.179 259.632 C 163.05 258.661 162.773 257.895 162.606 257.363 C 162.43 256.831 162.34 256.531 162.375 256.518 C 162.407 256.504 162.56 256.777 162.794 257.289 C 163.021 257.804 163.358 258.56 163.543 259.577 C 163.714 260.572 163.714 261.933 162.865 263.114 C 162.44 263.688 161.858 264.11 161.445 264.639 C 161.019 265.154 160.878 265.839 161.002 266.546 C 161.237 267.984 162.3 269.074 162.906 270.298 C 163.553 271.503 163.639 272.97 162.94 273.866 C 162.602 274.326 162.088 274.517 161.671 274.561 C 161.243 274.603 160.869 274.511 160.609 274.356 C 160.073 274.029 160.067 273.618 160.086 273.634 Z " fill="rgb(69,90,100)"/><path d=" M 120.887 271.022 C 120.861 271.043 120.566 270.761 120.073 270.209 C 119.595 269.65 118.866 268.831 118.328 267.58 C 118.062 266.956 117.888 266.209 117.908 265.397 C 117.927 264.594 118.165 263.691 118.79 262.975 C 119.409 262.255 120.309 261.884 120.851 261.211 C 121.41 260.545 121.482 259.567 121.264 258.638 C 121.049 257.691 120.613 256.842 120.168 255.996 C 119.737 255.146 119.341 254.281 119.195 253.372 C 119.035 252.468 119.235 251.52 119.71 250.847 C 120.172 250.165 120.75 249.699 121.234 249.259 C 122.243 248.429 122.814 247.525 122.941 246.822 C 123.081 246.119 122.84 245.735 122.898 245.72 C 122.91 245.714 122.977 245.797 123.05 245.984 C 123.123 246.168 123.189 246.471 123.141 246.854 C 123.074 247.626 122.483 248.65 121.484 249.529 C 121.012 249.987 120.467 250.463 120.073 251.082 C 119.669 251.693 119.518 252.48 119.669 253.293 C 119.81 254.11 120.19 254.93 120.621 255.762 C 121.062 256.586 121.541 257.501 121.773 258.523 C 122.013 259.525 121.943 260.715 121.247 261.533 C 120.567 262.333 119.673 262.678 119.149 263.293 C 118.609 263.892 118.374 264.681 118.34 265.415 C 118.304 266.154 118.441 266.849 118.67 267.444 C 119.135 268.643 119.804 269.49 120.23 270.082 C 120.672 270.668 120.916 270.998 120.887 271.022 Z " fill="rgb(69,90,100)"/><path d=" M 162.591 227.902 C 162.45 227.974 161.754 226.442 160.153 225.254 C 158.573 224.036 156.909 223.783 156.941 223.628 C 156.92 223.495 158.752 223.525 160.467 224.839 C 162.197 226.131 162.724 227.885 162.591 227.902 Z " fill="rgb(232,80,91)"/><path d=" M 164.034 218.328 C 164.086 218.295 164.421 218.686 164.692 219.462 C 164.963 220.227 165.119 221.407 164.78 222.635 C 164.44 223.864 163.701 224.795 163.075 225.313 C 162.445 225.841 161.956 226.003 161.929 225.95 C 161.887 225.879 162.296 225.605 162.822 225.045 C 163.347 224.493 163.97 223.61 164.278 222.497 C 164.585 221.383 164.504 220.306 164.337 219.562 C 164.173 218.811 163.963 218.366 164.034 218.328 Z " fill="rgb(69,90,100)"/><g opacity="0.300003"><path d=" M 113.254 341.343 C 113.254 341.343 138.099 364.936 152.868 360.663 C 167.637 356.392 172.008 345.312 172.008 345.312 L 172.366 341.343 L 170.886 340.374 L 114.026 335.771 L 113.254 341.343 Z " fill="rgb(0,0,0)"/></g><path d=" M 98.555 319.244 L 103.347 306.957 L 120.519 317.747 L 105.218 341.344 C 105.218 341.344 98.993 333.258 98.555 319.244 Z " fill="rgb(235,153,110)"/><path d=" M 117.935 285.295 C 125.925 281.121 136.273 279.919 136.273 279.919 C 139.277 285.931 148.742 286.693 154.473 282.591 L 159.306 279.323 C 159.306 279.323 160.055 279.294 161.331 279.406 C 172.636 280.406 181.889 288.85 184.193 299.962 C 185.032 304.007 185.65 308.649 185.402 312.954 C 184.774 323.878 173.46 324.866 173.46 324.866 C 173.46 324.866 172.877 335.664 172.113 344.386 L 172.113 344.387 C 171.545 350.903 168.164 355.772 162.219 358.499 C 157.793 360.529 155.352 361.468 149.605 362.387 C 135.117 364.704 121.199 359.204 112.022 349.374 C 113.739 338.968 115.378 325.495 115.262 324.893 C 115.237 324.766 115.281 324.693 115.281 324.693 L 104.067 314.739 L 97.712 309.402 C 97.712 309.402 111.659 288.703 117.935 285.295 Z " fill="rgb(232,80,91)"/><path d=" M 131.829 292.029 C 131.787 292.132 130.872 291.26 129.057 291.261 C 128.179 291.264 127.091 291.519 126.198 292.254 C 125.753 292.611 125.374 293.117 124.925 293.621 C 124.486 294.114 123.916 294.676 123.11 294.825 C 122.303 294.976 121.557 294.621 120.997 294.259 C 120.421 293.891 119.929 293.487 119.423 293.197 C 118.434 292.591 117.309 292.648 116.49 292.941 C 115.654 293.234 115.1 293.735 114.785 294.117 C 114.47 294.507 114.356 294.771 114.313 294.753 C 114.289 294.746 114.339 294.45 114.621 293.998 C 114.904 293.554 115.461 292.965 116.359 292.596 C 117.227 292.228 118.521 292.115 119.659 292.779 C 120.217 293.085 120.724 293.489 121.268 293.827 C 121.807 294.167 122.411 294.429 123.018 294.312 C 123.623 294.207 124.116 293.757 124.546 293.279 C 124.983 292.802 125.383 292.279 125.898 291.879 C 126.921 291.077 128.12 290.849 129.063 290.893 C 130.02 290.937 130.757 291.231 131.205 291.505 C 131.656 291.783 131.846 292.01 131.829 292.029 Z " fill="rgb(250,250,250)"/><path d=" M 143.223 306.956 C 143.15 307.04 142.562 305.923 140.841 305.344 C 140.009 305.066 138.896 304.96 137.815 305.37 C 137.28 305.567 136.759 305.926 136.172 306.26 C 135.598 306.587 134.879 306.937 134.068 306.82 C 133.254 306.706 132.661 306.131 132.247 305.609 C 131.818 305.077 131.481 304.537 131.094 304.1 C 130.351 303.21 129.266 302.904 128.396 302.92 C 127.511 302.931 126.826 303.228 126.405 303.49 C 125.983 303.759 125.789 303.973 125.755 303.941 C 125.735 303.928 125.876 303.663 126.288 303.324 C 126.698 302.995 127.414 302.614 128.382 302.552 C 129.323 302.48 130.585 302.786 131.452 303.779 C 131.882 304.248 132.233 304.792 132.641 305.286 C 133.043 305.78 133.532 306.223 134.144 306.306 C 134.752 306.398 135.362 306.13 135.922 305.814 C 136.489 305.502 137.035 305.134 137.651 304.92 C 138.876 304.486 140.085 304.654 140.965 304.997 C 141.858 305.345 142.462 305.858 142.799 306.261 C 143.138 306.669 143.245 306.944 143.223 306.956 Z " fill="rgb(250,250,250)"/><path d=" M 168.53 285.097 C 168.51 285.206 167.432 284.548 165.658 284.934 C 164.801 285.122 163.792 285.602 163.074 286.509 C 162.715 286.952 162.452 287.527 162.12 288.115 C 161.795 288.69 161.358 289.36 160.601 289.675 C 159.844 289.994 159.039 289.805 158.417 289.57 C 157.776 289.332 157.209 289.041 156.653 288.865 C 155.558 288.482 154.471 288.777 153.732 289.236 C 152.977 289.7 152.542 290.306 152.315 290.746 C 152.09 291.194 152.033 291.477 151.988 291.467 C 151.964 291.465 151.949 291.166 152.129 290.664 C 152.312 290.171 152.732 289.476 153.531 288.927 C 154.301 288.383 155.542 287.998 156.795 288.407 C 157.405 288.587 157.986 288.874 158.59 289.09 C 159.188 289.308 159.834 289.437 160.402 289.194 C 160.971 288.962 161.358 288.418 161.677 287.861 C 162.003 287.302 162.283 286.706 162.702 286.206 C 163.532 285.206 164.655 284.73 165.587 284.573 C 166.531 284.413 167.314 284.544 167.81 284.717 C 168.309 284.893 168.543 285.075 168.53 285.097 Z " fill="rgb(250,250,250)"/><path d=" M 156.853 301.504 C 156.78 301.572 156.353 300.705 155.058 300.217 C 154.431 299.982 153.587 299.868 152.756 300.146 C 152.346 300.276 151.935 300.533 151.469 300.774 C 151.014 301.007 150.435 301.261 149.79 301.139 C 149.144 301.018 148.695 300.537 148.393 300.118 C 148.079 299.689 147.84 299.261 147.561 298.914 C 147.034 298.215 146.228 297.943 145.565 297.919 C 144.18 297.877 143.54 298.662 143.494 298.571 C 143.473 298.555 143.585 298.35 143.914 298.095 C 144.24 297.848 144.811 297.569 145.568 297.55 C 146.303 297.522 147.286 297.803 147.933 298.61 C 148.253 298.99 148.507 299.422 148.802 299.814 C 149.093 300.204 149.443 300.547 149.889 300.627 C 150.809 300.789 151.653 299.962 152.612 299.688 C 153.589 299.395 154.525 299.573 155.197 299.876 C 156.586 300.516 156.906 301.515 156.853 301.504 Z " fill="rgb(250,250,250)"/><path d=" M 131.097 315.325 C 131.024 315.393 130.597 314.527 129.302 314.038 C 128.675 313.804 127.831 313.689 127 313.967 C 126.59 314.098 126.179 314.355 125.713 314.595 C 125.258 314.828 124.679 315.083 124.034 314.96 C 123.388 314.839 122.939 314.359 122.637 313.939 C 122.323 313.51 122.084 313.082 121.805 312.736 C 121.278 312.036 120.472 311.764 119.809 311.74 C 118.424 311.698 117.784 312.483 117.738 312.393 C 117.717 312.376 117.829 312.172 118.158 311.917 C 118.484 311.669 119.055 311.39 119.812 311.372 C 120.548 311.343 121.53 311.624 122.177 312.431 C 122.497 312.811 122.751 313.244 123.046 313.635 C 123.337 314.026 123.687 314.368 124.133 314.449 C 125.053 314.61 125.897 313.783 126.856 313.509 C 127.833 313.216 128.769 313.394 129.44 313.697 C 130.83 314.338 131.15 315.337 131.097 315.325 Z " fill="rgb(250,250,250)"/><path d=" M 155.174 315.636 C 155.127 315.725 154.443 315.043 153.058 314.999 C 152.389 314.98 151.555 315.145 150.859 315.677 C 150.511 315.934 150.206 316.31 149.843 316.688 C 149.487 317.056 149.022 317.484 148.373 317.576 C 147.722 317.671 147.142 317.362 146.721 317.063 C 146.284 316.758 145.92 316.431 145.545 316.193 C 144.819 315.701 143.968 315.705 143.332 315.897 C 142.009 316.306 141.658 317.255 141.585 317.185 C 141.56 317.176 141.599 316.946 141.828 316.598 C 142.057 316.258 142.505 315.811 143.217 315.547 C 143.902 315.282 144.924 315.231 145.797 315.785 C 146.224 316.04 146.603 316.367 147.009 316.642 C 147.41 316.918 147.853 317.128 148.301 317.061 C 149.224 316.915 149.754 315.86 150.574 315.29 C 151.403 314.698 152.347 314.563 153.08 314.632 C 154.602 314.788 155.228 315.63 155.174 315.636 Z " fill="rgb(250,250,250)"/><path d=" M 147.221 326.619 C 147.174 326.708 146.489 326.026 145.105 325.983 C 144.436 325.963 143.602 326.128 142.905 326.659 C 142.559 326.917 142.254 327.293 141.89 327.671 C 141.534 328.039 141.069 328.467 140.419 328.559 C 139.769 328.654 139.189 328.345 138.768 328.046 C 138.332 327.741 137.967 327.414 137.592 327.176 C 136.866 326.684 136.015 326.688 135.38 326.88 C 134.056 327.289 133.704 328.238 133.632 328.168 C 133.606 328.159 133.647 327.929 133.875 327.581 C 134.104 327.241 134.553 326.794 135.263 326.53 C 135.95 326.265 136.971 326.213 137.845 326.768 C 138.27 327.023 138.65 327.35 139.056 327.625 C 139.458 327.901 139.9 328.111 140.348 328.044 C 141.27 327.898 141.801 326.843 142.621 326.273 C 143.45 325.68 144.393 325.546 145.127 325.615 C 146.648 325.771 147.274 326.613 147.221 326.619 Z " fill="rgb(250,250,250)"/><path d=" M 130.426 353.879 C 130.354 353.949 129.914 353.088 128.613 352.618 C 127.982 352.392 127.138 352.29 126.311 352.579 C 125.902 352.716 125.495 352.979 125.032 353.225 C 124.58 353.465 124.005 353.728 123.359 353.614 C 122.711 353.502 122.256 353.028 121.947 352.614 C 121.627 352.189 121.382 351.765 121.099 351.422 C 120.561 350.73 119.752 350.47 119.089 350.454 C 117.703 350.433 117.074 351.227 117.027 351.137 C 117.006 351.12 117.115 350.914 117.44 350.654 C 117.763 350.402 118.329 350.116 119.086 350.086 C 119.821 350.047 120.807 350.315 121.466 351.112 C 121.792 351.487 122.051 351.916 122.352 352.303 C 122.649 352.691 123.003 353.027 123.45 353.102 C 124.372 353.25 125.204 352.411 126.16 352.123 C 127.132 351.816 128.072 351.982 128.747 352.275 C 130.145 352.896 130.479 353.89 130.426 353.879 Z " fill="rgb(250,250,250)"/><path d=" M 150.078 359.678 C 150.03 359.766 149.355 359.074 147.972 359.012 C 147.303 358.983 146.466 359.137 145.762 359.658 C 145.413 359.91 145.102 360.282 144.733 360.656 C 144.373 361.018 143.901 361.44 143.25 361.524 C 142.599 361.609 142.023 361.292 141.606 360.988 C 141.174 360.676 140.814 360.344 140.442 360.101 C 139.723 359.6 138.873 359.592 138.235 359.775 C 136.906 360.165 136.541 361.11 136.469 361.038 C 136.444 361.029 136.487 360.799 136.72 360.455 C 136.953 360.118 137.409 359.677 138.123 359.423 C 138.813 359.168 139.834 359.13 140.701 359.697 C 141.123 359.958 141.498 360.29 141.9 360.571 C 142.298 360.852 142.737 361.069 143.186 361.007 C 144.111 360.874 144.656 359.826 145.483 359.268 C 146.32 358.687 147.266 358.566 147.998 358.645 C 149.517 358.822 150.132 359.672 150.078 359.678 Z " fill="rgb(250,250,250)"/><path d=" M 85.318 276.979 C 85.925 277.695 107.911 307.093 107.911 307.093 L 104.816 308.847 L 82.255 279.822 L 85.318 276.979 Z " fill="rgb(38,50,56)"/><path d=" M 171.134 297.954 C 171.134 297.954 150.512 333.517 149.118 334.171 C 146.373 335.459 114.73 308.114 111.713 305.498 C 111.298 304.943 110.439 303.77 108.753 301.438 C 108.753 301.438 106.257 290.015 103.592 290.892 C 100.928 291.769 105.052 296.697 103.318 301.037 C 101.582 305.378 93.636 295.025 93.318 294.096 L 91.269 291.418 C 91.269 291.418 89.12 297.511 89.265 300.055 C 89.732 308.205 97.443 317.898 97.443 317.898 C 97.443 317.898 128.777 357.162 152.498 358.493 C 159.33 358.877 172.38 339.208 180.497 324.672 C 185.399 315.893 183.124 306.976 175 301.053 L 171.134 297.954 Z " fill="rgb(255,190,157)"/><path d=" M 93.158 301.504 C 93.089 301.549 92.221 300.302 91.395 298.626 C 90.564 296.952 90.099 295.508 90.177 295.48 C 90.261 295.447 90.852 296.83 91.676 298.487 C 92.494 300.148 93.234 301.456 93.158 301.504 Z " fill="rgb(235,153,110)"/><path d=" M 170.164 288.061 C 169.349 288.55 150.173 324.15 150.173 324.15 L 174.856 343.485 C 174.856 343.485 181.278 327.666 184.664 314.807 C 185.584 311.317 185.11 301.99 183.812 298.392 C 181.969 293.279 179.188 294.552 175.024 291.557 L 170.164 288.061 Z " fill="rgb(232,80,91)"/><g opacity="0.699997"><path d=" M 178.273 288.061 C 178.258 288.083 178.031 287.924 177.569 287.693 C 177.115 287.459 176.373 287.177 175.399 287.237 C 174.427 287.269 173.281 287.742 172.178 288.582 C 171.071 289.422 169.988 290.611 168.965 292.042 C 167.923 293.464 167.062 295.198 166.008 297.006 C 164.974 298.823 163.871 300.759 162.711 302.796 C 160.377 306.874 157.815 311.35 155.125 316.049 C 153.484 318.901 151.891 321.67 150.393 324.275 L 150.329 323.951 C 157.015 329.235 162.835 333.833 167.03 337.149 C 169.064 338.782 170.702 340.097 171.876 341.04 C 172.407 341.478 172.833 341.83 173.16 342.099 C 173.45 342.344 173.596 342.478 173.586 342.49 C 173.577 342.502 173.413 342.392 173.105 342.169 C 172.765 341.916 172.322 341.587 171.769 341.176 C 170.572 340.262 168.903 338.987 166.831 337.404 C 162.607 334.124 156.749 329.576 150.017 324.349 L 149.845 324.214 L 149.954 324.025 C 151.447 321.418 153.036 318.648 154.671 315.793 C 157.373 311.103 159.946 306.636 162.291 302.565 C 163.465 300.537 164.582 298.608 165.629 296.799 C 166.692 295.013 167.587 293.261 168.667 291.827 C 169.725 290.387 170.847 289.192 172.005 288.348 C 173.156 287.505 174.368 287.037 175.391 287.035 C 176.415 287.005 177.171 287.333 177.618 287.6 C 177.855 287.716 178.005 287.857 178.118 287.929 C 178.226 288.009 178.278 288.054 178.273 288.061 Z " fill="rgb(0,0,0)"/></g><path d=" M 170.903 321.442 C 170.83 321.51 170.403 320.644 169.108 320.155 C 168.481 319.921 167.637 319.806 166.807 320.084 C 166.396 320.215 165.986 320.472 165.519 320.712 C 165.064 320.945 164.485 321.2 163.84 321.077 C 163.194 320.956 162.745 320.475 162.443 320.056 C 162.129 319.627 161.89 319.199 161.611 318.852 C 161.084 318.153 160.278 317.881 159.615 317.857 C 158.23 317.815 157.59 318.6 157.544 318.51 C 157.523 318.493 157.635 318.289 157.964 318.034 C 158.291 317.786 158.861 317.507 159.618 317.489 C 160.354 317.46 161.336 317.741 161.983 318.548 C 162.303 318.928 162.557 319.361 162.852 319.752 C 163.143 320.143 163.493 320.485 163.94 320.566 C 164.859 320.727 165.703 319.9 166.663 319.626 C 167.639 319.333 168.575 319.511 169.247 319.814 C 170.636 320.455 170.956 321.454 170.903 321.442 Z " fill="rgb(250,250,250)"/><path d=" M 182.185 316.837 C 182.096 316.883 181.918 315.934 180.803 315.113 C 180.263 314.718 179.482 314.381 178.607 314.424 C 178.176 314.44 177.711 314.576 177.197 314.682 C 176.696 314.783 176.07 314.872 175.482 314.58 C 174.893 314.289 174.59 313.706 174.413 313.221 C 174.226 312.723 174.111 312.246 173.936 311.837 C 173.617 311.022 172.914 310.542 172.283 310.34 C 170.96 309.927 170.132 310.51 170.112 310.41 C 170.097 310.389 170.26 310.222 170.645 310.065 C 171.026 309.914 171.65 309.8 172.385 309.986 C 173.101 310.157 173.971 310.692 174.376 311.645 C 174.582 312.097 174.709 312.581 174.889 313.037 C 175.063 313.493 175.308 313.917 175.716 314.114 C 176.558 314.519 177.594 313.949 178.592 313.944 C 179.611 313.926 180.464 314.35 181.029 314.822 C 182.194 315.814 182.233 316.862 182.185 316.837 Z " fill="rgb(250,250,250)"/><path d=" M 182.764 302.121 C 182.675 302.167 182.497 301.218 181.382 300.397 C 180.842 300.002 180.061 299.665 179.186 299.708 C 178.755 299.724 178.29 299.86 177.776 299.966 C 177.275 300.067 176.649 300.156 176.061 299.864 C 175.472 299.573 175.169 298.99 174.992 298.505 C 174.805 298.007 174.69 297.53 174.515 297.122 C 174.196 296.306 173.493 295.826 172.862 295.624 C 171.539 295.211 170.711 295.794 170.691 295.694 C 170.675 295.673 170.839 295.506 171.224 295.349 C 171.605 295.198 172.229 295.085 172.964 295.27 C 173.68 295.441 174.55 295.976 174.955 296.929 C 175.161 297.381 175.288 297.866 175.468 298.322 C 175.642 298.777 175.887 299.201 176.295 299.399 C 177.137 299.803 178.172 299.233 179.171 299.228 C 180.19 299.21 181.043 299.635 181.608 300.107 C 182.773 301.098 182.812 302.146 182.764 302.121 Z " fill="rgb(250,250,250)"/><path d=" M 177.303 335.952 C 177.214 335.999 177.036 335.049 175.921 334.229 C 175.381 333.833 174.6 333.496 173.724 333.539 C 173.294 333.556 172.829 333.691 172.315 333.797 C 171.814 333.898 171.188 333.987 170.6 333.695 C 170.011 333.405 169.708 332.821 169.531 332.337 C 169.344 331.838 169.229 331.361 169.054 330.953 C 168.735 330.137 168.032 329.658 167.401 329.455 C 166.078 329.042 165.25 329.625 165.23 329.525 C 165.214 329.504 165.378 329.337 165.763 329.181 C 166.144 329.03 166.768 328.916 167.503 329.101 C 168.219 329.272 169.089 329.807 169.494 330.761 C 169.7 331.213 169.827 331.697 170.007 332.153 C 170.181 332.608 170.426 333.032 170.834 333.23 C 171.676 333.634 172.711 333.064 173.709 333.059 C 174.728 333.041 175.582 333.466 176.147 333.938 C 177.312 334.93 177.351 335.977 177.303 335.952 Z " fill="rgb(250,250,250)"/></g></g></svg>