<?xml version="1.0" encoding="UTF-8" standalone="no"?><!-- Generator: Gravit.io --><svg xmlns="http://www.w3.org/2000/svg" xmlns:xlink="http://www.w3.org/1999/xlink" style="isolation:isolate" viewBox="0 0 500 500" width="500pt" height="500pt"><defs><clipPath id="_clipPath_hVrX4uIBI5ZHUha6x8isfqXqHK7eLGtq"><rect width="500" height="500"/></clipPath></defs><g clip-path="url(#_clipPath_hVrX4uIBI5ZHUha6x8isfqXqHK7eLGtq)"><clipPath id="_clipPath_OWcwqnc6yvovdiBVjGZtC65VJ5TJjcrO"><path d=" M 0 0 L 500 0 L 500 500 L 0 500 L 0 0 Z " fill="rgb(255,255,255)"/></clipPath><g clip-path="url(#_clipPath_OWcwqnc6yvovdiBVjGZtC65VJ5TJjcrO)"><path d=" M 419.533 244.451 C 513.164 298.508 513.163 386.153 419.532 440.211 C 325.901 494.268 174.096 494.268 80.466 440.211 C -13.164 386.154 -13.164 298.509 80.467 244.451 C 174.098 190.394 325.903 190.393 419.533 244.451 Z " fill="rgb(240,240,240)"/><path d=" M 362.425 322.172 C 345.402 332.001 345.402 347.935 362.425 357.763 C 379.447 367.591 407.047 367.591 424.071 357.763 C 441.093 347.935 441.093 332.001 424.071 322.172 C 407.047 312.344 379.447 312.344 362.425 322.172 Z " fill="rgb(224,224,224)"/><path d=" M 115.001 357.806 L 309.98 470.381 L 399.345 418.786 L 204.325 306.188 L 115.001 357.806 Z " fill="rgb(224,224,224)"/><path d=" M 80.34 380.008 L 39.987 356.711 C 38.792 356.02 38.792 354.901 39.987 354.211 L 181.891 272.282 C 183.087 271.592 185.026 271.592 186.221 272.282 L 226.572 295.58 C 227.768 296.271 227.768 297.39 226.572 298.08 L 84.67 380.008 C 83.474 380.698 81.535 380.698 80.34 380.008 Z " fill="rgb(224,224,224)"/><path d=" M 205.986 272.393 C 205.986 274.768 204.319 276.282 202.253 277.47 L 93.352 340.341 C 91.296 341.529 89.618 340.57 89.618 338.183 L 89.618 126.599 C 89.618 124.212 91.296 121.324 93.352 120.124 L 202.253 57.264 C 204.319 56.065 205.986 57.036 205.986 59.411 L 205.986 272.393 Z  M 207.905 24.664 L 88.133 93.804 C 85.736 95.197 83.783 98.578 83.783 101.352 L 83.783 371.457 C 83.783 374.232 85.736 375.362 88.133 373.969 L 207.905 304.829 C 210.303 303.436 212.255 300.056 212.255 297.281 L 212.255 27.176 C 212.255 24.401 210.303 23.271 207.905 24.664 Z " fill="rgb(55,71,79)"/><path d=" M 87.591 374.244 C 85.175 375.354 81.66 375.258 79.417 373.974 L 74.435 371.095 C 72.02 369.704 70.068 366.34 70.068 363.547 L 70.068 93.459 C 70.068 92.403 70.349 91.281 70.823 90.203 C 70.974 89.847 71.147 89.502 71.341 89.157 C 71.351 89.157 71.351 89.146 71.351 89.146 L 85.057 97.061 L 85.068 97.061 C 84.777 97.579 84.518 98.118 84.313 98.657 C 83.979 99.563 83.784 100.49 83.784 101.353 L 83.784 371.462 C 83.784 374.017 85.445 375.182 87.591 374.244 Z " fill="rgb(38,50,56)"/><path d=" M 149.055 315.663 C 152.853 313.471 155.931 315.248 155.931 319.633 C 155.931 324.018 152.853 329.351 149.055 331.543 C 145.258 333.735 142.179 331.958 142.179 327.573 C 142.179 323.188 145.258 317.855 149.055 315.663 Z " fill="rgb(39,222,191)"/><path d=" M 148.02 65.059 C 149.633 64.128 150.939 64.883 150.939 66.745 C 150.939 68.607 149.633 70.871 148.02 71.803 C 146.407 72.733 145.1 71.978 145.1 70.117 C 145.1 68.254 146.407 65.99 148.02 65.059 Z " fill="rgb(0,0,0)"/><path d=" M 136.748 82.819 L 159.292 69.803 C 160.637 69.027 161.727 69.578 161.727 71.035 C 161.727 72.492 160.637 74.303 159.292 75.079 L 136.748 88.095 C 135.402 88.872 134.312 88.32 134.312 86.863 C 134.312 85.406 135.403 83.596 136.748 82.819 Z " fill="rgb(0,0,0)"/><path d=" M 205.986 272.171 C 205.986 274.546 204.319 276.06 202.253 277.247 L 93.352 340.119 C 91.296 341.306 89.618 340.347 89.618 337.961 L 89.618 126.377 C 89.618 123.99 91.296 121.101 93.352 119.902 L 202.253 57.042 C 204.319 55.843 205.986 56.814 205.986 59.189 L 205.986 272.171 Z " fill="rgb(7,157,182)"/><path d=" M 205.986 272.171 C 205.986 274.546 204.319 276.06 202.253 277.247 L 93.352 340.119 C 91.296 341.306 89.618 340.347 89.618 337.961 L 89.618 126.377 C 89.618 123.99 91.296 121.101 93.352 119.902 L 202.253 57.042 C 204.319 55.843 205.986 56.814 205.986 59.189 L 205.986 272.171 Z " fill="none" vector-effect="non-scaling-stroke" stroke-width="1" stroke="rgb(255,255,255)" stroke-linejoin="miter" stroke-linecap="square" stroke-miterlimit="3"/><path d=" M 212.213 26.484 C 211.901 24.22 210.088 23.4 207.911 24.662 L 88.13 93.804 C 86.933 94.494 85.844 95.691 85.057 97.061 L 71.352 89.146 C 72.15 87.776 73.228 86.601 74.436 85.911 L 194.194 16.758 C 196.588 15.367 200.492 15.367 202.907 16.758 L 207.911 19.626 C 210.11 20.909 211.933 23.853 212.213 26.484 Z " fill="rgb(69,90,100)"/><path d=" M 125.632 164.414 C 125.524 161.275 124.294 160.385 121.944 161.742 L 119.179 163.339 L 119.179 179.204 L 122.08 177.529 C 124.358 176.214 125.542 173.931 125.632 170.678 C 125.65 170.082 125.659 169.527 125.659 169.012 L 125.659 167.51 L 125.659 166.027 C 125.659 165.525 125.65 164.988 125.632 164.414 Z  M 122.08 154.982 C 123.327 154.263 124.467 153.891 125.497 153.865 C 126.527 153.842 127.417 154.129 128.168 154.725 C 128.918 155.322 129.506 156.215 129.931 157.402 C 130.356 158.591 130.595 160.018 130.649 161.684 C 130.668 162.258 130.677 162.789 130.677 163.275 L 130.677 164.675 L 130.677 166.053 C 130.677 166.526 130.668 167.047 130.649 167.613 C 130.595 169.371 130.36 171.078 129.944 172.738 C 129.528 174.397 128.954 175.955 128.223 177.406 C 127.49 178.859 126.617 180.164 125.605 181.318 C 124.593 182.474 123.463 183.411 122.215 184.131 L 114.893 188.359 C 114.694 188.474 114.523 188.461 114.378 188.322 C 114.234 188.184 114.161 187.961 114.161 187.654 L 114.161 160.682 C 114.161 160.376 114.234 160.07 114.378 159.764 C 114.523 159.457 114.694 159.247 114.893 159.133 L 122.08 154.982 Z " fill="rgb(255,255,255)"/><path d=" M 138.92 163.506 L 143.314 160.97 L 141.117 152.217 L 138.92 163.506 Z  M 143.314 142.724 C 143.675 142.516 143.95 142.51 144.141 142.705 C 144.33 142.902 144.461 143.133 144.534 143.397 L 150.445 166.287 C 150.518 166.525 150.554 166.713 150.554 166.852 C 150.554 167.102 150.495 167.352 150.378 167.6 C 150.261 167.85 150.12 168.021 149.958 168.114 L 146.541 170.087 C 146.179 170.296 145.921 170.326 145.768 170.179 C 145.614 170.031 145.52 169.857 145.483 169.654 L 144.724 166.627 L 137.511 170.792 L 136.751 174.695 C 136.715 174.94 136.62 175.225 136.466 175.549 C 136.312 175.875 136.055 176.141 135.692 176.35 L 132.276 178.322 C 132.113 178.416 131.974 178.408 131.856 178.294 C 131.738 178.182 131.68 177.999 131.68 177.748 C 131.68 177.61 131.716 177.38 131.788 177.06 L 137.7 147.343 C 137.772 146.996 137.903 146.613 138.093 146.197 C 138.283 145.781 138.559 145.469 138.92 145.26 L 143.314 142.724 Z " fill="rgb(255,255,255)"/><path d=" M 164.792 130.323 C 164.99 130.209 165.162 130.22 165.308 130.359 C 165.451 130.499 165.524 130.721 165.524 131.027 L 165.524 135.453 C 165.524 135.76 165.451 136.066 165.308 136.372 C 165.162 136.678 164.99 136.888 164.792 137.004 L 160.02 139.76 L 160.02 161.177 C 160.02 161.484 159.946 161.791 159.802 162.096 C 159.657 162.402 159.485 162.613 159.287 162.728 L 155.734 164.779 C 155.535 164.894 155.363 164.882 155.219 164.742 C 155.074 164.603 155.003 164.381 155.003 164.074 L 155.003 142.656 L 150.229 145.412 C 150.03 145.526 149.858 145.513 149.714 145.375 C 149.568 145.236 149.497 145.013 149.497 144.707 L 149.497 140.281 C 149.497 139.974 149.568 139.669 149.714 139.362 C 149.858 139.056 150.03 138.845 150.229 138.73 L 164.792 130.323 Z " fill="rgb(255,255,255)"/><path d=" M 171.707 144.576 L 176.101 142.04 L 173.904 133.287 L 171.707 144.576 Z  M 176.101 123.794 C 176.462 123.586 176.737 123.58 176.928 123.775 C 177.117 123.972 177.248 124.203 177.321 124.467 L 183.232 147.357 C 183.305 147.595 183.341 147.783 183.341 147.922 C 183.341 148.172 183.283 148.422 183.165 148.67 C 183.048 148.92 182.907 149.091 182.745 149.184 L 179.328 151.157 C 178.966 151.366 178.708 151.396 178.555 151.249 C 178.401 151.101 178.307 150.927 178.27 150.724 L 177.511 147.697 L 170.298 151.862 L 169.538 155.765 C 169.502 156.01 169.407 156.295 169.253 156.619 C 169.099 156.945 168.842 157.211 168.48 157.42 L 165.063 159.392 C 164.9 159.486 164.761 159.478 164.643 159.364 C 164.525 159.252 164.467 159.069 164.467 158.818 C 164.467 158.68 164.503 158.45 164.575 158.13 L 170.487 128.413 C 170.559 128.066 170.69 127.683 170.88 127.267 C 171.07 126.851 171.346 126.539 171.707 126.33 L 176.101 123.794 Z " fill="rgb(255,255,255)"/><path d=" M 387.395 127.452 C 381.043 127.749 378.866 128.96 375.541 132.877 C 372.296 136.7 356.63 165.731 356.63 165.731 C 356.63 165.731 359.569 173.971 366.001 173.27 L 378.029 153.875 L 387.395 127.452 Z " fill="rgb(255,168,167)"/><path d=" M 388.235 127.465 C 388.235 127.465 383.674 126.87 380.421 128.047 C 377.167 129.224 375.541 131.579 373.299 135.001 C 371.565 137.648 365.492 148.641 365.492 148.641 C 365.492 148.641 368.451 156.869 376.864 156.869 L 388.235 127.465 Z " fill="rgb(224,224,224)"/><path d=" M 409.996 333.908 L 409.996 332.532 C 409.454 334.146 406.935 341.096 403.117 344.58 C 400.081 347.349 395.939 350.547 394.887 353.634 C 393.791 356.845 400.649 357.924 403.486 357.422 C 406.781 356.838 411.045 354.968 413.366 352.116 C 414.998 350.112 416.037 347.735 417.202 346.159 C 418.367 344.582 421.054 342.822 421.684 340.997 C 422.029 339.995 421.618 337.8 421.132 335.945 C 420.685 334.243 420.202 332.372 419.621 332.532 C 419.62 332.739 419.621 333.581 419.621 333.581 C 418.923 334.355 416.989 335.124 414.809 335.207 C 413.401 335.262 409.985 334.982 409.996 333.908 Z " fill="rgb(38,50,56)"/><path d=" M 400.369 347.015 C 401.31 346.175 402.258 345.354 403.117 344.57 C 405.785 342.136 407.818 338.009 408.987 335.192 C 409.654 333.585 409.997 331.868 409.997 330.127 L 409.997 324.642 L 419.622 324.642 L 419.622 333.571 L 419.622 333.571 L 419.622 333.572 L 419.622 333.81 L 419.573 333.835 C 419.11 335.835 414.693 341.155 412.183 344.624 C 410.502 346.95 407.305 349.908 403.486 350.418 C 399.866 350.901 398.016 349.76 400.369 347.015 Z " fill="rgb(255,168,167)"/><path d=" M 376.023 324.42 L 376.023 323.044 C 375.481 324.658 372.962 331.608 369.143 335.092 C 366.107 337.861 361.965 341.059 360.914 344.146 C 359.818 347.357 366.676 348.436 369.513 347.933 C 372.808 347.35 377.073 345.48 379.393 342.628 C 381.025 340.624 382.064 338.247 383.229 336.671 C 384.393 335.094 387.081 333.334 387.71 331.509 C 388.056 330.507 387.645 328.312 387.159 326.457 C 386.713 324.754 386.229 322.884 385.648 323.044 C 385.647 323.251 385.648 324.092 385.648 324.092 C 384.95 324.867 383.016 325.636 380.835 325.719 C 379.427 325.774 376.011 325.494 376.023 324.42 Z " fill="rgb(38,50,56)"/><path d=" M 366.396 337.527 C 367.337 336.687 368.285 335.865 369.144 335.082 C 371.812 332.648 373.845 328.521 375.014 325.704 C 375.681 324.096 376.024 322.38 376.024 320.639 L 376.024 315.153 L 385.649 315.153 L 385.649 324.083 L 385.649 324.084 L 385.649 324.322 L 385.6 324.347 C 385.137 326.347 380.72 331.667 378.21 335.136 C 376.529 337.462 373.332 340.42 369.513 340.93 C 365.893 341.413 364.043 340.272 366.396 337.527 Z " fill="rgb(255,168,167)"/><path d=" M 417.706 184.328 C 425.168 200.625 417.437 258.034 417.437 258.034 C 417.661 260.679 420.685 265.883 421.811 277.522 C 423.143 291.276 419.724 325.809 419.724 325.809 C 419.724 325.809 415.267 328.723 409.996 326.196 C 409.996 326.196 400.823 274.185 399.099 260.511 C 397.594 248.578 394.704 222.337 394.704 222.337 L 390.061 260.447 C 390.061 260.447 392.169 267.132 392.662 272.225 C 393.441 280.269 385.648 317.718 385.648 317.718 C 385.648 317.718 382.327 318.936 376.023 318.008 C 376.023 318.008 373.267 268.311 372.54 258.621 C 371.32 242.349 372.073 191.576 375.058 181.943 L 417.706 184.328 Z " fill="rgb(69,90,100)"/><path d=" M 394.704 222.337 L 392.281 207.2 C 392.281 207.2 382.033 205.077 377.385 200.708 C 377.385 200.708 382.261 206.774 389.504 208.76 L 392.225 220.414 L 390.371 257.906 L 394.704 222.337 Z " fill="rgb(55,71,79)"/><path d=" M 404.544 127.709 L 404.545 127.709 C 407.382 127.904 408.33 127.836 410.388 128.046 C 414.502 128.469 415.492 134.486 417.176 138.04 C 418.998 141.886 419.019 146.348 417.628 150.37 L 410.961 169.654 C 410.961 169.654 414.083 177.2 417.706 184.328 C 400.978 193.666 380.088 188.757 375.058 181.943 C 374.845 180.498 376.138 169.2 376.934 161.819 C 373.987 154.426 373.21 149.743 374.453 144.856 C 376.761 135.788 385.027 127.443 387.395 127.452 L 404.544 127.709 Z " fill="rgb(240,240,240)"/><path d=" M 418.845 91.103 L 415.383 90.802 C 415.799 90.563 416.162 90.222 416.412 89.767 C 417.162 88.405 416.665 86.645 415.302 85.834 L 413.069 89.888 C 409.378 83.559 402.376 79.459 394.556 79.875 L 392.771 79.971 C 381.635 80.563 373.088 90.071 373.681 101.207 C 374.293 112.711 374.971 125.58 374.971 125.58 L 395.745 124.474 C 407.53 123.846 416.574 113.785 415.946 102.001 L 415.792 98.965 C 415.689 97.022 415.299 95.166 414.692 93.416 C 414.996 93.572 415.333 93.679 415.699 93.71 C 417.247 93.845 418.657 92.678 418.845 91.103 Z " fill="rgb(69,90,100)"/><path d=" M 377.409 102.558 C 377.265 104.86 377.347 106.12 377.58 109.174 C 378.372 119.525 381.868 121.907 383.594 122.555 C 385.319 123.204 388.55 122.581 391.684 121.886 L 391.683 128.007 C 391.683 128.007 387.915 133.416 388.342 136.254 C 388.768 139.092 394.841 139.444 398.783 136.44 C 402.725 133.436 404.324 128.326 404.324 128.326 L 404.322 114.018 C 404.322 114.018 406.609 116.756 409.978 114.251 C 413.347 111.746 413.174 105.998 411.034 104.045 C 408.893 102.092 404.471 102.92 403.806 105.811 C 403.806 105.811 396.513 105.2 395.586 93.188 C 388.809 102.025 377.84 95.651 377.409 102.558 Z " fill="rgb(255,168,167)"/><path d=" M 403.765 105.01 L 404.037 110.138 C 402.11 110.241 400.464 108.761 400.361 106.834 L 400.056 101.11 L 403.765 105.01 Z " fill="rgb(69,90,100)"/><path d=" M 390.379 105.635 C 390.381 106.384 390.968 106.988 391.688 106.984 C 392.409 106.979 392.991 106.369 392.989 105.62 C 392.986 104.871 392.4 104.267 391.68 104.271 C 390.959 104.276 390.377 104.886 390.379 105.635 Z " fill="rgb(38,50,56)"/><path d=" M 390.292 114.82 L 386.802 116.141 C 387.15 117.142 388.215 117.657 389.179 117.293 C 390.143 116.927 390.641 115.82 390.292 114.82 Z " fill="rgb(242,143,143)"/><path d=" M 391.806 99.782 L 394.864 100.769 C 395.17 99.928 394.735 99.026 393.89 98.753 C 393.045 98.481 392.113 98.942 391.806 99.782 Z " fill="rgb(69,90,100)"/><path d=" M 379.176 106.199 C 379.178 106.948 379.765 107.552 380.486 107.547 C 381.206 107.543 381.788 106.932 381.786 106.184 C 381.784 105.435 381.197 104.831 380.477 104.835 C 379.756 104.839 379.174 105.45 379.176 106.199 Z " fill="rgb(38,50,56)"/><path d=" M 386.79 105.093 L 387.001 112.95 L 382.803 111.891 L 386.79 105.093 Z " fill="rgb(242,143,143)"/><path d=" M 391.685 121.886 C 394.995 121.271 401.748 118.936 402.672 116.169 C 402.672 116.169 402.407 117.891 400.452 119.756 C 398.497 121.621 391.685 123.961 391.685 123.961 L 391.685 121.886 Z " fill="rgb(242,143,143)"/><path d=" M 400.266 186.137 C 405.761 184.836 406.806 182.766 405.354 177.309 C 405.299 177.102 405.242 176.924 405.183 176.783 C 404.108 174.197 399.815 175.734 399.815 175.734 C 399.815 175.734 401.571 173.544 403.543 170.754 C 405.515 167.963 406.398 163.346 406.662 160.108 C 406.925 156.869 407.453 150.383 407.453 150.383 C 407.453 150.383 411.728 147.824 410.061 143.144 L 416.661 139.089 C 416.661 139.089 417.144 139.425 417.903 139.952 C 418.952 143.321 418.794 146.997 417.628 150.37 L 410.961 169.655 C 410.961 169.655 414.9 176.59 417.706 184.328 C 405.377 191.209 390.796 190.35 381.961 186.696 C 388.941 187.779 395.407 187.288 400.266 186.137 Z " fill="rgb(230,230,230)"/><path d=" M 393.495 109.01 L 392.845 109.045 C 390.914 109.148 389.26 107.66 389.156 105.729 C 389.054 103.798 390.541 102.144 392.472 102.041 L 393.122 102.006 C 395.053 101.903 396.709 103.39 396.811 105.322 C 396.914 107.253 395.426 108.907 393.495 109.01 Z  M 380.651 109.694 L 380 109.729 C 378.069 109.831 376.415 108.344 376.312 106.413 C 376.21 104.482 377.697 102.827 379.628 102.724 L 380.278 102.69 C 382.209 102.587 383.864 104.074 383.967 106.006 C 384.07 107.937 382.582 109.591 380.651 109.694 Z  M 404.941 104.021 L 397.384 104.424 C 396.882 102.536 395.11 101.188 393.085 101.296 L 392.433 101.33 C 390.68 101.424 389.232 102.583 388.682 104.146 C 388.073 103.564 387.167 103.204 386.166 103.206 C 385.292 103.208 384.547 103.488 384.027 103.971 C 383.239 102.712 381.825 101.895 380.24 101.98 L 379.59 102.014 C 377.267 102.138 375.478 104.128 375.601 106.451 C 375.725 108.774 377.716 110.563 380.038 110.439 L 380.688 110.405 C 383.012 110.281 384.801 108.29 384.678 105.968 C 384.652 105.498 384.533 105.059 384.368 104.644 C 384.746 104.194 385.401 103.919 386.168 103.918 C 387.133 103.915 388.03 104.314 388.454 104.933 L 388.488 104.909 C 388.445 105.188 388.431 105.475 388.446 105.767 C 388.569 108.09 390.559 109.879 392.883 109.755 L 393.533 109.72 C 395.856 109.597 397.645 107.607 397.521 105.284 C 397.518 105.231 397.503 105.182 397.498 105.13 L 404.257 104.77 C 404.53 104.382 404.792 104.138 404.941 104.021 Z " fill="rgb(38,50,56)"/><path d=" M 342.777 159.596 L 376.563 168.494 L 385.862 206.721 L 353.741 197.391 L 342.777 159.596 Z " fill="rgb(7,157,182)"/><g opacity="0.25"><path d=" M 342.777 159.596 L 376.563 168.494 L 385.862 206.721 L 353.741 197.391 L 342.777 159.596 Z " fill="rgb(0,0,0)"/></g><g opacity="0.199997"><path d=" M 365.542 191.169 C 365.758 193.237 367.207 195.63 371.428 197.648 C 375.649 199.664 383.871 198.537 383.871 198.537 L 382.728 193.832 L 365.542 191.169 Z " fill="rgb(0,0,0)"/></g><g opacity="0.199997"><path d=" M 358.043 186.666 C 357.731 187.522 356.216 190.421 351.822 190.774 L 351.481 189.596 L 358.043 186.666 Z " fill="rgb(0,0,0)"/></g><g opacity="0.100006"><path d=" M 352.955 165.668 C 352.955 165.668 352.83 165.091 352.676 164.379 C 352.522 163.668 354.505 163.637 357.104 164.312 L 362.082 165.603 C 364.682 166.276 366.914 167.4 367.068 168.112 L 367.347 169.4 L 352.955 165.668 Z " fill="rgb(0,0,0)"/></g><path d=" M 350.36 160.824 C 350.261 160.379 351.065 160.262 352.154 160.563 L 354.126 161.108 C 354.126 161.108 353.538 158.321 357.912 159.295 C 362.286 160.269 363.242 163.433 363.242 163.433 C 363.242 163.433 364.184 163.701 365.346 164.031 C 366.508 164.361 367.562 164.988 367.699 165.43 L 367.948 166.233 L 350.545 161.65 C 350.545 161.65 350.458 161.268 350.36 160.824 Z " fill="rgb(55,71,79)"/><path d=" M 352.757 162.199 C 354.352 162.583 355.015 162.795 355.252 163.892 C 355.525 165.145 355.636 166.065 355.636 166.065 L 363.338 168.1 C 363.338 168.1 362.966 166.514 362.848 165.895 C 362.729 165.277 362.99 164.905 364.216 165.229 L 364.32 164.738 L 352.25 161.665 L 352.757 162.199 Z " fill="rgb(55,71,79)"/><path d=" M 352.492 165.789 C 352.492 165.789 352.367 165.212 352.213 164.5 C 352.059 163.789 354.042 163.758 356.641 164.432 L 361.619 165.723 C 364.219 166.397 366.451 167.521 366.605 168.233 L 366.884 169.521 L 352.492 165.789 Z " fill="rgb(55,71,79)"/><path d=" M 346.338 171.868 C 346.338 171.868 347.602 176.19 347.89 177.22 C 348.179 178.25 351.965 180.102 354.448 180.784 C 356.932 181.467 359.648 182.275 358.473 185.747 C 357.389 188.95 353.302 189.68 351.222 189.59 C 349.141 189.499 346.292 187.511 345.17 184.305 C 343.739 180.216 344.51 175.848 343.942 173.46 C 343.373 171.072 345.093 170.443 346.338 171.868 Z " fill="rgb(255,168,167)"/><path d=" M 409.622 127.977 C 414.003 128.254 418.532 130.627 419.219 135.889 C 419.906 141.151 424.167 168.85 422.495 171.967 C 418.628 179.178 393.127 192.89 390.593 194.063 C 388.06 195.236 383.848 197.163 378.827 197.219 C 374.851 197.263 369.559 197.133 366.884 193.537 C 364.51 190.347 363.168 184.458 368.532 185.472 C 373.896 186.484 380.824 186.012 380.824 186.012 L 380.199 183.443 C 380.199 183.443 381.617 183.316 384.293 184.111 C 386.969 184.906 389.401 182.608 394.126 179.688 C 400.22 175.924 409.494 167.963 409.494 167.963 L 405.712 144.836 C 405.712 144.836 405.586 134.839 409.622 127.977 Z " fill="rgb(255,168,167)"/><path d=" M 408.829 127.977 C 408.829 127.977 411.174 127.438 413.749 128.418 C 416.323 129.399 418.609 130.704 419.679 135.889 C 420.747 141.075 422.862 160.032 422.862 160.032 C 422.862 160.032 417.252 164.088 408.115 162.161 L 404.832 144.959 C 404.832 144.959 402.275 132.918 408.829 127.977 Z " fill="rgb(224,224,224)"/></g><path d=" M 96.617 219.556 L 203.522 157.835 L 203.523 172.648 L 96.617 234.37 L 96.617 219.556 Z " fill="rgb(69,90,100)"/><path d=" M 100.894 222.026 L 100.894 226.962 L 199.246 170.179 L 199.246 165.241 L 100.894 222.026 Z " fill="rgb(38,50,56)"/><path d=" M 96.617 219.556 L 92.341 217.087 L 199.246 155.366 L 203.522 157.835 L 96.617 219.556 Z " fill="rgb(55,71,79)"/><path d=" M 92.34 217.086 L 96.616 219.555 L 96.616 234.369 L 92.341 231.899 L 92.34 217.086 Z " fill="rgb(38,50,56)"/><path d=" M 404.508 412.157 L 310.421 466.442 L 310.421 464.031 L 404.497 409.746 L 404.508 412.157 Z " fill="rgb(55,71,79)"/><clipPath id="_clipPath_2dqBwe0xFKJ9AHTxxrUz9RKzA9VwUpn8"><path d=" M 0 0 L 500 0 L 500 500 L 0 500 L 0 0 Z " fill="rgb(255,255,255)"/></clipPath><g clip-path="url(#_clipPath_2dqBwe0xFKJ9AHTxxrUz9RKzA9VwUpn8)"><path d=" M 220.625 263.771 L 199.902 275.736 L 187.165 283.083 C 186.754 283.294 186.354 283.526 185.964 283.778 C 181.216 286.705 177.869 291.916 177.869 298.306 L 177.858 357.856 C 177.858 363.646 175.1 368.489 171.026 371.521 C 168.089 373.721 164.468 374.984 160.72 374.984 C 157.878 374.984 154.962 374.258 152.204 372.668 C 136.329 363.499 126.549 346.561 126.549 328.233 L 126.549 266.461 C 126.549 257.292 124.106 248.47 119.674 240.807 C 115.243 233.132 108.832 226.605 100.894 222.026 L 194.969 167.71 C 202.917 172.3 209.329 178.848 213.761 186.512 C 218.193 194.186 220.635 202.997 220.635 212.167 L 220.635 239.074 C 220.635 246.77 220.625 263.771 220.625 263.771 Z " fill="rgb(245,245,245)"/><path d=" M 254.839 431.931 C 238.964 422.772 229.184 405.834 229.184 387.506 L 229.178 327.919 C 229.178 320.951 227.768 314.202 225.147 307.992 C 224.315 306.023 223.367 304.118 222.304 302.264 C 217.872 294.601 211.462 288.074 203.524 283.494 L 203.524 283.494 C 192.12 276.917 177.872 285.153 177.879 298.317 L 177.882 304.387 L 177.869 298.306 L 177.859 357.857 L 177.861 345.467 L 177.861 357.834 C 177.861 371.001 163.615 379.238 152.204 372.668 C 136.329 363.499 126.549 346.561 126.549 328.233 L 126.549 266.462 C 126.549 257.292 124.107 248.471 119.674 240.807 C 115.243 233.133 108.832 226.605 100.894 222.026 L 100.894 224.49 C 115.453 233.396 124.443 249.345 124.443 266.462 L 124.443 328.233 C 124.443 347.256 134.676 364.973 151.151 374.49 C 157.162 377.964 164.341 377.964 170.363 374.49 C 170.732 374.279 171.089 374.058 171.447 373.816 L 171.479 373.795 C 176.817 370.226 179.964 364.352 179.964 357.857 L 179.975 298.306 C 179.975 292.885 182.775 288.021 187.47 285.316 C 192.165 282.6 197.776 282.6 202.471 285.316 C 211.956 290.79 219.199 299.222 223.294 309.055 C 225.747 314.95 227.073 321.35 227.073 327.919 L 227.074 341.745 L 227.078 387.506 C 227.078 406.518 237.311 424.246 253.786 433.763 L 310.421 466.443 L 310.421 464.032 L 254.839 431.931 Z " fill="rgb(69,90,100)"/><path d=" M 404.497 409.747 L 310.421 464.031 L 254.839 431.931 C 238.963 422.772 229.184 405.834 229.184 387.506 L 229.179 327.919 C 229.179 320.951 227.768 314.203 225.146 307.992 C 224.315 306.023 223.368 304.118 222.304 302.265 C 217.872 294.601 211.461 288.074 203.524 283.495 C 198.102 280.358 192.039 280.579 187.164 283.084 L 199.902 275.736 L 225.53 260.939 L 280.388 229.273 L 280.524 229.189 C 285.504 226.315 291.904 225.915 297.6 229.2 C 305.537 233.779 311.948 240.306 316.38 247.98 C 320.811 255.655 323.254 264.476 323.254 273.635 L 323.26 333.211 C 323.26 351.539 333.039 368.478 348.914 377.647 L 404.497 409.747 Z " fill="rgb(250,250,250)"/><path d=" M 227.073 327.919 C 227.073 321.35 225.746 314.95 223.294 309.054 C 219.198 299.222 211.956 290.79 202.471 285.315 C 197.776 282.6 192.165 282.6 187.469 285.315 C 182.774 288.021 179.974 292.884 179.974 298.306 L 179.964 357.856 C 179.964 364.352 176.816 370.226 171.479 373.794 L 171.447 373.815 C 171.089 374.058 170.731 374.279 170.363 374.489 L 227.074 341.745 L 227.073 327.919 Z " fill="rgb(224,224,224)"/><g opacity="0.149994"><path d=" M 227.073 327.919 C 227.073 321.35 225.746 314.95 223.294 309.054 C 219.198 299.222 211.956 290.79 202.471 285.315 C 197.776 282.6 192.165 282.6 187.469 285.315 C 182.774 288.021 179.974 292.884 179.974 298.306 L 179.964 357.856 C 179.964 364.352 176.816 370.226 171.479 373.794 L 171.447 373.815 C 171.089 374.058 170.731 374.279 170.363 374.489 L 227.074 341.745 L 227.073 327.919 Z " fill="rgb(0,0,0)"/></g></g><clipPath id="_clipPath_c8sRv05nxAYY3sRLhxcfs6LTmeAYEe5v"><path d=" M 100.894 222.026 C 108.832 226.605 115.242 233.132 119.674 240.806 L 119.674 240.806 C 124.106 248.47 126.549 257.292 126.549 266.462 L 126.549 266.462 L 126.549 328.233 C 126.549 346.561 136.328 363.499 152.203 372.668 L 152.203 372.668 C 154.962 374.257 157.878 374.984 160.72 374.984 L 160.72 374.984 C 164.468 374.984 168.089 373.721 171.026 371.521 L 171.026 371.521 C 175.1 368.488 177.858 363.646 177.858 357.857 L 177.858 357.857 L 177.869 298.306 C 177.869 291.916 181.216 286.705 185.964 283.779 L 185.964 283.779 C 186.354 283.526 186.754 283.294 187.165 283.084 L 187.165 283.084 L 199.903 275.736 L 220.625 263.771 C 220.625 263.771 220.635 246.77 220.635 239.074 L 220.635 239.074 L 220.635 212.167 C 220.635 202.997 218.193 194.186 213.761 186.512 L 213.761 186.512 C 209.329 178.848 202.918 172.3 194.969 167.71 L 194.969 167.71 L 100.894 222.026 Z " fill="rgb(255,255,255)"/></clipPath><g clip-path="url(#_clipPath_c8sRv05nxAYY3sRLhxcfs6LTmeAYEe5v)"><path d=" M 117.603 222.322 C 119.583 224.014 123.073 224.377 125.591 222.924 L 192.721 184.165 C 195.238 182.712 195.833 179.992 193.863 178.295 C 191.893 176.597 188.119 176.568 185.601 178.021 L 118.438 216.799 C 115.92 218.252 115.624 220.63 117.603 222.322 Z " fill="rgb(7,157,182)"/><g opacity="0.399994"><path d=" M 171.727 207.662 C 171.469 207.662 171.218 207.529 171.081 207.289 C 170.874 206.933 170.996 206.476 171.353 206.27 L 202.74 188.148 C 203.098 187.942 203.555 188.063 203.759 188.42 C 203.966 188.777 203.843 189.233 203.487 189.439 L 172.1 207.561 C 171.982 207.629 171.853 207.662 171.727 207.662 Z " fill="rgb(0,0,0)"/></g><g opacity="0.399994"><path d=" M 174.149 211.703 C 173.891 211.703 173.64 211.569 173.503 211.33 C 173.295 210.973 173.418 210.516 173.774 210.311 L 205.162 192.189 C 205.519 191.984 205.976 192.106 206.181 192.462 C 206.387 192.819 206.265 193.275 205.908 193.481 L 174.521 211.602 C 174.404 211.67 174.275 211.703 174.149 211.703 Z " fill="rgb(0,0,0)"/></g><g opacity="0.399994"><path d=" M 176.185 215.913 C 175.927 215.913 175.676 215.779 175.538 215.539 C 175.331 215.183 175.454 214.726 175.81 214.521 L 207.198 196.398 C 207.556 196.193 208.012 196.314 208.217 196.671 C 208.423 197.028 208.301 197.484 207.944 197.689 L 176.557 215.812 C 176.44 215.88 176.311 215.913 176.185 215.913 Z " fill="rgb(0,0,0)"/></g><g opacity="0.399994"><path d=" M 177.819 220.289 C 177.561 220.289 177.31 220.156 177.173 219.916 C 176.966 219.56 177.088 219.103 177.445 218.897 L 208.831 200.776 C 209.189 200.571 209.644 200.691 209.85 201.048 C 210.057 201.405 209.934 201.862 209.578 202.067 L 178.191 220.188 C 178.074 220.256 177.945 220.289 177.819 220.289 Z " fill="rgb(0,0,0)"/></g><g opacity="0.399994"><path d=" M 179.014 224.579 C 178.756 224.579 178.505 224.445 178.367 224.205 C 178.16 223.849 178.283 223.392 178.639 223.187 L 210.026 205.065 C 210.383 204.86 210.839 204.981 211.045 205.338 C 211.251 205.695 211.129 206.151 210.772 206.357 L 179.386 224.478 C 179.269 224.546 179.14 224.579 179.014 224.579 Z " fill="rgb(0,0,0)"/></g><g opacity="0.399994"><path d=" M 179.821 229.19 C 179.563 229.19 179.312 229.056 179.174 228.816 C 178.967 228.46 179.09 228.003 179.446 227.798 L 210.833 209.675 C 211.191 209.471 211.647 209.592 211.852 209.948 C 212.058 210.304 211.936 210.761 211.579 210.966 L 180.193 229.089 C 180.076 229.157 179.947 229.19 179.821 229.19 Z " fill="rgb(0,0,0)"/></g><g opacity="0.399994"><path d=" M 180.259 234.11 C 180.001 234.11 179.75 233.976 179.613 233.737 C 179.406 233.38 179.529 232.923 179.885 232.718 L 211.272 214.597 C 211.629 214.391 212.086 214.512 212.291 214.869 C 212.498 215.226 212.376 215.682 212.019 215.888 L 180.632 234.009 C 180.514 234.077 180.386 234.11 180.259 234.11 Z " fill="rgb(0,0,0)"/></g><g opacity="0.399994"><path d=" M 135.509 269.195 C 135.328 269.195 135.15 269.1 135.053 268.932 C 134.907 268.68 134.994 268.358 135.246 268.213 L 211.404 224.242 C 211.655 224.096 211.977 224.182 212.122 224.435 C 212.268 224.687 212.182 225.008 211.93 225.153 L 135.772 269.124 C 135.689 269.172 135.598 269.195 135.509 269.195 Z " fill="rgb(0,0,0)"/></g><g opacity="0.399994"><path d=" M 135.509 273.897 C 135.328 273.897 135.15 273.802 135.053 273.634 C 134.907 273.382 134.994 273.06 135.246 272.915 L 211.404 228.943 C 211.655 228.796 211.977 228.883 212.122 229.136 C 212.268 229.388 212.182 229.709 211.93 229.855 L 135.772 273.826 C 135.689 273.875 135.598 273.897 135.509 273.897 Z " fill="rgb(0,0,0)"/></g><g opacity="0.399994"><path d=" M 135.509 278.597 C 135.328 278.597 135.15 278.502 135.053 278.334 C 134.907 278.082 134.994 277.76 135.246 277.615 L 211.404 233.644 C 211.655 233.497 211.977 233.585 212.122 233.837 C 212.268 234.089 212.182 234.41 211.93 234.555 L 135.772 278.526 C 135.689 278.575 135.598 278.597 135.509 278.597 Z " fill="rgb(0,0,0)"/></g><g opacity="0.399994"><path d=" M 135.509 283.298 C 135.328 283.298 135.15 283.203 135.053 283.035 C 134.907 282.783 134.994 282.461 135.246 282.316 L 211.404 238.346 C 211.655 238.198 211.977 238.286 212.122 238.538 C 212.268 238.79 212.182 239.111 211.93 239.256 L 135.772 283.227 C 135.689 283.276 135.598 283.298 135.509 283.298 Z " fill="rgb(0,0,0)"/></g><g opacity="0.399994"><path d=" M 135.509 262.361 C 135.328 262.361 135.15 262.266 135.053 262.098 C 134.907 261.846 134.994 261.524 135.246 261.379 L 175.565 238.099 C 175.816 237.953 176.138 238.038 176.283 238.291 C 176.429 238.543 176.343 238.865 176.091 239.01 L 135.772 262.29 C 135.689 262.338 135.598 262.361 135.509 262.361 Z " fill="rgb(0,0,0)"/></g><path d=" M 134.372 235.369 C 135.97 238.557 137.277 241.734 138.106 244.897 C 139.011 247.795 139.538 251.369 139.852 255.326 C 139.909 256.051 140.457 256.344 141.087 255.98 L 143.329 254.686 C 143.958 254.322 144.438 253.439 144.383 252.715 C 144.103 249.042 143.494 245.459 142.496 241.982 C 141.413 238.517 140.236 235.36 138.888 232.762 C 138.553 232.117 137.746 231.903 137.116 232.266 L 134.912 233.539 C 134.282 233.902 134.046 234.719 134.372 235.369 Z " fill="rgb(7,157,182)"/><path d=" M 141.022 226.063 C 143.07 229.246 144.875 233.065 146.418 237.564 C 147.661 241.178 148.479 245.354 148.825 250.151 C 148.877 250.876 149.418 251.171 150.047 250.807 L 152.288 249.513 C 152.918 249.15 153.403 248.266 153.351 247.541 C 153.045 243.266 152.21 239.081 150.9 234.977 C 149.497 230.751 147.698 226.957 145.541 223.551 C 145.151 222.937 144.307 222.736 143.671 223.089 L 141.441 224.33 C 140.806 224.683 140.628 225.452 141.022 226.063 Z " fill="rgb(7,157,182)"/><path d=" M 158.72 230.461 L 156.517 231.733 C 155.887 232.096 155.571 232.947 155.784 233.642 C 156.8 236.96 157.478 240.725 157.785 244.979 C 157.838 245.704 158.378 245.997 159.007 245.634 L 161.248 244.34 C 161.878 243.977 162.363 243.092 162.311 242.367 C 162.037 238.528 161.335 234.762 160.246 231.062 C 160.041 230.365 159.349 230.098 158.72 230.461 Z " fill="rgb(7,157,182)"/><path d=" M 167.684 221.518 C 167.415 220.843 166.669 220.593 166.038 220.952 L 163.818 222.215 C 163.186 222.575 162.906 223.408 163.176 224.082 C 163.578 225.088 163.965 226.134 164.337 227.218 C 165.58 230.832 166.398 235.008 166.745 239.805 C 166.797 240.53 167.337 240.825 167.967 240.461 L 170.208 239.167 C 170.837 238.804 171.322 237.919 171.27 237.195 C 170.965 232.919 170.129 228.734 168.819 224.63 C 168.466 223.566 168.087 222.528 167.684 221.518 Z " fill="rgb(7,157,182)"/><g opacity="0.399994"><path d=" M 137.056 253.329 C 136.953 253.149 136.724 253.089 136.547 253.192 L 135.609 253.734 C 135.404 252.44 135.163 251.159 134.868 249.899 L 136.136 249.166 C 136.315 249.064 136.375 248.836 136.273 248.658 C 136.17 248.478 135.938 248.417 135.764 248.521 L 134.678 249.148 C 134.362 247.879 134.009 246.624 133.602 245.393 L 134.809 244.697 C 134.988 244.594 135.049 244.366 134.946 244.188 C 134.842 244.007 134.613 243.948 134.437 244.051 L 133.35 244.678 C 132.934 243.479 132.487 242.294 131.985 241.134 C 131.971 241.102 131.956 241.071 131.942 241.039 L 133.139 240.348 C 133.318 240.245 133.379 240.017 133.276 239.839 C 133.173 239.658 132.944 239.599 132.767 239.703 L 131.638 240.354 C 131.117 239.182 130.54 238.016 129.908 236.859 L 131.101 236.169 C 131.281 236.066 131.341 235.838 131.238 235.66 C 131.135 235.48 130.905 235.421 130.729 235.523 L 129.547 236.206 C 128.914 235.09 128.228 233.982 127.494 232.884 L 128.837 232.109 C 129.016 232.006 129.077 231.778 128.974 231.6 C 128.871 231.419 128.639 231.361 128.465 231.464 L 127.076 232.266 C 126.285 231.115 125.446 229.976 124.547 228.853 C 124.421 228.693 124.184 228.667 124.022 228.796 C 123.862 228.924 123.837 229.159 123.965 229.32 C 124.84 230.412 125.657 231.521 126.428 232.639 L 125.148 233.378 C 124.97 233.48 124.909 233.709 125.012 233.887 C 125.08 234.007 125.206 234.074 125.334 234.074 C 125.398 234.074 125.462 234.058 125.52 234.023 L 126.847 233.258 C 127.581 234.355 128.268 235.463 128.901 236.579 L 127.413 237.438 C 127.234 237.541 127.174 237.769 127.276 237.948 C 127.346 238.068 127.471 238.135 127.599 238.135 C 127.663 238.135 127.726 238.118 127.785 238.084 L 129.261 237.232 C 129.893 238.39 130.469 239.557 130.988 240.729 L 129.45 241.618 C 129.271 241.721 129.21 241.949 129.313 242.126 C 129.382 242.247 129.507 242.313 129.636 242.313 C 129.7 242.313 129.763 242.297 129.822 242.263 L 131.293 241.414 C 131.295 241.418 131.297 241.423 131.299 241.428 C 131.813 242.615 132.271 243.828 132.693 245.058 L 131.119 245.966 C 130.94 246.069 130.88 246.297 130.983 246.475 C 131.051 246.596 131.177 246.662 131.305 246.662 C 131.369 246.662 131.433 246.646 131.492 246.612 L 132.945 245.772 C 133.348 247.006 133.696 248.264 134.007 249.536 L 132.446 250.436 C 132.267 250.539 132.207 250.767 132.309 250.945 C 132.379 251.065 132.504 251.132 132.633 251.132 C 132.696 251.132 132.76 251.116 132.818 251.082 L 134.196 250.287 C 134.486 251.55 134.72 252.835 134.918 254.133 L 133.23 255.108 C 133.051 255.21 132.991 255.439 133.093 255.617 C 133.162 255.737 133.287 255.804 133.416 255.804 C 133.479 255.804 133.543 255.787 133.602 255.753 L 135.045 254.92 C 135.263 256.494 135.414 258.09 135.499 259.707 C 135.509 259.907 135.674 260.061 135.871 260.061 C 135.877 260.061 135.883 260.061 135.89 260.06 C 136.096 260.05 136.254 259.874 136.243 259.668 C 136.152 257.928 135.979 256.212 135.736 254.521 L 136.92 253.838 C 137.098 253.735 137.159 253.507 137.056 253.329 Z " fill="rgb(0,0,0)"/></g><g opacity="0.149994"><path d=" M 140.875 326.417 C 140.564 323.608 140.45 320.76 140.536 317.938 C 140.842 316.854 145.384 301.265 153.74 296.406 C 154.334 296.056 154.887 295.825 155.387 295.717 C 155.628 295.663 155.857 295.636 156.071 295.636 C 158.286 295.636 159.279 298.718 160.24 301.699 C 160.64 302.941 161.055 304.225 161.559 305.283 C 162.128 306.481 163.098 308.074 164.941 308.074 C 165.645 308.074 166.393 307.843 167.232 307.367 C 171.249 305.079 172.404 298.88 173.627 292.317 C 174.179 289.356 174.749 286.295 175.601 283.625 C 176.819 279.795 178.399 277.423 180.574 276.163 C 181.273 275.76 181.898 275.555 182.433 275.555 C 184.761 275.555 185.643 279.703 186.495 283.714 C 186.961 285.911 187.443 288.183 188.187 289.858 C 189.036 291.791 190.152 292.731 191.597 292.731 C 192.334 292.731 193.123 292.484 194.005 291.975 C 198.936 289.129 200.428 284.305 201.87 279.64 C 203.096 275.679 204.252 271.938 207.504 270.046 C 208.366 269.541 209.181 269.286 209.922 269.286 C 210.289 269.286 210.646 269.349 210.986 269.474 C 211.141 270.753 211.143 271.697 211.143 271.707 L 211.197 281.153 C 211.285 282.958 211.405 284.379 211.572 285.599 L 140.875 326.417 Z " fill="rgb(39,222,191)"/></g><g opacity="0.149994"><path d=" M 212.144 285.876 C 211.934 284.465 211.808 282.865 211.723 281.149 L 211.67 271.706 C 211.67 271.706 211.67 270.59 211.471 269.106 C 211 268.884 210.485 268.759 209.922 268.759 C 209.125 268.759 208.232 269.01 207.239 269.59 C 199.985 273.812 202.754 286.318 193.743 291.519 C 192.922 291.992 192.214 292.205 191.598 292.205 C 190.253 292.205 189.347 291.189 188.668 289.645 C 186.547 284.86 186.605 275.028 182.433 275.028 C 181.823 275.028 181.122 275.239 180.31 275.707 C 177.731 277.201 176.183 280.054 175.099 283.465 C 172.415 291.887 172.572 303.719 166.972 306.909 C 166.193 307.351 165.524 307.548 164.941 307.548 C 163.609 307.548 162.73 306.521 162.035 305.057 C 160.302 301.423 159.692 295.109 156.071 295.109 C 155.821 295.109 155.557 295.14 155.276 295.203 C 154.739 295.319 154.139 295.561 153.476 295.95 C 144.57 301.13 140.012 317.857 140.012 317.857 C 139.911 321.072 140.065 324.207 140.445 327.271 L 141.477 326.676 C 141.423 326.385 141.373 326.129 141.315 325.554 C 141.073 323.053 140.987 320.526 141.06 318.019 C 141.482 316.544 145.947 301.546 154.009 296.858 C 154.554 296.538 155.055 296.328 155.508 296.23 C 155.707 296.185 155.896 296.162 156.071 296.162 C 157.903 296.162 158.836 299.059 159.74 301.86 C 160.145 303.118 160.564 304.419 161.083 305.508 C 161.447 306.273 162.553 308.601 164.941 308.601 C 165.738 308.601 166.573 308.347 167.493 307.824 C 171.722 305.415 172.899 299.1 174.144 292.414 C 174.693 289.468 175.261 286.423 176.102 283.784 C 177.278 280.086 178.783 277.809 180.835 276.619 C 181.455 276.262 181.992 276.081 182.433 276.081 C 184.335 276.081 185.209 280.194 185.98 283.822 C 186.452 286.046 186.941 288.345 187.705 290.068 C 188.634 292.184 189.944 293.257 191.598 293.257 C 192.43 293.257 193.303 292.987 194.269 292.43 C 199.378 289.481 200.97 284.334 202.374 279.793 C 203.567 275.934 204.695 272.289 207.769 270.5 C 208.551 270.043 209.275 269.812 209.922 269.812 C 210.123 269.812 210.315 269.833 210.503 269.876 C 210.615 270.944 210.618 271.699 210.618 271.712 L 210.672 281.201 C 210.751 282.829 210.859 284.159 211.005 285.318 C 211.071 285.821 211.14 286.201 211.208 286.415 L 212.144 285.876 Z " fill="rgb(0,0,0)"/></g><g opacity="0.399994"><path d=" M 140.015 313.092 L 140.015 317.858 C 139.92 321.115 140.055 324.206 140.445 327.271 L 212.139 285.878 C 211.932 284.47 211.802 282.866 211.717 281.145 L 211.666 271.708 C 211.666 271.708 211.666 257.605 202.706 262.778 C 193.288 268.216 195.952 285.482 189.266 289.342 C 182.521 293.236 184.787 277.825 175.827 282.998 C 166.868 288.171 171.347 299.688 162.388 304.861 C 153.428 310.033 157.908 283.942 148.948 289.115 C 139.988 294.288 139.988 307.135 140.015 313.092 Z " fill="rgb(7,157,182)" fill-opacity="0.83"/></g><g opacity="0.399994"><path d=" M 136.733 334.546 C 136.604 334.546 136.478 334.478 136.409 334.358 C 136.308 334.179 136.369 333.952 136.548 333.849 L 212.806 290.185 C 212.984 290.084 213.212 290.145 213.315 290.324 C 213.416 290.503 213.355 290.73 213.176 290.833 L 136.918 334.497 C 136.859 334.53 136.796 334.546 136.733 334.546 Z " fill="rgb(0,0,0)"/></g><path d=" M 148.947 291.628 C 148.741 291.628 148.574 291.461 148.574 291.255 L 148.575 290.509 C 148.575 290.303 148.742 290.135 148.948 290.135 C 149.154 290.135 149.321 290.303 149.321 290.509 L 149.32 291.255 C 149.32 291.461 149.153 291.628 148.947 291.628 Z " fill="rgb(255,255,255)"/><path d=" M 148.944 294.499 C 148.738 294.499 148.57 294.332 148.57 294.126 L 148.573 292.696 C 148.574 292.49 148.74 292.32 148.946 292.32 L 148.947 292.32 C 149.152 292.321 149.319 292.485 149.319 292.691 L 149.317 294.126 C 149.317 294.332 149.15 294.499 148.944 294.499 Z  M 148.942 297.367 L 148.941 297.367 C 148.735 297.366 148.569 297.2 148.569 296.993 L 148.569 295.559 C 148.569 295.353 148.737 295.186 148.943 295.186 C 149.149 295.186 149.316 295.353 149.316 295.559 L 149.315 296.995 C 149.314 297.201 149.147 297.367 148.942 297.367 Z  M 148.94 300.235 L 148.939 300.235 C 148.733 300.234 148.567 300.068 148.567 299.861 L 148.568 298.428 C 148.568 298.223 148.735 298.055 148.941 298.055 C 149.146 298.055 149.314 298.223 149.314 298.428 L 149.313 299.863 C 149.312 300.069 149.145 300.235 148.94 300.235 Z  M 148.94 303.104 C 148.734 303.104 148.567 302.937 148.567 302.731 L 148.567 301.297 C 148.567 301.092 148.734 300.924 148.94 300.924 C 149.145 300.924 149.313 301.092 149.313 301.297 L 149.313 302.731 C 149.313 302.937 149.145 303.104 148.94 303.104 Z  M 148.94 305.973 C 148.734 305.973 148.567 305.805 148.567 305.6 L 148.567 304.166 C 148.567 303.96 148.734 303.792 148.94 303.792 C 149.145 303.792 149.313 303.96 149.313 304.166 L 149.313 305.6 C 149.313 305.805 149.145 305.973 148.94 305.973 Z  M 148.943 308.842 C 148.737 308.842 148.569 308.675 148.569 308.469 L 148.569 307.035 C 148.569 306.83 148.736 306.662 148.942 306.662 C 149.147 306.662 149.315 306.83 149.315 307.035 L 149.316 308.469 C 149.316 308.675 149.149 308.842 148.943 308.842 Z  M 148.949 311.711 C 148.743 311.711 148.577 311.545 148.576 311.339 L 148.573 309.905 C 148.573 309.699 148.739 309.532 148.945 309.531 L 148.946 309.531 C 149.152 309.531 149.318 309.698 149.319 309.903 L 149.322 311.337 C 149.322 311.544 149.155 311.71 148.95 311.711 L 148.949 311.711 Z  M 148.963 314.581 C 148.758 314.581 148.591 314.416 148.589 314.209 L 148.582 312.773 C 148.581 312.568 148.747 312.4 148.954 312.399 L 148.955 312.399 C 149.161 312.399 149.327 312.566 149.328 312.771 L 149.336 314.206 C 149.337 314.411 149.171 314.579 148.965 314.581 L 148.963 314.581 Z  M 148.987 317.449 C 148.783 317.449 148.617 317.286 148.614 317.081 C 148.608 316.668 148.603 316.186 148.598 315.644 C 148.597 315.437 148.763 315.27 148.968 315.268 C 149.193 315.228 149.343 315.432 149.345 315.638 C 149.349 316.178 149.354 316.658 149.36 317.071 C 149.363 317.276 149.199 317.446 148.992 317.449 L 148.987 317.449 Z  M 149.162 320.31 C 148.97 320.31 148.808 320.164 148.791 319.971 C 148.746 319.495 148.71 319.014 148.68 318.532 C 148.666 318.326 148.822 318.148 149.028 318.136 C 149.272 318.11 149.412 318.28 149.424 318.484 C 149.454 318.96 149.491 319.433 149.533 319.903 C 149.552 320.109 149.402 320.29 149.195 320.308 C 149.184 320.309 149.173 320.31 149.162 320.31 Z " fill="rgb(255,255,255)"/><path d=" M 149.405 322.471 C 149.221 322.471 149.06 322.334 149.035 322.147 C 149.002 321.899 148.97 321.651 148.941 321.402 C 148.917 321.197 149.064 321.012 149.268 320.989 C 149.474 320.967 149.659 321.111 149.681 321.315 C 149.71 321.56 149.742 321.804 149.775 322.049 C 149.802 322.252 149.659 322.44 149.454 322.468 C 149.438 322.47 149.422 322.471 149.405 322.471 Z " fill="rgb(255,255,255)"/><path d=" M 202.715 263.898 C 202.509 263.898 202.341 263.731 202.341 263.525 L 202.342 262.776 C 202.344 262.572 202.51 262.405 202.716 262.405 L 202.717 262.405 C 202.923 262.406 203.09 262.574 203.089 262.78 L 203.088 263.525 C 203.088 263.731 202.921 263.898 202.715 263.898 Z " fill="rgb(255,255,255)"/><path d=" M 202.712 266.768 L 202.711 266.768 C 202.505 266.767 202.339 266.6 202.339 266.393 L 202.34 264.959 C 202.34 264.754 202.507 264.586 202.713 264.586 C 202.919 264.586 203.087 264.754 203.087 264.959 L 203.086 266.395 C 203.085 266.601 202.918 266.768 202.712 266.768 Z  M 202.709 269.636 L 202.708 269.636 C 202.503 269.635 202.336 269.469 202.336 269.262 L 202.337 267.828 C 202.337 267.622 202.504 267.455 202.71 267.455 C 202.916 267.455 203.083 267.622 203.083 267.828 L 203.082 269.264 C 203.081 269.47 202.915 269.636 202.709 269.636 Z  M 202.708 272.504 L 202.707 272.504 C 202.502 272.503 202.335 272.337 202.335 272.13 L 202.336 270.697 C 202.336 270.492 202.504 270.324 202.709 270.324 C 202.915 270.324 203.082 270.492 203.082 270.697 L 203.081 272.132 C 203.08 272.338 202.914 272.504 202.708 272.504 Z  M 202.708 275.374 C 202.503 275.374 202.335 275.207 202.335 275.001 L 202.335 273.567 C 202.335 273.362 202.503 273.194 202.708 273.194 C 202.914 273.194 203.081 273.362 203.081 273.567 L 203.081 275.001 C 203.081 275.207 202.914 275.374 202.708 275.374 Z  M 202.708 278.242 C 202.503 278.242 202.335 278.074 202.335 277.869 L 202.335 276.435 C 202.335 276.229 202.503 276.061 202.708 276.061 C 202.914 276.061 203.081 276.229 203.081 276.435 L 203.081 277.869 C 203.081 278.074 202.914 278.242 202.708 278.242 Z  M 202.711 281.111 C 202.505 281.111 202.338 280.943 202.338 280.738 L 202.337 279.304 C 202.337 279.098 202.504 278.931 202.71 278.931 C 202.916 278.931 203.083 279.098 203.083 279.304 L 203.085 280.738 C 203.085 280.943 202.917 281.111 202.711 281.111 Z  M 202.717 283.979 C 202.512 283.979 202.345 283.813 202.344 283.607 L 202.341 282.173 C 202.341 281.967 202.507 281.8 202.713 281.799 L 202.714 281.799 C 202.92 281.799 203.087 281.965 203.087 282.171 L 203.09 283.605 C 203.09 283.812 202.924 283.978 202.718 283.979 L 202.717 283.979 Z  M 202.73 286.849 C 202.525 286.849 202.358 286.683 202.357 286.477 L 202.349 285.041 C 202.348 284.836 202.515 284.668 202.721 284.667 L 202.722 284.667 C 202.928 284.667 203.095 284.834 203.096 285.039 L 203.103 286.474 C 203.104 286.679 202.939 286.847 202.732 286.849 L 202.73 286.849 Z  M 202.755 289.719 C 202.552 289.719 202.385 289.556 202.382 289.351 C 202.376 288.937 202.371 288.456 202.367 287.914 C 202.366 287.707 202.531 287.539 202.737 287.538 L 202.74 287.538 C 202.944 287.538 203.111 287.703 203.113 287.908 C 203.117 288.448 203.122 288.928 203.129 289.341 C 203.131 289.546 202.967 289.716 202.76 289.719 L 202.755 289.719 Z  M 202.93 292.579 C 202.739 292.579 202.576 292.433 202.559 292.24 C 202.515 291.764 202.478 291.283 202.448 290.801 C 202.435 290.595 202.591 290.417 202.796 290.405 C 203.028 290.393 203.179 290.55 203.192 290.753 C 203.222 291.229 203.259 291.702 203.301 292.172 C 203.321 292.377 203.17 292.559 202.964 292.577 C 202.953 292.578 202.941 292.579 202.93 292.579 Z " fill="rgb(255,255,255)"/><path d=" M 203.173 294.74 C 202.989 294.74 202.828 294.603 202.803 294.416 C 202.77 294.169 202.738 293.921 202.708 293.673 C 202.683 293.468 202.829 293.282 203.033 293.258 C 203.252 293.228 203.423 293.379 203.448 293.582 C 203.478 293.828 203.51 294.073 203.543 294.317 C 203.569 294.521 203.427 294.709 203.222 294.737 C 203.206 294.739 203.189 294.74 203.173 294.74 Z " fill="rgb(255,255,255)"/><path d=" M 175.828 285.411 C 175.622 285.411 175.455 285.243 175.455 285.037 L 175.455 284.291 C 175.455 284.086 175.622 283.918 175.828 283.918 C 176.034 283.918 176.201 284.086 176.201 284.291 L 176.201 285.037 C 176.201 285.243 176.034 285.411 175.828 285.411 Z " fill="rgb(255,255,255)"/><path d=" M 175.826 288.208 L 175.825 288.208 C 175.619 288.207 175.453 288.041 175.453 287.833 L 175.454 286.436 C 175.454 286.23 175.621 286.062 175.827 286.062 C 176.033 286.062 176.2 286.23 176.2 286.436 L 176.199 287.836 C 176.198 288.041 176.032 288.208 175.826 288.208 Z  M 175.824 291.006 L 175.823 291.006 C 175.617 291.005 175.451 290.838 175.451 290.632 L 175.451 289.234 C 175.451 289.028 175.619 288.861 175.825 288.861 C 176.031 288.861 176.198 289.028 176.198 289.234 L 176.197 290.634 C 176.196 290.84 176.03 291.006 175.824 291.006 Z  M 175.824 293.805 C 175.618 293.805 175.451 293.637 175.451 293.431 L 175.451 292.031 C 175.451 291.826 175.618 291.658 175.824 291.658 C 176.03 291.658 176.197 291.826 176.197 292.031 L 176.197 293.431 C 176.197 293.637 176.03 293.805 175.824 293.805 Z  M 175.828 296.602 C 175.622 296.602 175.456 296.435 175.455 296.229 L 175.451 294.831 C 175.451 294.624 175.618 294.458 175.824 294.457 L 175.825 294.457 C 176.031 294.457 176.197 294.623 176.198 294.829 L 176.201 296.228 C 176.201 296.434 176.034 296.601 175.829 296.602 L 175.828 296.602 Z  M 175.839 299.401 C 175.635 299.401 175.468 299.236 175.466 299.03 L 175.459 297.63 C 175.458 297.423 175.624 297.256 175.83 297.255 L 175.832 297.255 C 176.037 297.255 176.204 297.421 176.205 297.626 L 176.212 299.026 C 176.213 299.231 176.048 299.399 175.841 299.401 L 175.839 299.401 Z  M 175.867 302.196 C 175.663 302.196 175.497 302.032 175.494 301.828 L 175.477 300.428 C 175.475 300.222 175.641 300.053 175.847 300.051 L 175.85 300.051 C 176.055 300.051 176.222 300.215 176.224 300.42 L 176.24 301.819 C 176.242 302.025 176.078 302.193 175.871 302.196 L 175.867 302.196 Z  M 176.044 304.991 C 175.853 304.991 175.69 304.846 175.673 304.652 C 175.629 304.186 175.593 303.718 175.563 303.246 C 175.549 303.041 175.705 302.864 175.911 302.85 C 176.151 302.834 176.295 302.994 176.307 303.199 C 176.337 303.663 176.373 304.124 176.415 304.583 C 176.434 304.788 176.284 304.97 176.079 304.989 C 176.066 304.99 176.055 304.991 176.044 304.991 Z " fill="rgb(255,255,255)"/><path d=" M 176.284 307.121 C 176.1 307.121 175.94 306.984 175.914 306.797 C 175.881 306.551 175.849 306.302 175.819 306.052 C 175.795 305.848 175.941 305.663 176.145 305.638 C 176.346 305.607 176.534 305.759 176.559 305.964 C 176.589 306.209 176.621 306.454 176.654 306.699 C 176.68 306.902 176.538 307.09 176.333 307.118 C 176.317 307.12 176.3 307.121 176.284 307.121 Z " fill="rgb(255,255,255)"/><g opacity="0.399994"><path d=" M 148.94 287.639 C 149.652 287.228 150.229 287.5 150.229 288.247 C 150.229 288.994 149.652 289.933 148.94 290.345 C 148.228 290.756 147.65 290.483 147.65 289.736 C 147.65 288.989 148.228 288.05 148.94 287.639 Z " fill="rgb(0,0,0)"/></g><g opacity="0.399994"><path d=" M 175.827 281.419 C 176.539 281.008 177.117 281.28 177.117 282.027 C 177.117 282.775 176.539 283.714 175.827 284.125 C 175.115 284.536 174.538 284.263 174.538 283.516 C 174.538 282.769 175.115 281.83 175.827 281.419 Z " fill="rgb(0,0,0)"/></g><g opacity="0.399994"><path d=" M 202.707 261.425 C 203.419 261.014 203.996 261.286 203.996 262.033 C 203.996 262.781 203.419 263.72 202.707 264.131 C 201.995 264.542 201.417 264.27 201.417 263.522 C 201.417 262.775 201.995 261.836 202.707 261.425 Z " fill="rgb(0,0,0)"/></g><g opacity="0.399994"><path d=" M 137.229 296.321 C 137.408 296.218 137.468 295.99 137.366 295.812 C 137.261 295.632 137.033 295.571 136.856 295.675 L 135.882 296.238 L 135.882 292.387 L 137.23 291.609 C 137.409 291.507 137.469 291.279 137.367 291.1 C 137.263 290.921 137.034 290.86 136.858 290.964 L 135.882 291.527 L 135.882 287.472 C 135.882 287.267 135.714 287.099 135.509 287.099 C 135.304 287.099 135.136 287.267 135.136 287.472 L 135.136 291.958 L 133.785 292.738 C 133.606 292.841 133.545 293.069 133.648 293.247 C 133.717 293.367 133.843 293.434 133.971 293.434 C 134.035 293.434 134.099 293.418 134.157 293.383 L 135.136 292.819 L 135.136 296.669 L 133.784 297.449 C 133.605 297.551 133.544 297.779 133.647 297.958 C 133.716 298.078 133.842 298.145 133.97 298.145 C 134.034 298.145 134.098 298.128 134.156 298.094 L 135.136 297.529 L 135.136 301.379 L 133.783 302.16 C 133.604 302.263 133.543 302.491 133.646 302.669 C 133.715 302.789 133.841 302.856 133.969 302.856 C 134.033 302.856 134.097 302.84 134.154 302.806 L 135.136 302.239 L 135.136 306.089 L 133.782 306.871 C 133.603 306.973 133.541 307.202 133.646 307.38 C 133.714 307.5 133.839 307.567 133.968 307.567 C 134.032 307.567 134.096 307.55 134.154 307.516 L 135.136 306.949 L 135.136 310.8 L 133.781 311.581 C 133.602 311.684 133.541 311.912 133.644 312.09 C 133.713 312.211 133.838 312.277 133.967 312.277 C 134.031 312.277 134.095 312.261 134.153 312.227 L 135.136 311.66 L 135.136 315.51 L 133.779 316.293 C 133.601 316.396 133.541 316.624 133.642 316.801 C 133.712 316.922 133.837 316.989 133.966 316.989 C 134.029 316.989 134.093 316.972 134.152 316.938 L 135.136 316.37 L 135.136 320.22 L 133.779 321.003 C 133.6 321.106 133.539 321.334 133.642 321.512 C 133.711 321.633 133.836 321.699 133.965 321.699 C 134.029 321.699 134.092 321.683 134.151 321.649 L 135.129 321.084 C 135.106 322.363 135.118 323.64 135.172 324.908 L 133.778 325.714 C 133.599 325.817 133.538 326.045 133.641 326.223 C 133.71 326.343 133.835 326.41 133.964 326.41 C 134.028 326.41 134.091 326.393 134.15 326.36 L 135.219 325.742 C 135.299 327.143 135.418 328.535 135.593 329.906 C 135.617 330.094 135.779 330.232 135.963 330.232 C 135.979 330.232 135.995 330.231 136.011 330.229 C 136.215 330.203 136.359 330.016 136.333 329.812 C 136.146 328.336 136.016 326.838 135.939 325.327 L 137.223 324.586 C 137.402 324.483 137.462 324.255 137.359 324.077 C 137.255 323.897 137.026 323.838 136.851 323.941 L 135.908 324.485 C 135.86 323.213 135.848 321.934 135.88 320.651 L 137.224 319.875 C 137.403 319.772 137.463 319.544 137.36 319.365 C 137.257 319.185 137.027 319.126 136.852 319.229 L 135.882 319.789 L 135.882 315.939 L 137.225 315.164 C 137.404 315.061 137.464 314.833 137.362 314.655 C 137.258 314.475 137.029 314.415 136.853 314.518 L 135.882 315.079 L 135.882 311.229 L 137.226 310.453 C 137.404 310.351 137.466 310.122 137.363 309.945 C 137.259 309.765 137.029 309.705 136.854 309.808 L 135.882 310.368 L 135.882 306.518 L 137.227 305.742 C 137.406 305.639 137.467 305.411 137.364 305.233 C 137.26 305.052 137.029 304.993 136.854 305.096 L 135.882 305.658 L 135.882 301.808 L 137.228 301.031 C 137.407 300.928 137.467 300.7 137.365 300.523 C 137.261 300.342 137.033 300.283 136.856 300.386 L 135.882 300.948 L 135.882 297.098 L 137.229 296.321 Z " fill="rgb(0,0,0)"/></g><path d=" M 230.664 319.417 L 159.039 360.771 C 156.521 362.225 152.871 362.052 151.067 360.196 C 149.264 358.341 150.002 355.512 152.519 354.058 L 224.124 312.716 C 226.642 311.262 229.99 311.732 231.8 313.584 C 233.609 315.437 233.182 317.963 230.664 319.417 Z " fill="rgb(7,157,182)"/><g opacity="0.399994"><path d=" M 138.058 339.533 C 137.877 339.533 137.699 339.438 137.603 339.27 C 137.457 339.018 137.543 338.696 137.795 338.551 L 218.472 291.971 C 218.723 291.825 219.046 291.911 219.191 292.163 C 219.337 292.415 219.25 292.737 218.998 292.882 L 138.321 339.462 C 138.238 339.511 138.147 339.533 138.058 339.533 Z " fill="rgb(0,0,0)"/></g><g opacity="0.399994"><path d=" M 139.707 343.895 C 139.526 343.895 139.349 343.8 139.251 343.632 C 139.106 343.38 139.192 343.058 139.444 342.913 L 220.133 296.325 C 220.384 296.178 220.707 296.265 220.852 296.518 C 220.998 296.77 220.912 297.091 220.66 297.236 L 139.97 343.824 C 139.887 343.873 139.796 343.895 139.707 343.895 Z " fill="rgb(0,0,0)"/></g><g opacity="0.399994"><path d=" M 141.743 348.077 C 141.562 348.077 141.384 347.982 141.287 347.814 C 141.141 347.562 141.228 347.24 141.48 347.095 L 222.18 300.502 C 222.431 300.355 222.754 300.441 222.898 300.694 C 223.044 300.946 222.958 301.268 222.706 301.413 L 142.006 348.006 C 141.923 348.055 141.832 348.077 141.743 348.077 Z " fill="rgb(0,0,0)"/></g><g opacity="0.399994"><path d=" M 144.147 352.058 C 143.966 352.058 143.788 351.964 143.691 351.795 C 143.545 351.543 143.632 351.222 143.884 351.077 L 224.594 304.476 C 224.844 304.329 225.169 304.416 225.313 304.668 C 225.459 304.92 225.373 305.242 225.121 305.387 L 144.41 351.987 C 144.327 352.036 144.236 352.058 144.147 352.058 Z " fill="rgb(0,0,0)"/></g></g><clipPath id="_clipPath_Xl8rr4PfvVpzGufvBeeD2EeRBe5wDtUr"><path d=" M 0 0 L 500 0 L 500 500 L 0 500 L 0 0 Z " fill="rgb(255,255,255)"/></clipPath><g clip-path="url(#_clipPath_Xl8rr4PfvVpzGufvBeeD2EeRBe5wDtUr)"><path d=" M 214.582 274.898 L 280.969 236.575 C 283.487 235.121 287.498 234.258 289.754 235.169 C 292.011 236.081 291.58 238.44 289.062 239.893 L 221.9 278.662 C 219.383 280.115 215.801 280.268 213.796 279.185 C 211.79 278.103 212.064 276.351 214.582 274.898 Z " fill="rgb(7,157,182)"/><g opacity="0.399994"><path d=" M 222.28 285.435 C 222.099 285.435 221.922 285.341 221.825 285.172 C 221.679 284.92 221.765 284.599 222.017 284.454 L 298.537 240.282 C 298.788 240.135 299.112 240.223 299.256 240.475 C 299.403 240.727 299.316 241.048 299.064 241.193 L 222.543 285.364 C 222.46 285.413 222.37 285.435 222.28 285.435 Z " fill="rgb(0,0,0)"/></g><g opacity="0.399994"><path d=" M 225.449 288.856 C 225.268 288.856 225.091 288.761 224.994 288.593 C 224.848 288.341 224.934 288.019 225.186 287.874 L 301.825 243.636 C 302.077 243.49 302.399 243.576 302.544 243.829 C 302.689 244.081 302.603 244.402 302.351 244.547 L 225.712 288.785 C 225.629 288.834 225.539 288.856 225.449 288.856 Z " fill="rgb(0,0,0)"/></g><g opacity="0.399994"><path d=" M 238.139 327.979 L 238.138 327.979 C 237.932 327.978 237.766 327.812 237.766 327.604 L 237.78 323.545 C 237.792 320.487 237.792 320.487 237.704 318.421 L 237.689 318.079 C 237.398 313.125 236.48 308.468 234.962 304.242 C 233.629 300.228 231.373 296.288 228.064 292.189 C 227.934 292.029 227.959 291.795 228.119 291.665 C 228.28 291.537 228.515 291.56 228.644 291.721 C 232.012 295.891 234.308 299.907 235.666 303.999 C 237.205 308.283 238.138 313.009 238.434 318.041 L 238.45 318.389 C 238.539 320.473 238.539 320.473 238.526 323.548 L 238.512 327.607 C 238.511 327.812 238.345 327.979 238.139 327.979 Z " fill="rgb(0,0,0)"/></g><g opacity="0.68"><path d=" M 237.37 296.043 C 237.03 295.445 236.662 294.857 236.27 294.278 C 235.863 293.676 236.02 292.909 236.65 292.546 L 265.89 275.666 C 266.518 275.303 267.373 275.487 267.752 276.107 C 268.104 276.683 268.436 277.288 268.763 277.921 C 269.095 278.568 268.837 279.396 268.207 279.759 L 239.129 296.545 C 238.5 296.909 237.73 296.674 237.37 296.043 Z " fill="rgb(68,167,185)"/></g><path d=" M 240.216 302.777 C 240.434 303.449 240.635 304.113 240.818 304.771 C 241.012 305.471 241.66 305.75 242.289 305.386 L 311.663 265.342 C 312.292 264.979 312.661 264.112 312.468 263.411 C 312.278 262.717 312.081 262.05 311.877 261.41 C 311.655 260.718 310.948 260.458 310.318 260.821 L 240.932 300.872 C 240.303 301.236 239.991 302.086 240.216 302.777 Z " fill="rgb(39,222,191)"/><g opacity="0.699997"><path d=" M 240.216 302.777 C 240.434 303.449 240.635 304.113 240.818 304.771 C 241.012 305.471 241.66 305.75 242.289 305.386 L 311.663 265.342 C 312.292 264.979 312.661 264.112 312.468 263.411 C 312.278 262.717 312.081 262.05 311.877 261.41 C 311.655 260.718 310.948 260.458 310.318 260.821 L 240.932 300.872 C 240.303 301.236 239.991 302.086 240.216 302.777 Z " fill="rgb(7,157,182)"/></g><path d=" M 242.236 312.01 C 242.326 312.748 242.401 313.468 242.458 314.164 C 242.516 314.889 243.052 315.183 243.681 314.82 L 290.677 287.693 C 291.307 287.329 291.786 286.446 291.728 285.721 C 291.669 285.001 291.595 284.285 291.506 283.573 C 291.417 282.852 290.818 282.564 290.189 282.927 L 243.205 310.048 C 242.576 310.411 242.148 311.288 242.236 312.01 Z " fill="rgb(39,222,191)"/><g opacity="0.25" style="mix-blend-mode:soft-light;"><path d=" M 242.236 312.01 C 242.326 312.748 242.401 313.468 242.458 314.164 C 242.516 314.889 243.052 315.183 243.681 314.82 L 290.677 287.693 C 291.307 287.329 291.786 286.446 291.728 285.721 C 291.669 285.001 291.595 284.285 291.506 283.573 C 291.417 282.852 290.818 282.564 290.189 282.927 L 243.205 310.048 C 242.576 310.411 242.148 311.288 242.236 312.01 Z " fill="rgb(12,157,183)"/></g><path d=" M 242.618 321.592 L 242.618 323.705 C 242.618 324.432 243.129 324.727 243.758 324.363 L 263.878 312.749 C 264.507 312.385 265.017 311.502 265.017 310.775 L 265.017 308.661 C 265.017 307.934 264.507 307.64 263.878 308.003 L 243.758 319.618 C 243.128 319.982 242.618 320.865 242.618 321.592 Z " fill="rgb(39,222,191)"/><g opacity="0.5"><path d=" M 242.618 321.592 L 242.618 323.705 C 242.618 324.432 243.129 324.727 243.758 324.363 L 263.878 312.749 C 264.507 312.385 265.017 311.502 265.017 310.775 L 265.017 308.661 C 265.017 307.934 264.507 307.64 263.878 308.003 L 243.758 319.618 C 243.128 319.982 242.618 320.865 242.618 321.592 Z " fill="rgb(12,157,183)"/></g><g opacity="0.399994"><path d=" M 314.295 288.184 C 314.09 288.184 313.922 288.351 313.922 288.558 L 313.922 290.367 L 308.56 293.462 L 308.56 292.108 C 308.56 291.903 308.393 291.735 308.187 291.735 C 307.982 291.735 307.814 291.903 307.814 292.108 L 307.814 293.892 L 302.451 296.988 L 302.451 295.658 C 302.451 295.453 302.284 295.285 302.078 295.285 C 301.873 295.285 301.705 295.453 301.705 295.658 L 301.705 297.418 L 296.343 300.514 L 296.343 299.208 C 296.343 299.002 296.175 298.835 295.97 298.835 C 295.764 298.835 295.597 299.002 295.597 299.208 L 295.597 300.944 L 290.233 304.04 L 290.233 302.759 C 290.233 302.553 290.066 302.386 289.859 302.386 C 289.654 302.386 289.486 302.553 289.486 302.759 L 289.486 304.471 L 284.124 307.566 L 284.124 306.309 C 284.124 306.103 283.957 305.935 283.751 305.935 C 283.545 305.935 283.378 306.103 283.378 306.309 L 283.378 307.997 L 278.016 311.092 L 278.016 309.858 C 278.016 309.653 277.848 309.485 277.643 309.485 C 277.437 309.485 277.27 309.653 277.27 309.858 L 277.27 311.523 L 271.907 314.618 L 271.907 313.408 C 271.907 313.203 271.739 313.035 271.534 313.035 C 271.328 313.035 271.16 313.203 271.16 313.408 L 271.16 315.049 L 265.798 318.144 L 265.798 316.959 C 265.798 316.753 265.631 316.586 265.425 316.586 C 265.22 316.586 265.052 316.753 265.052 316.959 L 265.052 318.575 L 259.69 321.67 L 259.69 320.509 C 259.69 320.304 259.523 320.136 259.316 320.136 C 259.11 320.136 258.943 320.304 258.943 320.509 L 258.943 322.101 L 253.581 325.196 L 253.581 324.059 C 253.581 323.853 253.413 323.686 253.208 323.686 C 253.002 323.686 252.835 323.853 252.835 324.059 L 252.835 325.626 L 247.471 328.722 L 247.471 327.61 C 247.471 327.404 247.304 327.237 247.098 327.237 C 246.893 327.237 246.725 327.404 246.725 327.61 L 246.725 329.153 L 242.071 331.839 C 241.892 331.942 241.832 332.17 241.934 332.348 C 242.003 332.468 242.128 332.535 242.257 332.535 C 242.321 332.535 242.384 332.518 242.443 332.485 L 246.725 330.013 L 246.725 331.528 C 246.725 331.733 246.893 331.901 247.098 331.901 C 247.304 331.901 247.471 331.733 247.471 331.528 L 247.471 329.582 L 252.835 326.487 L 252.835 327.978 C 252.835 328.184 253.002 328.351 253.208 328.351 C 253.413 328.351 253.581 328.184 253.581 327.978 L 253.581 326.056 L 258.943 322.961 L 258.943 324.428 C 258.943 324.634 259.11 324.801 259.316 324.801 C 259.523 324.801 259.69 324.634 259.69 324.428 L 259.69 322.53 L 265.052 319.435 L 265.052 320.878 C 265.052 321.084 265.22 321.251 265.425 321.251 C 265.631 321.251 265.798 321.084 265.798 320.878 L 265.798 319.004 L 271.16 315.909 L 271.16 317.327 C 271.16 317.533 271.328 317.701 271.534 317.701 C 271.739 317.701 271.907 317.533 271.907 317.327 L 271.907 315.478 L 277.27 312.383 L 277.27 313.777 C 277.27 313.983 277.437 314.15 277.643 314.15 C 277.848 314.15 278.016 313.983 278.016 313.777 L 278.016 311.953 L 283.378 308.857 L 283.378 310.227 C 283.378 310.433 283.545 310.601 283.751 310.601 C 283.957 310.601 284.124 310.433 284.124 310.227 L 284.124 308.426 L 289.486 305.331 L 289.486 306.677 C 289.486 306.882 289.654 307.05 289.859 307.05 C 290.066 307.05 290.233 306.882 290.233 306.677 L 290.233 304.9 L 295.597 301.805 L 295.597 303.127 C 295.597 303.332 295.764 303.5 295.97 303.5 C 296.175 303.5 296.343 303.332 296.343 303.127 L 296.343 301.374 L 301.705 298.279 L 301.705 299.577 C 301.705 299.783 301.873 299.95 302.078 299.95 C 302.284 299.95 302.451 299.783 302.451 299.577 L 302.451 297.848 L 307.814 294.753 L 307.814 296.027 C 307.814 296.233 307.982 296.4 308.187 296.4 C 308.393 296.4 308.56 296.233 308.56 296.027 L 308.56 294.322 L 313.922 291.227 L 313.922 292.476 C 313.922 292.682 314.09 292.85 314.295 292.85 C 314.501 292.85 314.669 292.682 314.669 292.476 L 314.669 288.558 C 314.669 288.351 314.501 288.184 314.295 288.184 Z " fill="rgb(0,0,0)"/></g><path d=" M 255.495 337.375 C 254.263 337.638 252.947 338.154 251.589 338.954 C 244.167 343.312 238.156 354.218 238.156 363.314 C 238.156 363.556 238.156 363.788 238.167 364.02 L 251.578 357.882 L 255.495 337.375 Z " fill="rgb(12,157,183)"/><path d=" M 255.495 337.375 L 251.578 357.882 L 264.875 350.166 C 264.97 349.334 265.021 348.502 265.021 347.681 C 265.021 340.196 261.011 336.217 255.495 337.375 Z " fill="rgb(39,222,191)"/><path d=" M 263.19 357.082 C 264.043 354.797 264.632 352.45 264.875 350.165 L 251.578 357.882 L 263.19 357.082 Z " fill="rgb(39,222,191)"/><path d=" M 238.167 364.02 C 238.472 372.621 244.368 376.21 251.589 372.041 C 256.548 369.178 260.874 363.367 263.19 357.083 L 251.578 357.882 L 238.167 364.02 Z " fill="rgb(39,222,191)"/><g opacity="0.699997"><path d=" M 255.495 337.375 L 251.578 357.882 L 264.875 350.166 C 264.97 349.334 265.021 348.502 265.021 347.681 C 265.021 340.196 261.011 336.217 255.495 337.375 Z " fill="rgb(12,157,183)"/></g><g opacity="0.149994"><path d=" M 263.19 357.082 C 264.043 354.797 264.632 352.45 264.875 350.165 L 251.578 357.882 L 263.19 357.082 Z " fill="rgb(12,157,183)"/></g><g opacity="0.5"><path d=" M 238.167 364.02 C 238.472 372.621 244.368 376.21 251.589 372.041 C 256.548 369.178 260.874 363.367 263.19 357.083 L 251.578 357.882 L 238.167 364.02 Z " fill="rgb(12,157,183)"/></g><path d=" M 255.495 337.375 C 254.263 337.638 252.947 338.154 251.589 338.954 C 244.167 343.312 238.156 354.218 238.156 363.314 C 238.156 363.556 238.156 363.788 238.167 364.02 L 251.578 357.882 L 255.495 337.375 Z " fill="none" vector-effect="non-scaling-stroke" stroke-width="1.053" stroke="rgb(255,255,255)" stroke-linejoin="miter" stroke-linecap="square" stroke-miterlimit="3"/><path d=" M 255.495 337.375 L 251.578 357.882 L 264.875 350.166 C 264.97 349.334 265.021 348.502 265.021 347.681 C 265.021 340.196 261.011 336.217 255.495 337.375 Z " fill="none" vector-effect="non-scaling-stroke" stroke-width="1.053" stroke="rgb(255,255,255)" stroke-linejoin="miter" stroke-linecap="square" stroke-miterlimit="3"/><path d=" M 263.19 357.082 C 264.043 354.797 264.632 352.45 264.875 350.165 L 251.578 357.882 L 263.19 357.082 Z " fill="none" vector-effect="non-scaling-stroke" stroke-width="1.053" stroke="rgb(255,255,255)" stroke-linejoin="miter" stroke-linecap="square" stroke-miterlimit="3"/><path d=" M 238.167 364.02 C 238.472 372.621 244.368 376.21 251.589 372.041 C 256.548 369.178 260.874 363.367 263.19 357.083 L 251.578 357.882 L 238.167 364.02 Z " fill="none" vector-effect="non-scaling-stroke" stroke-width="1.053" stroke="rgb(255,255,255)" stroke-linejoin="miter" stroke-linecap="square" stroke-miterlimit="3"/><path d=" M 294.782 315.678 C 290.414 320.942 287.424 328.29 287.424 334.753 C 287.424 337.691 288.045 340.101 289.119 341.87 L 300.856 326.984 L 294.782 315.678 Z " fill="rgb(7,157,182)"/><path d=" M 306.92 308.636 C 305.099 308.552 303.036 309.099 300.857 310.363 C 298.667 311.626 296.604 313.468 294.782 315.678 L 300.857 326.985 L 306.92 308.636 Z " fill="rgb(39,222,191)"/><path d=" M 313.047 312.931 C 311.774 310.278 309.605 308.763 306.92 308.636 L 300.857 326.985 L 313.047 312.931 Z " fill="rgb(39,222,191)"/><path d=" M 313.047 312.931 L 300.857 326.985 L 289.119 341.87 C 291.424 345.618 295.814 346.523 300.857 343.607 C 308.278 339.323 314.3 328.406 314.3 319.216 C 314.3 316.71 313.848 314.595 313.047 312.931 Z " fill="rgb(39,222,191)"/><g opacity="0.699997"><path d=" M 306.92 308.636 C 305.099 308.552 303.036 309.099 300.857 310.363 C 298.667 311.626 296.604 313.468 294.782 315.678 L 300.857 326.985 L 306.92 308.636 Z " fill="rgb(12,157,183)"/></g><g opacity="0.149994"><path d=" M 313.047 312.931 C 311.774 310.278 309.605 308.763 306.92 308.636 L 300.857 326.985 L 313.047 312.931 Z " fill="rgb(0,0,0)"/></g><g opacity="0.5"><path d=" M 313.047 312.931 L 300.857 326.985 L 289.119 341.87 C 291.424 345.618 295.814 346.523 300.857 343.607 C 308.278 339.323 314.3 328.406 314.3 319.216 C 314.3 316.71 313.848 314.595 313.047 312.931 Z " fill="rgb(12,157,183)"/></g><path d=" M 296.706 319.26 L 294.782 315.678 C 290.414 320.942 287.424 328.29 287.424 334.753 C 287.424 337.691 288.045 340.101 289.119 341.87 L 300.856 326.984 L 296.706 319.26 Z " fill="none" vector-effect="non-scaling-stroke" stroke-width="1.053" stroke="rgb(255,255,255)" stroke-linejoin="miter" stroke-linecap="square" stroke-miterlimit="3"/><path d=" M 306.92 308.636 C 305.099 308.552 303.036 309.099 300.857 310.363 C 298.667 311.626 296.604 313.468 294.782 315.678 L 300.857 326.985 L 306.92 308.636 Z " fill="none" vector-effect="non-scaling-stroke" stroke-width="1.053" stroke="rgb(255,255,255)" stroke-linejoin="miter" stroke-linecap="square" stroke-miterlimit="3"/><path d=" M 313.047 312.931 C 311.774 310.278 309.605 308.763 306.92 308.636 L 300.857 326.985 L 313.047 312.931 Z " fill="none" vector-effect="non-scaling-stroke" stroke-width="1.053" stroke="rgb(255,255,255)" stroke-linejoin="miter" stroke-linecap="square" stroke-miterlimit="3"/><path d=" M 313.047 312.931 L 300.857 326.985 L 289.119 341.87 C 291.424 345.618 295.814 346.523 300.857 343.607 C 308.278 339.323 314.3 328.406 314.3 319.216 C 314.3 316.71 313.848 314.595 313.047 312.931 Z " fill="none" vector-effect="non-scaling-stroke" stroke-width="1.053" stroke="rgb(255,255,255)" stroke-linejoin="miter" stroke-linecap="square" stroke-miterlimit="3"/><path d=" M 270.641 327.844 L 272.842 326.574 C 273.471 326.211 273.982 326.505 273.982 327.232 L 273.982 329.345 C 273.982 330.073 273.472 330.956 272.842 331.319 L 270.642 332.589 C 270.012 332.952 269.502 332.658 269.502 331.931 L 269.501 329.818 C 269.501 329.091 270.012 328.207 270.641 327.844 Z " fill="rgb(7,157,182)"/><path d=" M 270.641 337.328 L 272.842 336.058 C 273.471 335.695 273.982 335.989 273.982 336.716 L 273.982 338.829 C 273.982 339.556 273.472 340.44 272.842 340.803 L 270.642 342.073 C 270.012 342.436 269.502 342.142 269.502 341.415 L 269.501 339.302 C 269.501 338.575 270.012 337.691 270.641 337.328 Z " fill="rgb(7,157,182)"/><g opacity="0.699997"><path d=" M 270.641 337.328 L 272.842 336.058 C 273.471 335.695 273.982 335.989 273.982 336.716 L 273.982 338.829 C 273.982 339.556 273.472 340.44 272.842 340.803 L 270.642 342.073 C 270.012 342.436 269.502 342.142 269.502 341.415 L 269.501 339.302 C 269.501 338.575 270.012 337.691 270.641 337.328 Z " fill="rgb(255,255,255)"/></g><path d=" M 270.641 346.811 L 272.842 345.541 C 273.471 345.178 273.982 345.472 273.982 346.198 L 273.982 348.313 C 273.982 349.04 273.472 349.923 272.842 350.287 L 270.642 351.557 C 270.012 351.92 269.502 351.625 269.502 350.898 L 269.501 348.785 C 269.501 348.058 270.012 347.174 270.641 346.811 Z " fill="rgb(7,157,182)"/><g opacity="0.149994"><path d=" M 270.641 346.76 L 272.842 345.49 C 273.471 345.127 273.982 345.422 273.982 346.148 L 273.982 348.262 C 273.982 348.989 273.472 349.872 272.842 350.236 L 270.642 351.506 C 270.012 351.869 269.502 351.574 269.502 350.847 L 269.501 348.734 C 269.501 348.007 270.012 347.123 270.641 346.76 Z " fill="rgb(0,0,0)"/></g><path d=" M 270.641 356.294 L 272.842 355.024 C 273.471 354.661 273.982 354.955 273.982 355.682 L 273.982 357.795 C 273.982 358.523 273.472 359.406 272.842 359.77 L 270.642 361.039 C 270.012 361.402 269.502 361.108 269.502 360.381 L 269.501 358.268 C 269.501 357.541 270.012 356.657 270.641 356.294 Z " fill="rgb(6,134,155)"/><g opacity="0.5"><path d=" M 270.641 356.294 L 272.842 355.024 C 273.471 354.661 273.982 354.955 273.982 355.682 L 273.982 357.795 C 273.982 358.523 273.472 359.406 272.842 359.77 L 270.642 361.039 C 270.012 361.402 269.502 361.108 269.502 360.381 L 269.501 358.268 C 269.501 357.541 270.012 356.657 270.641 356.294 Z " fill="rgb(255,255,255)"/></g><g opacity="0.399994"><path d=" M 276.242 327.626 C 275.984 327.626 275.733 327.493 275.596 327.253 C 275.388 326.897 275.512 326.44 275.868 326.234 L 282.564 322.369 C 282.922 322.164 283.379 322.285 283.584 322.642 C 283.79 322.999 283.668 323.455 283.311 323.661 L 276.614 327.525 C 276.497 327.594 276.368 327.626 276.242 327.626 Z " fill="rgb(0,0,0)"/></g><g opacity="0.399994"><path d=" M 276.14 337.205 C 275.882 337.205 275.631 337.071 275.494 336.832 C 275.286 336.475 275.409 336.018 275.766 335.813 L 282.462 331.948 C 282.82 331.742 283.277 331.863 283.481 332.22 C 283.688 332.577 283.566 333.033 283.208 333.239 L 276.512 337.104 C 276.395 337.172 276.266 337.205 276.14 337.205 Z " fill="rgb(0,0,0)"/></g><g opacity="0.399994"><path d=" M 276.036 346.783 C 275.778 346.783 275.527 346.65 275.39 346.41 C 275.183 346.054 275.306 345.597 275.662 345.391 L 282.359 341.526 C 282.717 341.321 283.173 341.442 283.378 341.798 C 283.585 342.155 283.462 342.612 283.105 342.817 L 276.409 346.682 C 276.291 346.75 276.163 346.783 276.036 346.783 Z " fill="rgb(0,0,0)"/></g><g opacity="0.399994"><path d=" M 275.933 356.36 C 275.675 356.36 275.424 356.226 275.286 355.986 C 275.079 355.63 275.203 355.173 275.559 354.967 L 282.255 351.103 C 282.616 350.9 283.069 351.019 283.276 351.376 C 283.481 351.733 283.359 352.189 283.002 352.396 L 276.305 356.26 C 276.187 356.327 276.06 356.36 275.933 356.36 Z " fill="rgb(0,0,0)"/></g><g opacity="0.399994"><path d=" M 238.992 390.058 C 238.734 390.058 238.483 389.924 238.346 389.685 C 238.139 389.328 238.262 388.871 238.618 388.665 L 269.977 370.567 C 270.336 370.363 270.789 370.483 270.996 370.84 C 271.202 371.196 271.079 371.653 270.723 371.859 L 239.365 389.958 C 239.246 390.025 239.118 390.058 238.992 390.058 Z " fill="rgb(0,0,0)"/></g><g opacity="0.399994"><path d=" M 240.002 394.7 C 239.744 394.7 239.493 394.566 239.355 394.327 C 239.149 393.97 239.271 393.513 239.628 393.307 L 270.986 375.209 C 271.347 375.004 271.8 375.126 272.005 375.482 C 272.211 375.838 272.089 376.295 271.733 376.501 L 240.374 394.6 C 240.256 394.667 240.128 394.7 240.002 394.7 Z " fill="rgb(0,0,0)"/></g><g opacity="0.399994"><path d=" M 241.447 399.191 C 241.189 399.191 240.938 399.057 240.801 398.817 C 240.594 398.461 240.716 398.004 241.073 397.798 L 272.432 379.7 C 272.792 379.495 273.244 379.616 273.451 379.972 C 273.656 380.329 273.534 380.786 273.178 380.992 L 241.819 399.091 C 241.701 399.158 241.573 399.191 241.447 399.191 Z " fill="rgb(0,0,0)"/></g><g opacity="0.399994"><path d=" M 288.214 361.651 C 287.956 361.651 287.705 361.518 287.567 361.278 C 287.36 360.922 287.483 360.465 287.84 360.258 L 319.198 342.159 C 319.559 341.956 320.013 342.076 320.217 342.433 C 320.424 342.79 320.301 343.246 319.944 343.453 L 288.586 361.55 C 288.468 361.618 288.34 361.651 288.214 361.651 Z " fill="rgb(0,0,0)"/></g><g opacity="0.399994"><path d=" M 289.224 366.293 C 288.965 366.293 288.715 366.16 288.577 365.92 C 288.37 365.564 288.493 365.107 288.849 364.9 L 320.208 346.802 C 320.569 346.597 321.022 346.718 321.227 347.075 C 321.433 347.432 321.311 347.888 320.954 348.095 L 289.596 366.193 C 289.478 366.26 289.35 366.293 289.224 366.293 Z " fill="rgb(0,0,0)"/></g><g opacity="0.399994"><path d=" M 290.669 370.784 C 290.411 370.784 290.16 370.65 290.022 370.411 C 289.815 370.054 289.938 369.597 290.295 369.391 L 321.653 351.293 C 322.014 351.088 322.468 351.21 322.672 351.566 C 322.879 351.922 322.756 352.379 322.399 352.585 L 291.041 370.684 C 290.923 370.751 290.795 370.784 290.669 370.784 Z " fill="rgb(0,0,0)"/></g><path d=" M 250.055 404.28 L 321.547 363.021 C 324.065 361.568 327.173 362.211 328.709 364.305 C 330.244 366.399 329.617 369.142 327.099 370.595 L 255.582 411.868 C 253.065 413.321 249.601 412.939 248.072 410.841 C 246.543 408.743 247.537 405.733 250.055 404.28 Z " fill="rgb(7,157,182)"/><g opacity="0.399994"><path d=" M 261.851 424.498 C 261.593 424.498 261.342 424.364 261.204 424.125 C 260.997 423.768 261.12 423.312 261.477 423.105 L 292.832 405.009 C 293.192 404.807 293.647 404.926 293.852 405.283 C 294.058 405.64 293.935 406.096 293.579 406.303 L 262.223 424.398 C 262.105 424.465 261.977 424.498 261.851 424.498 Z " fill="rgb(0,0,0)"/></g><g opacity="0.399994"><path d=" M 257.928 421.731 C 257.67 421.731 257.419 421.598 257.281 421.358 C 257.074 421.002 257.197 420.545 257.554 420.338 L 288.909 402.244 C 289.269 402.041 289.723 402.16 289.929 402.517 C 290.134 402.874 290.012 403.33 289.656 403.537 L 258.3 421.631 C 258.182 421.698 258.054 421.731 257.928 421.731 Z " fill="rgb(0,0,0)"/></g><g opacity="0.399994"><path d=" M 265.974 426.938 C 265.716 426.938 265.465 426.805 265.327 426.565 C 265.121 426.209 265.244 425.752 265.6 425.545 L 296.956 407.45 C 297.317 407.247 297.77 407.367 297.977 407.723 C 298.182 408.08 298.06 408.536 297.703 408.743 L 266.347 426.838 C 266.228 426.905 266.101 426.938 265.974 426.938 Z " fill="rgb(0,0,0)"/></g><g opacity="0.399994"><path d=" M 306.62 398.662 C 306.362 398.662 306.111 398.529 305.973 398.289 C 305.766 397.933 305.889 397.476 306.246 397.269 L 337.602 379.174 C 337.963 378.971 338.415 379.09 338.622 379.447 C 338.828 379.804 338.705 380.26 338.349 380.467 L 306.992 398.562 C 306.874 398.629 306.746 398.662 306.62 398.662 Z " fill="rgb(0,0,0)"/></g><g opacity="0.399994"><path d=" M 302.697 395.895 C 302.438 395.895 302.188 395.761 302.049 395.521 C 301.843 395.165 301.966 394.708 302.322 394.502 L 333.677 376.407 C 334.038 376.205 334.491 376.324 334.698 376.681 C 334.903 377.037 334.781 377.494 334.425 377.7 L 303.069 395.795 C 302.951 395.862 302.823 395.895 302.697 395.895 Z " fill="rgb(0,0,0)"/></g><g opacity="0.399994"><path d=" M 310.743 401.102 C 310.485 401.102 310.234 400.968 310.096 400.728 C 309.89 400.372 310.013 399.915 310.369 399.709 L 341.725 381.613 C 342.086 381.411 342.539 381.531 342.745 381.887 C 342.951 382.243 342.829 382.7 342.472 382.907 L 311.115 401.002 C 310.997 401.069 310.87 401.102 310.743 401.102 Z " fill="rgb(0,0,0)"/></g><path d=" M 306.581 436.503 C 301.28 439.563 293.04 439.766 288.177 436.958 C 283.313 434.149 283.669 429.392 288.971 426.333 C 294.272 423.274 302.512 423.07 307.375 425.878 C 312.238 428.687 311.883 433.444 306.581 436.503 Z  M 311.215 423.663 C 304.406 419.731 292.87 420.016 285.448 424.298 C 278.026 428.582 277.529 435.241 284.337 439.173 C 291.145 443.105 302.682 442.82 310.103 438.537 C 317.525 434.254 318.023 427.595 311.215 423.663 Z " fill="rgb(39,222,191)"/><path d=" M 292.493 428.367 C 295.674 426.532 300.618 426.409 303.535 428.095 C 306.453 429.78 306.24 432.634 303.059 434.47 C 299.878 436.305 294.934 436.427 292.016 434.742 C 289.098 433.057 289.312 430.203 292.493 428.367 Z " fill="rgb(39,222,191)"/><g opacity="0.5"><path d=" M 292.493 428.367 C 295.674 426.532 300.618 426.409 303.535 428.095 C 306.453 429.78 306.24 432.634 303.059 434.47 C 299.878 436.305 294.934 436.427 292.016 434.742 C 289.098 433.057 289.312 430.203 292.493 428.367 Z " fill="rgb(0,0,0)"/></g><g opacity="0.67"><path d=" M 306.581 436.503 C 301.28 439.563 293.04 439.766 288.177 436.958 C 283.313 434.149 283.669 429.392 288.971 426.333 C 294.272 423.274 302.512 423.07 307.375 425.878 C 312.238 428.687 311.883 433.444 306.581 436.503 Z  M 311.215 423.663 C 304.406 419.731 292.87 420.016 285.448 424.298 C 278.026 428.582 277.529 435.241 284.337 439.173 C 291.145 443.105 302.682 442.82 310.103 438.537 C 317.525 434.254 318.023 427.595 311.215 423.663 Z " fill="rgb(7,157,182)"/></g><path d=" M 292.318 421.69 L 293.874 424.47 C 296.868 423.782 300.117 423.718 302.998 424.299 L 305.097 421.454 C 301.063 420.638 296.512 420.727 292.318 421.69 Z " fill="rgb(39,222,191)"/><g opacity="0.699997"><path d=" M 292.318 421.69 L 293.874 424.47 C 296.868 423.782 300.117 423.718 302.998 424.299 L 305.097 421.454 C 301.063 420.638 296.512 420.727 292.318 421.69 Z " fill="rgb(255,255,255)"/></g><g opacity="0.399994"><path d=" M 298.709 420.314 C 298.693 420.314 298.68 420.313 298.664 420.312 C 298.253 420.288 297.939 419.935 297.964 419.523 L 298.166 416.099 L 311.952 408.142 C 312.313 407.939 312.766 408.059 312.973 408.416 C 313.178 408.772 313.056 409.229 312.699 409.435 L 299.607 416.989 L 299.452 419.612 C 299.43 420.008 299.101 420.314 298.709 420.314 Z " fill="rgb(0,0,0)"/></g><path d=" M 346.887 413.253 C 341.586 416.312 333.346 416.515 328.483 413.707 C 323.62 410.899 323.976 406.142 329.277 403.082 C 334.578 400.023 342.819 399.819 347.681 402.628 C 352.544 405.437 352.189 410.193 346.887 413.253 Z  M 351.521 400.412 C 344.712 396.481 333.177 396.765 325.754 401.048 C 318.332 405.331 317.835 411.991 324.643 415.923 C 331.451 419.855 342.988 419.57 350.409 415.287 C 357.831 411.004 358.329 404.344 351.521 400.412 Z " fill="rgb(39,222,191)"/><path d=" M 332.799 405.117 C 335.98 403.282 340.924 403.159 343.842 404.845 C 346.759 406.53 346.546 409.384 343.365 411.22 C 340.185 413.055 335.24 413.177 332.322 411.492 C 329.404 409.807 329.618 406.953 332.799 405.117 Z " fill="rgb(39,222,191)"/><g opacity="0.5"><path d=" M 332.799 405.117 C 335.98 403.282 340.924 403.159 343.842 404.845 C 346.759 406.53 346.546 409.384 343.365 411.22 C 340.185 413.055 335.24 413.177 332.322 411.492 C 329.404 409.807 329.618 406.953 332.799 405.117 Z " fill="rgb(0,0,0)"/></g><g opacity="0.64"><path d=" M 346.887 413.253 C 341.586 416.312 333.346 416.515 328.483 413.707 C 323.62 410.899 323.976 406.142 329.277 403.082 C 334.578 400.023 342.819 399.819 347.681 402.628 C 352.544 405.437 352.189 410.193 346.887 413.253 Z  M 351.521 400.412 C 344.712 396.481 333.177 396.765 325.754 401.048 C 318.332 405.331 317.835 411.991 324.643 415.923 C 331.451 419.855 342.988 419.57 350.409 415.287 C 357.831 411.004 358.329 404.344 351.521 400.412 Z " fill="rgb(7,157,182)"/></g><path d=" M 351.521 400.413 C 345.768 397.091 336.648 396.791 329.479 399.358 L 331.939 401.874 C 337.06 400.041 343.573 400.256 347.681 402.629 C 348.433 403.063 349.045 403.548 349.548 404.062 L 354.137 402.422 C 353.432 401.701 352.575 401.022 351.521 400.413 Z " fill="rgb(39,222,191)"/><g opacity="0.699997"><path d=" M 351.521 400.413 C 345.768 397.091 336.648 396.791 329.479 399.358 L 331.939 401.874 C 337.06 400.041 343.573 400.256 347.681 402.629 C 348.433 403.063 349.045 403.548 349.548 404.062 L 354.137 402.422 C 353.432 401.701 352.575 401.022 351.521 400.413 Z " fill="rgb(255,255,255)"/></g><g opacity="0.399994"><path d=" M 339.129 396.989 C 339.113 396.989 339.099 396.988 339.084 396.987 C 338.673 396.963 338.359 396.61 338.384 396.198 L 338.587 392.773 L 352.373 384.817 C 352.734 384.615 353.187 384.734 353.394 385.09 C 353.599 385.447 353.477 385.904 353.119 386.11 L 340.028 393.663 L 339.872 396.287 C 339.849 396.682 339.521 396.989 339.129 396.989 Z " fill="rgb(39,222,191)"/></g><g opacity="0.399994"><path d=" M 302.956 448.295 C 302.698 448.295 302.447 448.161 302.309 447.922 C 302.102 447.565 302.226 447.108 302.582 446.902 L 378.736 402.957 C 379.098 402.754 379.55 402.874 379.756 403.231 C 379.962 403.587 379.84 404.044 379.482 404.251 L 303.328 448.195 C 303.21 448.262 303.082 448.295 302.956 448.295 Z " fill="rgb(0,0,0)"/></g><g opacity="0.399994"><path d=" M 307.074 450.663 C 306.816 450.663 306.565 450.529 306.427 450.29 C 306.22 449.933 306.344 449.476 306.7 449.27 L 382.854 405.325 C 383.216 405.122 383.668 405.242 383.875 405.599 C 384.08 405.955 383.958 406.412 383.601 406.618 L 307.446 450.563 C 307.328 450.63 307.201 450.663 307.074 450.663 Z " fill="rgb(0,0,0)"/></g><g opacity="0.399994"><path d=" M 311.185 453.036 C 310.927 453.036 310.676 452.903 310.538 452.663 C 310.331 452.306 310.454 451.85 310.811 451.643 L 386.965 407.698 C 387.327 407.495 387.779 407.615 387.985 407.972 C 388.191 408.328 388.069 408.785 387.711 408.992 L 311.557 452.936 C 311.439 453.003 311.311 453.036 311.185 453.036 Z " fill="rgb(0,0,0)"/></g></g></g></svg>