<svg xmlns="http://www.w3.org/2000/svg" data-v-fde0c5aa="" width="1536" height="1536" style=""><rect id="backgroundrect" width="100%" height="100%" x="0" y="0" fill="none" stroke="none" class="" style=""/><!----><defs data-v-fde0c5aa=""><!----></defs><!----><defs data-v-fde0c5aa=""><linearGradient data-v-fde0c5aa="" gradientTransform="rotate(25)" id="0e731fe5-dfbd-4f94-ab2e-4d532bb04ac8" x1="0%" y1="0%" x2="100%" y2="0%"><stop data-v-fde0c5aa="" offset="0%" stop-color="#08C7D6" stop-opacity="1"/><stop data-v-fde0c5aa="" offset="100%" stop-color="#02023E" stop-opacity="1"/></linearGradient></defs><!----><g class="currentLayer" style=""><title>Layer 1</title><path fill="#ffffff" fill-opacity="1" stroke="#ffffff" stroke-opacity="1" stroke-width="1" stroke-dasharray="none" stroke-linejoin="miter" stroke-linecap="butt" stroke-dashoffset="" fill-rule="nonzero" opacity="1" marker-start="" marker-mid="" marker-end="" d="M84,768 C84,371.31491712707185 390.09944751381215,50 768,50 C1145.9005524861877,50 1452,371.31491712707185 1452,768 C1452,1164.6850828729282 1145.9005524861877,1486 768,1486 C390.09944751381215,1486 84,1164.6850828729282 84,768 z" id="svg_1" class=""/><g data-v-fde0c5aa="" id="edc0b3ec-1b78-41c7-8281-4cb44df0c59f" fill="url(#0e731fe5-dfbd-4f94-ab2e-4d532bb04ac8)" stroke="#ffffff" class="" opacity="1" stroke-opacity="1"><path d="M768.0161767664741,253.27605646571558 C1050.9165252547664,253.27605646571558 1281.067796906867,484.17021757607233 1281.067796906867,767.9999785016182 c0,283.81350306319496 -230.1512716521006,514.7239220359027 -513.0516201403923,514.7239220359027 C485.0996227246229,1282.72390053752 254.93214551896295,1051.8134815648132 254.93214551896295,767.9999785016182 c0,-283.82976092554605 230.16747720566013,-514.7239220359027 513.0840312475116,-514.7239220359027 m0,-38.04339790157965 C463.6920864725155,215.2326585641359 217.01115018971925,462.7098392726169 217.01115018971925,767.9999785016182 c0,305.2738813666501 246.68093628279647,552.7673199374823 551.0050265767547,552.7673199374823 C1072.3240615068728,1320.7672984391004 1318.98879223611,1073.2738598682681 1318.98879223611,767.9999785016182 c0,-305.2901392290012 -246.664730729237,-552.7673199374823 -550.972615469636,-552.7673199374823 zM767.9999712129148,618.3300976973693 c49.11903283886192,0 152.12153126308047,-157.06720817400046 154.19584211869721,-220.3102927197889 c2.0743108556167438,-63.275600270490614 -128.51003972688056,-64.15352483745018 -154.19584211869721,-64.15352483745018 s-156.27015297431393,0.8941824293106375 -154.19584211869721,64.15352483745018 c2.0743108556167438,63.243084545788406 105.09301483339478,220.3102927197889 154.19584211869721,220.3102927197889 zm-141.94444362771085,103.38374669066027 c15.184603685256887,-46.85515929587717 -101.90052078217215,-193.69617205103424 -161.2128468099632,-215.18906607919166 c-59.328531581350546,-21.54166761521071 -100.50684317605464,102.78220578366947 -108.44756442021247,127.28280434678085 s-47.46606637579232,149.37723928192906 13.175115043878174,166.93573062111963 c60.56015365187298,17.591007063892818 241.3168980546001,-32.1743095928317 256.4852961862975,-79.02946888870886 zm54.20757665654673,167.39095076695054 c-39.73601732790809,-28.95525284731341 -215.0801068417603,37.37682554518446 -253.84379095609802,87.27220510071781 c-38.73127300721875,49.97666886728883 66.41035848685455,127.68925090555841 87.16967259658142,142.82532075443478 c20.759314109726866,15.168585573578557 126.93810103160854,91.4829914496533 162.33103000556906,39.01886964264582 c35.37672342040104,-52.3340589081987 44.04669457473662,-240.17740051283607 4.343088353947548,-269.11639549779835 zm175.40891172809023,0 c-39.73601732790809,28.938994984962317 -31.066046173572516,216.74982086489746 4.294471693269034,269.16516908485164 c35.425340081079575,52.3990903576031 141.5555103422827,-23.89905765612057 162.3796466662476,-39.05138536734802 c20.743108556167353,-15.087296261823044 125.93335671091916,-92.84865188714593 87.1372614894624,-142.82532075443478 c-38.68265634654021,-49.91163741788443 -214.10777362818993,-116.2437158103823 -253.81137984897904,-87.28846296306888 zm54.23998776366573,-167.3259193175461 c15.13598702457837,46.887675020579394 195.87652587374598,96.65299167730389 256.46909063273796,79.09450033811328 c60.6087703125515,-17.62352278859502 21.09963073447648,-142.43513205800826 13.158909490318667,-166.96824634582185 c-7.875899029919794,-24.516856425462446 -49.086621731742916,-148.85698768669377 -108.46376997377199,-127.29906220913195 c-59.27991492067204,21.525409752859613 -176.39745049522006,168.36642250801665 -161.16423014928463,215.17280821684054 zm-141.81479919923476,99.62818048755564 a28.01940210438543,28.10984400505608 0 1 0 0,56.20343014776106 a28.01940210438543,28.10984400505608 0 0 0 0,-56.20343014776106 zm-77.3004904788424,-56.34975090892099 a28.035607657944944,28.126101867407186 0 1 0 0.04861666067851785,56.235945872463276 a28.035607657944944,28.126101867407186 0 0 0 -0.04861666067851785,-56.235945872463276 zm29.46169637118145,-91.06028702852466 a28.003196550825933,28.09358614270499 0 1 0 0,56.20343014776106 a28.003196550825933,28.09358614270499 0 0 0 0,-56.20343014776106 zm95.46691601904836,0 a28.003196550825933,28.09358614270499 0 1 0 0,56.20343014776106 a28.003196550825933,28.09358614270499 0 0 0 0,-56.20343014776106 zm29.607546353217003,91.14157634028017 a28.035607657944944,28.126101867407186 0 1 0 0.03241110711901206,56.219688010112165 a28.035607657944944,28.126101867407186 0 0 0 -0.03241110711901206,-56.219688010112165 zM768.0161767664741,36.4449462890625 C365.2433485985186,36.4449462890625 38.75006103515625,363.9595833520205 38.75006103515625,767.9999785016182 c0,404.02413728724616 326.49328756336234,731.5550322125556 729.2661157313181,731.5550322125556 S1497.2498813906734,1172.0241157888643 1497.2498813906734,767.9999785016182 C1497.2498813906734,363.9595833520205 1170.7727993808712,36.4449462890625 768.0161767664741,36.4449462890625 zM767.9999712129148,1337.0089029278522 c-313.253350305246,0 -567.1781690291417,-254.79321876647714 -567.1781690291417,-569.0089244262336 S454.7466209076689,198.99105407538437 767.9999712129148,198.99105407538437 S1335.1943457956165,453.7842728418619 1335.1943457956165,767.9999785016182 S1081.253321518161,1337.0089029278522 767.9999712129148,1337.0089029278522 z" stroke-width="0" id="svg_2" opacity="1" stroke="#ffffff" stroke-opacity="1" class=""/></g></g></svg>