<svg data-v-423bf9ae="" xmlns="http://www.w3.org/2000/svg" viewBox="0 0 430 90" class="iconLeftSlogan"><!----><!----><!----><g data-v-423bf9ae="" id="fb1f94f2-1f4c-478e-bf40-e43af87bebcf" fill="white" transform="matrix(6.564551860687581,0,0,6.564551860687581,110.53116352113912,-22.778994429143502)"><path d="M3.96 3.64L5.54 3.64L5.54 3.64Q5.54 3.64 5.65 3.95L5.65 3.95L5.65 3.95Q5.77 4.26 5.96 4.76L5.96 4.76L5.96 4.76Q6.15 5.27 6.40 5.92L6.40 5.92L6.40 5.92Q6.65 6.56 6.91 7.24L6.91 7.24L6.91 7.24Q7.16 7.92 7.41 8.57L7.41 8.57L7.41 8.57Q7.66 9.22 7.86 9.74L7.86 9.74L7.86 9.74Q8.06 10.25 8.18 10.58L8.18 10.58L8.18 10.58Q8.31 10.90 8.31 10.92L8.31 10.92L8.31 10.92Q8.44 11.25 8.51 11.42L8.51 11.42L8.51 11.42Q8.59 11.59 8.71 11.68L8.71 11.68L8.71 11.68Q8.83 11.76 9.03 11.77L9.03 11.77L9.03 11.77Q9.23 11.79 9.60 11.79L9.60 11.79L9.60 12.46L9.60 12.46Q9.21 12.46 8.84 12.46L8.84 12.46L8.84 12.46Q8.46 12.45 8.06 12.45L8.06 12.45L8.06 12.45Q7.84 12.45 7.64 12.45L7.64 12.45L7.64 12.45Q7.43 12.45 7.21 12.45L7.21 12.45L7.21 12.45Q6.99 12.45 6.75 12.45L6.75 12.45L6.75 12.45Q6.50 12.46 6.19 12.46L6.19 12.46L6.19 12.46Q6.19 12.41 6.19 12.29L6.19 12.29L6.19 12.29Q6.19 12.18 6.19 12.07L6.19 12.07L6.19 11.81L6.19 11.81Q6.50 11.81 6.70 11.80L6.70 11.80L6.70 11.80Q6.90 11.80 7.01 11.78L7.01 11.78L7.01 11.78Q7.13 11.76 7.17 11.73L7.17 11.73L7.17 11.73Q7.22 11.69 7.22 11.62L7.22 11.62L7.22 11.62Q7.21 11.59 7.20 11.53L7.20 11.53L7.20 11.53Q7.19 11.48 7.17 11.40L7.17 11.40L6.45 9.23L2.87 9.23L2.87 9.23Q2.86 9.24 2.81 9.40L2.81 9.40L2.81 9.40Q2.75 9.56 2.67 9.80L2.67 9.80L2.67 9.80Q2.59 10.04 2.50 10.31L2.50 10.31L2.50 10.31Q2.40 10.58 2.31 10.82L2.31 10.82L2.31 10.82Q2.23 11.05 2.17 11.21L2.17 11.21L2.17 11.21Q2.12 11.38 2.12 11.38L2.12 11.38L2.12 11.38Q2.05 11.55 2.05 11.63L2.05 11.63L2.05 11.63Q2.05 11.76 2.19 11.79L2.19 11.79L2.19 11.79Q2.33 11.81 2.66 11.81L2.66 11.81L3.15 11.81L3.15 12.46L3.15 12.46Q2.77 12.46 2.39 12.46L2.39 12.46L2.39 12.46Q2.01 12.45 1.62 12.45L1.62 12.45L1.62 12.45Q1.42 12.45 1.23 12.45L1.23 12.45L1.23 12.45Q1.04 12.45 0.84 12.45L0.84 12.45L0.84 12.45Q0.64 12.45 0.42 12.45L0.42 12.45L0.42 12.45Q0.20 12.46-0.08 12.46L-0.08 12.46L-0.08 11.79L-0.08 11.79Q0.27 11.78 0.46 11.77L0.46 11.77L0.46 11.77Q0.66 11.76 0.77 11.72L0.77 11.72L0.77 11.72Q0.88 11.67 0.93 11.57L0.93 11.57L0.93 11.57Q0.99 11.48 1.06 11.29L1.06 11.29L1.06 11.29Q1.07 11.27 1.15 11.07L1.15 11.07L1.15 11.07Q1.22 10.87 1.35 10.54L1.35 10.54L1.35 10.54Q1.48 10.21 1.64 9.78L1.64 9.78L1.64 9.78Q1.80 9.34 1.99 8.86L1.99 8.86L1.99 8.86Q2.18 8.37 2.38 7.86L2.38 7.86L2.38 7.86Q2.57 7.36 2.75 6.87L2.75 6.87L2.75 6.87Q2.94 6.38 3.11 5.95L3.11 5.95L3.11 5.95Q3.27 5.52 3.40 5.19L3.40 5.19L3.40 5.19Q3.53 4.86 3.60 4.66L3.60 4.66L3.60 4.66Q3.68 4.46 3.68 4.44L3.68 4.44L3.96 3.64ZM4.66 4.29L3.13 8.54L6.19 8.54L4.66 4.29ZM12.68 12.61L12.68 12.61L12.68 12.61Q12.03 12.61 11.64 12.41L11.64 12.41L11.64 12.41Q11.25 12.21 11.04 11.82L11.04 11.82L11.04 11.82Q10.83 11.44 10.77 10.87L10.77 10.87L10.77 10.87Q10.71 10.31 10.71 9.58L10.71 9.58L10.71 7.41L10.71 7.41Q10.71 7.24 10.67 7.14L10.67 7.14L10.67 7.14Q10.64 7.05 10.54 7.01L10.54 7.01L10.54 7.01Q10.44 6.97 10.24 6.96L10.24 6.96L10.24 6.96Q10.05 6.95 9.73 6.95L9.73 6.95L9.73 6.36L9.73 6.36Q10.03 6.36 10.29 6.36L10.29 6.36L10.29 6.36Q10.55 6.36 10.80 6.35L10.80 6.35L10.80 6.35Q11.05 6.35 11.30 6.34L11.30 6.34L11.30 6.34Q11.56 6.33 11.85 6.32L11.85 6.32L11.85 9.93L11.85 9.93Q11.85 10.36 11.89 10.73L11.89 10.73L11.89 10.73Q11.93 11.09 12.06 11.35L12.06 11.35L12.06 11.35Q12.18 11.61 12.42 11.75L12.42 11.75L12.42 11.75Q12.65 11.89 13.05 11.89L13.05 11.89L13.05 11.89Q13.42 11.89 13.73 11.81L13.73 11.81L13.73 11.81Q14.04 11.73 14.29 11.58L14.29 11.58L14.29 11.58Q14.55 11.44 14.74 11.23L14.74 11.23L14.74 11.23Q14.93 11.03 15.06 10.81L15.06 10.81L15.06 10.81Q15.07 10.55 15.07 10.31L15.07 10.31L15.07 10.31Q15.07 10.06 15.07 9.80L15.07 9.80L15.07 7.44L15.07 7.44Q15.07 7.26 15.04 7.16L15.04 7.16L15.04 7.16Q15.01 7.06 14.91 7.01L14.91 7.01L14.91 7.01Q14.80 6.97 14.60 6.96L14.60 6.96L14.60 6.96Q14.40 6.95 14.07 6.95L14.07 6.95L14.07 6.36L14.07 6.36Q14.59 6.36 15.13 6.35L15.13 6.35L15.13 6.35Q15.67 6.34 16.22 6.31L16.22 6.31L16.22 11.50L16.22 11.50Q16.22 11.63 16.26 11.70L16.26 11.70L16.26 11.70Q16.29 11.77 16.40 11.81L16.40 11.81L16.40 11.81Q16.50 11.84 16.69 11.85L16.69 11.85L16.69 11.85Q16.88 11.85 17.20 11.85L17.20 11.85L17.20 12.46L17.20 12.46Q16.58 12.46 16.08 12.47L16.08 12.47L16.08 12.47Q15.59 12.48 15.12 12.49L15.12 12.49L15.12 11.57L15.12 11.57Q14.65 12.09 14.03 12.35L14.03 12.35L14.03 12.35Q13.41 12.61 12.68 12.61ZM18.94 4.79L19.80 4.61L19.80 6.34L21.44 6.34L21.44 6.95L19.81 6.95L19.81 10.38L19.81 10.38Q19.81 10.73 19.82 11.00L19.82 11.00L19.82 11.00Q19.82 11.28 19.88 11.48L19.88 11.48L19.88 11.48Q19.94 11.68 20.07 11.78L20.07 11.78L20.07 11.78Q20.20 11.89 20.45 11.89L20.45 11.89L20.45 11.89Q20.54 11.89 20.64 11.85L20.64 11.85L20.64 11.85Q20.73 11.81 20.81 11.72L20.81 11.72L20.81 11.72Q20.88 11.63 20.92 11.49L20.92 11.49L20.92 11.49Q20.97 11.35 20.97 11.15L20.97 11.15L21.59 11.09L21.59 11.09Q21.59 11.49 21.48 11.78L21.48 11.78L21.48 11.78Q21.36 12.07 21.17 12.25L21.17 12.25L21.17 12.25Q20.99 12.43 20.73 12.52L20.73 12.52L20.73 12.52Q20.48 12.61 20.20 12.61L20.20 12.61L20.20 12.61Q19.72 12.61 19.42 12.45L19.42 12.45L19.42 12.45Q19.13 12.29 18.96 12.01L18.96 12.01L18.96 12.01Q18.79 11.74 18.73 11.33L18.73 11.33L18.73 11.33Q18.67 10.93 18.67 10.44L18.67 10.44L18.67 6.95L17.55 6.95L17.55 6.41L17.55 6.41Q17.72 6.41 17.93 6.39L17.93 6.39L17.93 6.39Q18.14 6.37 18.33 6.36L18.33 6.36L18.33 6.36Q18.56 6.34 18.79 6.32L18.79 6.32L18.79 6.32Q18.79 6.27 18.81 6.14L18.81 6.14L18.81 6.14Q18.82 6.02 18.83 5.85L18.83 5.85L18.83 5.85Q18.85 5.68 18.87 5.50L18.87 5.50L18.87 5.50Q18.89 5.32 18.90 5.16L18.90 5.16L18.90 5.16Q18.92 5.01 18.93 4.90L18.93 4.90L18.93 4.90Q18.94 4.80 18.94 4.79L18.94 4.79ZM25.74 6.19L25.74 6.19L25.74 6.19Q26.46 6.19 27.06 6.41L27.06 6.41L27.06 6.41Q27.66 6.64 28.09 7.06L28.09 7.06L28.09 7.06Q28.53 7.49 28.77 8.09L28.77 8.09L28.77 8.09Q29.00 8.69 29.00 9.41L29.00 9.41L29.00 9.41Q29.00 10.10 28.77 10.69L28.77 10.69L28.77 10.69Q28.53 11.29 28.10 11.72L28.10 11.72L28.10 11.72Q27.67 12.14 27.06 12.37L27.06 12.37L27.06 12.37Q26.46 12.61 25.74 12.61L25.74 12.61L25.74 12.61Q25.01 12.61 24.41 12.38L24.41 12.38L24.41 12.38Q23.82 12.15 23.39 11.72L23.39 11.72L23.39 11.72Q22.96 11.29 22.72 10.69L22.72 10.69L22.72 10.69Q22.48 10.10 22.48 9.41L22.48 9.41L22.48 9.41Q22.48 8.69 22.72 8.09L22.72 8.09L22.72 8.09Q22.96 7.49 23.39 7.06L23.39 7.06L23.39 7.06Q23.82 6.64 24.42 6.41L24.42 6.41L24.42 6.41Q25.02 6.19 25.74 6.19ZM25.74 6.90L25.74 6.90L25.74 6.90Q25.26 6.90 24.88 7.08L24.88 7.08L24.88 7.08Q24.49 7.25 24.22 7.57L24.22 7.57L24.22 7.57Q23.95 7.90 23.81 8.36L23.81 8.36L23.81 8.36Q23.67 8.83 23.67 9.40L23.67 9.40L23.67 9.40Q23.67 9.93 23.81 10.40L23.81 10.40L23.81 10.40Q23.96 10.87 24.23 11.20L24.23 11.20L24.23 11.20Q24.50 11.53 24.88 11.71L24.88 11.71L24.88 11.71Q25.27 11.89 25.74 11.89L25.74 11.89L25.74 11.89Q26.21 11.89 26.59 11.71L26.59 11.71L26.59 11.71Q26.97 11.53 27.25 11.20L27.25 11.20L27.25 11.20Q27.52 10.87 27.67 10.40L27.67 10.40L27.67 10.40Q27.82 9.93 27.82 9.40L27.82 9.40L27.82 9.40Q27.82 8.84 27.67 8.37L27.67 8.37L27.67 8.37Q27.52 7.90 27.25 7.57L27.25 7.57L27.25 7.57Q26.98 7.25 26.60 7.08L26.60 7.08L26.60 7.08Q26.21 6.90 25.74 6.90ZM32.00 3.60L32.00 11.38L32.00 11.38Q32.00 11.55 32.06 11.64L32.06 11.64L32.06 11.64Q32.13 11.74 32.26 11.79L32.26 11.79L32.26 11.79Q32.40 11.83 32.59 11.84L32.59 11.84L32.59 11.84Q32.79 11.85 33.05 11.85L33.05 11.85L33.05 12.46L33.05 12.46Q32.86 12.46 32.68 12.46L32.68 12.46L32.68 12.46Q32.49 12.46 32.30 12.46L32.30 12.46L32.30 12.46Q32.10 12.46 31.89 12.46L31.89 12.46L31.89 12.46Q31.68 12.46 31.42 12.45L31.42 12.45L31.42 12.45Q31.18 12.45 30.97 12.45L30.97 12.45L30.97 12.45Q30.75 12.46 30.56 12.46L30.56 12.46L30.56 12.46Q30.37 12.46 30.19 12.46L30.19 12.46L30.19 12.46Q30.02 12.46 29.83 12.46L29.83 12.46L29.83 12.46Q29.83 12.41 29.83 12.33L29.83 12.33L29.83 12.33Q29.83 12.24 29.83 12.16L29.83 12.16L29.83 12.16Q29.83 12.07 29.83 11.99L29.83 11.99L29.83 11.99Q29.83 11.91 29.83 11.85L29.83 11.85L29.83 11.85Q30.21 11.85 30.42 11.82L30.42 11.82L30.42 11.82Q30.63 11.79 30.73 11.72L30.73 11.72L30.73 11.72Q30.82 11.65 30.84 11.55L30.84 11.55L30.84 11.55Q30.86 11.44 30.86 11.30L30.86 11.30L30.86 4.59L30.86 4.59Q30.86 4.46 30.79 4.40L30.79 4.40L30.79 4.40Q30.73 4.33 30.60 4.30L30.60 4.30L30.60 4.30Q30.47 4.27 30.28 4.26L30.28 4.26L30.28 4.26Q30.10 4.25 29.86 4.25L29.86 4.25L29.86 3.63L29.86 3.63Q30.40 3.63 30.91 3.62L30.91 3.62L30.91 3.62Q31.41 3.62 32.00 3.60L32.00 3.60ZM35.14 3.47L35.14 3.47L35.14 3.47Q35.49 3.47 35.68 3.64L35.68 3.64L35.68 3.64Q35.88 3.81 35.88 4.10L35.88 4.10L35.88 4.10Q35.88 4.40 35.69 4.58L35.69 4.58L35.69 4.58Q35.49 4.75 35.14 4.75L35.14 4.75L35.14 4.75Q34.80 4.75 34.61 4.58L34.61 4.58L34.61 4.58Q34.42 4.41 34.42 4.10L34.42 4.10L34.42 4.10Q34.42 3.81 34.61 3.64L34.61 3.64L34.61 3.64Q34.80 3.47 35.14 3.47ZM35.86 6.31L35.86 11.40L35.86 11.40Q35.86 11.56 35.92 11.65L35.92 11.65L35.92 11.65Q35.97 11.74 36.09 11.79L36.09 11.79L36.09 11.79Q36.22 11.83 36.41 11.84L36.41 11.84L36.41 11.84Q36.61 11.85 36.89 11.85L36.89 11.85L36.89 12.46L36.89 12.46Q36.71 12.46 36.41 12.46L36.41 12.46L36.41 12.46Q36.11 12.46 35.81 12.46L35.81 12.46L35.81 12.46Q35.51 12.46 35.27 12.45L35.27 12.45L35.27 12.45Q35.04 12.45 35 12.45L35 12.45L35 12.45Q34.61 12.45 34.31 12.46L34.31 12.46L34.31 12.46Q34.02 12.46 33.70 12.46L33.70 12.46L33.70 11.85L33.70 11.85Q34.07 11.85 34.28 11.83L34.28 11.83L34.28 11.83Q34.48 11.81 34.58 11.76L34.58 11.76L34.58 11.76Q34.68 11.72 34.70 11.63L34.70 11.63L34.70 11.63Q34.71 11.55 34.71 11.41L34.71 11.41L34.71 7.20L34.71 7.20Q34.71 7.10 34.66 7.05L34.66 7.05L34.66 7.05Q34.61 7.01 34.49 6.98L34.49 6.98L34.49 6.98Q34.38 6.96 34.19 6.96L34.19 6.96L34.19 6.96Q34.00 6.95 33.74 6.95L33.74 6.95L33.74 6.34L33.74 6.34Q34.32 6.34 34.83 6.34L34.83 6.34L34.83 6.34Q35.34 6.33 35.86 6.31L35.86 6.31ZM38.62 4.79L39.48 4.61L39.48 6.34L41.13 6.34L41.13 6.95L39.49 6.95L39.49 10.38L39.49 10.38Q39.49 10.73 39.50 11.00L39.50 11.00L39.50 11.00Q39.50 11.28 39.56 11.48L39.56 11.48L39.56 11.48Q39.62 11.68 39.75 11.78L39.75 11.78L39.75 11.78Q39.88 11.89 40.13 11.89L40.13 11.89L40.13 11.89Q40.22 11.89 40.32 11.85L40.32 11.85L40.32 11.85Q40.41 11.81 40.49 11.72L40.49 11.72L40.49 11.72Q40.56 11.63 40.60 11.49L40.60 11.49L40.60 11.49Q40.65 11.35 40.65 11.15L40.65 11.15L41.27 11.09L41.27 11.09Q41.27 11.49 41.16 11.78L41.16 11.78L41.16 11.78Q41.04 12.07 40.85 12.25L40.85 12.25L40.85 12.25Q40.67 12.43 40.41 12.52L40.41 12.52L40.41 12.52Q40.16 12.61 39.88 12.61L39.88 12.61L39.88 12.61Q39.40 12.61 39.10 12.45L39.10 12.45L39.10 12.45Q38.81 12.29 38.64 12.01L38.64 12.01L38.64 12.01Q38.47 11.74 38.41 11.33L38.41 11.33L38.41 11.33Q38.35 10.93 38.35 10.44L38.35 10.44L38.35 6.95L37.23 6.95L37.23 6.41L37.23 6.41Q37.40 6.41 37.61 6.39L37.61 6.39L37.61 6.39Q37.82 6.37 38.01 6.36L38.01 6.36L38.01 6.36Q38.24 6.34 38.47 6.32L38.47 6.32L38.47 6.32Q38.47 6.27 38.49 6.14L38.49 6.14L38.49 6.14Q38.50 6.02 38.51 5.85L38.51 5.85L38.51 5.85Q38.53 5.68 38.55 5.50L38.55 5.50L38.55 5.50Q38.57 5.32 38.58 5.16L38.58 5.16L38.58 5.16Q38.60 5.01 38.61 4.90L38.61 4.90L38.61 4.90Q38.62 4.80 38.62 4.79L38.62 4.79ZM48.59 9.49L48.18 9.61L43.34 9.61L43.34 9.61Q43.35 10.16 43.51 10.58L43.51 10.58L43.51 10.58Q43.67 10.99 43.98 11.28L43.98 11.28L43.98 11.28Q44.28 11.57 44.70 11.73L44.70 11.73L44.70 11.73Q45.12 11.89 45.63 11.89L45.63 11.89L45.63 11.89Q46.35 11.89 46.87 11.59L46.87 11.59L46.87 11.59Q47.40 11.30 47.69 10.68L47.69 10.68L48.51 10.81L48.51 10.81Q48.20 11.68 47.41 12.14L47.41 12.14L47.41 12.14Q46.62 12.61 45.47 12.61L45.47 12.61L45.47 12.61Q44.70 12.61 44.08 12.37L44.08 12.37L44.08 12.37Q43.47 12.14 43.04 11.72L43.04 11.72L43.04 11.72Q42.62 11.29 42.39 10.72L42.39 10.72L42.39 10.72Q42.16 10.15 42.16 9.42L42.16 9.42L42.16 9.42Q42.16 8.68 42.40 8.09L42.40 8.09L42.40 8.09Q42.63 7.50 43.05 7.08L43.05 7.08L43.05 7.08Q43.48 6.65 44.07 6.42L44.07 6.42L44.07 6.42Q44.67 6.19 45.40 6.19L45.40 6.19L45.40 6.19Q46.14 6.19 46.73 6.41L46.73 6.41L46.73 6.41Q47.32 6.63 47.73 7.05L47.73 7.05L47.73 7.05Q48.14 7.48 48.36 8.09L48.36 8.09L48.36 8.09Q48.58 8.70 48.59 9.49L48.59 9.49ZM43.35 9.00L47.48 9.00L47.48 9.00Q47.40 7.96 46.87 7.43L46.87 7.43L46.87 7.43Q46.33 6.90 45.42 6.90L45.42 6.90L45.42 6.90Q44.99 6.90 44.63 7.04L44.63 7.04L44.63 7.04Q44.28 7.19 44.01 7.45L44.01 7.45L44.01 7.45Q43.74 7.72 43.58 8.10L43.58 8.10L43.58 8.10Q43.41 8.48 43.35 9.00L43.35 9.00Z"></path></g><!----><g data-v-423bf9ae="" id="e1a55b24-24b0-48d4-ba39-56b9242822e6" transform="matrix(1.0000666344854316,0,0,1.0000666344854316,-4.0033317242715825,-5.0003333723161205)" stroke="none" fill="white"><path d="M50.001 18.34C67.458 18.34 81.66 32.542 81.66 50c0 17.457-14.202 31.66-31.659 31.66C32.543 81.66 18.34 67.457 18.34 50c0-17.458 14.203-31.66 31.661-31.66m0-2.34C31.222 16 16 31.222 16 50c0 18.777 15.222 34 34.001 34C68.779 84 84 68.777 84 50c0-18.778-15.221-34-33.999-34zM50 40.794c3.031 0 9.387-9.661 9.515-13.551.128-3.892-7.93-3.946-9.515-3.946s-9.643.055-9.515 3.946c.128 3.89 6.485 13.551 9.515 13.551zm-8.759 6.359c.937-2.882-6.288-11.914-9.948-13.236-3.661-1.325-6.202 6.322-6.692 7.829s-2.929 9.188.813 10.268c3.737 1.082 14.891-1.979 15.827-4.861zm3.345 10.296c-2.452-1.781-13.272 2.299-15.664 5.368-2.39 3.074 4.098 7.854 5.379 8.785 1.281.933 7.833 5.627 10.017 2.4 2.183-3.219 2.718-14.773.268-16.553zm10.824 0c-2.452 1.78-1.917 13.332.265 16.556 2.186 3.223 8.735-1.47 10.02-2.402 1.28-.928 7.771-5.711 5.377-8.785-2.387-3.07-13.212-7.15-15.662-5.369zm3.347-10.292c.934 2.884 12.087 5.945 15.826 4.865 3.74-1.084 1.302-8.761.812-10.27-.486-1.508-3.029-9.156-6.693-7.83-3.658 1.324-10.885 10.356-9.945 13.235zm-8.751 6.128a1.729 1.729 0 1 0 0 3.457 1.729 1.729 0 0 0 0-3.457zm-4.77-3.466a1.73 1.73 0 1 0 .003 3.459 1.73 1.73 0 0 0-.003-3.459zm1.818-5.601a1.728 1.728 0 1 0 0 3.457 1.728 1.728 0 0 0 0-3.457zm5.891 0a1.728 1.728 0 1 0 0 3.457 1.728 1.728 0 0 0 0-3.457zm1.827 5.606a1.73 1.73 0 1 0 .002 3.458 1.73 1.73 0 0 0-.002-3.458zM50.001 5.003C25.147 5.003 5 25.148 5 50c0 24.851 20.147 44.997 45.001 44.997S95 74.851 95 50C95 25.148 74.854 5.003 50.001 5.003zM50 84.999c-19.33 0-34.999-15.672-34.999-34.999S30.67 15.001 50 15.001 85 30.673 85 50 69.33 84.999 50 84.999z"></path></g><!----><g data-v-423bf9ae="" id="d07abfc3-ba39-4649-a9c6-8e763ad90b78" fill="white" transform="matrix(0.6427859175367217,0,0,0.6427859175367217,109.82601546105754,59.69146240752773)"><path d="M0.28 5.32L0.28 5.32L0.28 5.32Q0.28 4.76 0.42 3.88L0.42 3.88L0.42 3.88Q0.42 3.85 0.43 3.78L0.43 3.78L0.43 3.78Q0.43 3.71 0.44 3.69L0.44 3.69L0.44 3.69Q0.45 3.67 0.46 3.62L0.46 3.62L0.46 3.62Q0.46 3.57 0.48 3.55L0.48 3.55L0.48 3.55Q0.49 3.53 0.51 3.49L0.51 3.49L0.51 3.49Q0.53 3.46 0.56 3.44L0.56 3.44L0.56 3.44Q0.59 3.43 0.63 3.42L0.63 3.42L0.63 3.42Q0.67 3.40 0.73 3.39L0.73 3.39L0.73 3.39Q0.78 3.39 0.85 3.39L0.85 3.39L0.85 3.39Q1.08 3.39 2.04 3.44L2.04 3.44L2.04 3.44Q3.00 3.50 4.80 3.50L4.80 3.50L4.80 3.50Q7.88 3.50 9.11 3.43L9.11 3.43L9.11 3.43Q9.13 3.43 9.16 3.42L9.16 3.42L9.16 3.42Q9.20 3.42 9.21 3.42L9.21 3.42L9.21 3.42Q9.37 3.42 9.42 3.50L9.42 3.50L9.42 3.50Q9.48 3.58 9.48 3.65L9.48 3.65L9.48 3.65Q9.48 3.75 9.52 4.24L9.52 4.24L9.52 4.24Q9.56 4.73 9.56 4.79L9.56 4.79L9.56 4.79Q9.56 5.14 9.52 5.23L9.52 5.23L9.52 5.23Q9.48 5.32 9.34 5.32L9.34 5.32L9.34 5.32Q9.23 5.32 9.18 5.15L9.18 5.15L9.18 5.15Q9.07 4.75 8.99 4.60L8.99 4.60L8.99 4.60Q8.90 4.45 8.62 4.34L8.62 4.34L8.62 4.34Q8.34 4.23 7.77 4.23L7.77 4.23L5.95 4.23L5.95 4.23Q5.61 4.23 5.54 4.36L5.54 4.36L5.54 4.36Q5.46 4.49 5.46 5.12L5.46 5.12L5.46 5.81L5.46 5.81Q5.46 7.69 5.44 9.11L5.44 9.11L5.44 9.11Q5.42 10.54 5.42 10.93L5.42 10.93L5.42 10.93Q5.42 11.13 5.41 11.43L5.41 11.43L5.41 11.43Q5.40 11.73 5.40 11.84L5.40 11.84L5.40 11.84Q5.40 12.45 5.60 12.64L5.60 12.64L5.60 12.64Q5.78 12.81 6.01 12.90L6.01 12.90L6.01 12.90Q6.23 12.99 6.39 13.01L6.39 13.01L6.39 13.01Q6.55 13.02 6.66 13.08L6.66 13.08L6.66 13.08Q6.78 13.13 6.78 13.26L6.78 13.26L6.78 13.26Q6.78 13.41 6.71 13.45L6.71 13.45L6.71 13.45Q6.64 13.50 6.44 13.50L6.44 13.50L6.44 13.50Q6.27 13.50 5.70 13.44L5.70 13.44L5.70 13.44Q5.12 13.38 4.89 13.38L4.89 13.38L4.89 13.38Q4.72 13.38 4.21 13.43L4.21 13.43L4.21 13.43Q3.70 13.48 3.46 13.48L3.46 13.48L3.46 13.48Q2.94 13.48 2.94 13.26L2.94 13.26L2.94 13.26Q2.94 13.12 3.02 13.07L3.02 13.07L3.02 13.07Q3.11 13.02 3.35 12.98L3.35 12.98L3.35 12.98Q3.60 12.95 3.67 12.94L3.67 12.94L3.67 12.94Q4.14 12.82 4.20 12.38L4.20 12.38L4.20 12.38Q4.34 11.14 4.34 7.08L4.34 7.08L4.33 4.58L4.33 4.58Q4.33 4.31 4.17 4.25L4.17 4.25L4.17 4.25Q4.02 4.19 3.26 4.19L3.26 4.19L3.26 4.19Q2.28 4.19 1.79 4.24L1.79 4.24L1.79 4.24Q1.29 4.30 1.20 4.35L1.20 4.35L1.20 4.35Q1.12 4.40 1.01 4.54L1.01 4.54L1.01 4.54Q0.88 4.70 0.81 4.91L0.81 4.91L0.81 4.91Q0.73 5.11 0.71 5.24L0.71 5.24L0.71 5.24Q0.69 5.38 0.62 5.47L0.62 5.47L0.62 5.47Q0.56 5.56 0.43 5.56L0.43 5.56L0.43 5.56Q0.28 5.56 0.28 5.32ZM17.12 3.68L17.12 3.68L17.12 3.68Q17.12 3.61 17.14 3.58L17.14 3.58L17.14 3.58Q17.15 3.56 17.22 3.53L17.22 3.53L17.22 3.53Q17.29 3.50 17.44 3.50L17.44 3.50L17.44 3.50Q17.60 3.50 18.09 3.53L18.09 3.53L18.09 3.53Q18.58 3.56 19.03 3.56L19.03 3.56L19.03 3.56Q19.31 3.56 19.54 3.54L19.54 3.54L19.54 3.54Q19.77 3.53 20.34 3.53L20.34 3.53L20.34 3.53Q20.64 3.53 20.64 3.72L20.64 3.72L20.64 3.72Q20.64 3.85 20.54 3.88L20.54 3.88L20.54 3.88Q20.44 3.91 20.29 3.92L20.29 3.92L20.29 3.92Q20.15 3.93 20.00 4.02L20.00 4.02L20.00 4.02Q19.85 4.10 19.75 4.43L19.75 4.43L19.75 4.43Q19.66 4.76 19.66 5.32L19.66 5.32L19.66 5.71L19.66 5.71Q19.66 6.37 19.65 7.37L19.65 7.37L19.65 7.37Q19.64 8.37 19.64 8.74L19.64 8.74L19.64 8.74Q19.64 9.17 19.65 9.39L19.65 9.39L19.65 9.39Q19.66 9.62 19.68 10.04L19.68 10.04L19.68 10.04Q19.71 10.47 19.76 10.72L19.76 10.72L19.76 10.72Q19.81 10.96 19.92 11.32L19.92 11.32L19.92 11.32Q20.03 11.68 20.20 11.89L20.20 11.89L20.20 11.89Q20.36 12.10 20.60 12.35L20.60 12.35L20.60 12.35Q20.85 12.60 21.17 12.73L21.17 12.73L21.17 12.73Q21.49 12.87 21.92 12.96L21.92 12.96L21.92 12.96Q22.36 13.05 22.89 13.05L22.89 13.05L22.89 13.05Q23.34 13.05 23.59 13.03L23.59 13.03L23.59 13.03Q23.84 13.02 24.28 12.94L24.28 12.94L24.28 12.94Q24.72 12.87 24.98 12.72L24.98 12.72L24.98 12.72Q25.24 12.57 25.57 12.27L25.57 12.27L25.57 12.27Q25.90 11.97 26.08 11.54L26.08 11.54L26.08 11.54Q26.26 11.10 26.39 10.43L26.39 10.43L26.39 10.43Q26.52 9.76 26.52 8.90L26.52 8.90L26.52 8.90Q26.52 7.49 26.51 6.75L26.51 6.75L26.51 6.75Q26.50 6.01 26.50 5.94L26.50 5.94L26.50 5.94Q26.50 5.45 26.48 5.17L26.48 5.17L26.48 5.17Q26.46 4.89 26.34 4.55L26.34 4.55L26.34 4.55Q26.22 4.21 26.00 4.06L26.00 4.06L26.00 4.06Q25.86 3.96 25.63 3.93L25.63 3.93L25.63 3.93Q25.41 3.89 25.27 3.87L25.27 3.87L25.27 3.87Q25.13 3.85 25.13 3.75L25.13 3.75L25.13 3.75Q25.13 3.53 25.41 3.53L25.41 3.53L25.41 3.53Q25.49 3.53 25.96 3.54L25.96 3.54L25.96 3.54Q26.42 3.56 26.49 3.56L26.49 3.56L26.49 3.56Q26.82 3.56 27.20 3.54L27.20 3.54L27.20 3.54Q27.58 3.51 27.68 3.51L27.68 3.51L27.68 3.51Q27.97 3.51 27.97 3.70L27.97 3.70L27.97 3.70Q27.97 3.81 27.67 3.98L27.67 3.98L27.67 3.98Q27.37 4.16 27.30 4.30L27.30 4.30L27.30 4.30Q27.15 4.59 27.15 5.22L27.15 5.22L27.15 5.22Q27.15 5.32 27.15 5.62L27.15 5.62L27.15 5.62Q27.16 5.92 27.16 6.16L27.16 6.16L27.16 6.16Q27.16 8.85 26.94 10.28L26.94 10.28L26.94 10.28Q26.71 11.70 26.26 12.36L26.26 12.36L26.26 12.36Q25.80 13.01 24.89 13.40L24.89 13.40L24.89 13.40Q24.15 13.71 22.89 13.71L22.89 13.71L22.89 13.71Q20.55 13.71 19.57 12.81L19.57 12.81L19.57 12.81Q18.80 12.10 18.62 11.09L18.62 11.09L18.62 11.09Q18.44 10.09 18.44 7.64L18.44 7.64L18.44 7.41L18.44 7.41Q18.44 6.86 18.45 6.20L18.45 6.20L18.45 6.20Q18.47 5.54 18.47 5.39L18.47 5.39L18.47 5.39Q18.47 4.62 18.28 4.33L18.28 4.33L18.28 4.33Q18.10 4.05 17.43 3.95L17.43 3.95L17.43 3.95Q17.12 3.91 17.12 3.68ZM45.51 3.70L45.51 3.70L45.51 3.70Q45.51 3.50 45.91 3.50L45.91 3.50L45.91 3.50Q45.98 3.50 46.44 3.53L46.44 3.53L46.44 3.53Q46.91 3.56 47.45 3.56L47.45 3.56L47.45 3.56Q47.57 3.56 47.89 3.54L47.89 3.54L47.89 3.54Q48.20 3.53 48.36 3.53L48.36 3.53L48.36 3.53Q48.68 3.53 48.75 3.56L48.75 3.56L48.75 3.56Q48.82 3.58 48.82 3.68L48.82 3.68L48.82 3.68Q48.82 3.77 48.68 3.84L48.68 3.84L48.68 3.84Q48.54 3.91 48.39 4.02L48.39 4.02L48.39 4.02Q48.24 4.14 48.24 4.34L48.24 4.34L48.24 4.34Q48.24 4.52 48.29 4.71L48.29 4.71L48.29 4.71Q48.34 4.90 48.51 5.29L48.51 5.29L48.51 5.29Q48.68 5.68 48.85 6.08L48.85 6.08L48.85 6.08Q49.03 6.47 49.43 7.34L49.43 7.34L49.43 7.34Q49.83 8.22 50.20 9.07L50.20 9.07L50.20 9.07Q51.38 11.77 51.60 11.77L51.60 11.77L51.60 11.77Q51.67 11.77 52.41 10.08L52.41 10.08L52.41 10.08Q53.14 8.39 53.86 6.54L53.86 6.54L53.86 6.54Q54.57 4.69 54.57 4.35L54.57 4.35L54.57 4.35Q54.57 4.13 54.41 4.01L54.41 4.01L54.41 4.01Q54.25 3.89 54.07 3.87L54.07 3.87L54.07 3.87Q53.89 3.85 53.72 3.80L53.72 3.80L53.72 3.80Q53.56 3.75 53.56 3.64L53.56 3.64L53.56 3.64Q53.56 3.54 53.61 3.52L53.61 3.52L53.61 3.52Q53.66 3.50 53.86 3.50L53.86 3.50L53.86 3.50Q53.90 3.50 54.18 3.51L54.18 3.51L54.18 3.51Q54.46 3.51 54.74 3.51L54.74 3.51L54.74 3.51Q54.99 3.51 55.31 3.50L55.31 3.50L55.31 3.50Q55.62 3.49 55.99 3.49L55.99 3.49L55.99 3.49Q56.25 3.49 56.25 3.68L56.25 3.68L56.25 3.68Q56.25 3.78 56.16 3.85L56.16 3.85L56.16 3.85Q56.07 3.92 55.94 3.98L55.94 3.98L55.94 3.98Q55.82 4.03 55.65 4.21L55.65 4.21L55.65 4.21Q55.48 4.40 55.36 4.69L55.36 4.69L52.23 11.80L52.23 11.80Q51.90 12.56 51.58 13.34L51.58 13.34L51.58 13.34Q51.42 13.72 51.38 13.79L51.38 13.79L51.38 13.79Q51.34 13.86 51.27 13.86L51.27 13.86L51.27 13.86Q51.02 13.86 50.64 12.89L50.64 12.89L50.64 12.89Q50.27 11.98 49.20 9.65L49.20 9.65L49.20 9.65Q48.66 8.48 48.23 7.50L48.23 7.50L48.23 7.50Q47.80 6.52 47.61 6.06L47.61 6.06L47.61 6.06Q47.42 5.60 47.26 5.24L47.26 5.24L47.26 5.24Q47.10 4.87 47.01 4.72L47.01 4.72L47.01 4.72Q46.93 4.56 46.82 4.44L46.82 4.44L46.82 4.44Q46.58 4.17 46.32 4.06L46.32 4.06L46.32 4.06Q46.06 3.95 45.90 3.96L45.90 3.96L45.90 3.96Q45.74 3.96 45.63 3.91L45.63 3.91L45.63 3.91Q45.51 3.86 45.51 3.70ZM63.81 3.65L63.81 3.65L63.81 3.65Q63.81 3.46 64.20 3.46L64.20 3.46L64.20 3.46Q64.26 3.46 64.39 3.47L64.39 3.47L64.39 3.47Q64.51 3.49 64.58 3.49L64.58 3.49L64.58 3.49Q64.62 3.49 65.90 3.52L65.90 3.52L65.90 3.52Q67.17 3.56 68.00 3.56L68.00 3.56L68.00 3.56Q68.29 3.56 69.45 3.53L69.45 3.53L69.45 3.53Q70.60 3.50 70.80 3.50L70.80 3.50L70.80 3.50Q71.06 3.50 71.06 3.82L71.06 3.82L71.06 3.82Q71.06 3.91 70.98 4.38L70.98 4.38L70.98 4.38Q70.90 4.84 70.90 5.25L70.90 5.25L70.90 5.25Q70.90 5.38 70.83 5.47L70.83 5.47L70.83 5.47Q70.76 5.56 70.67 5.56L70.67 5.56L70.67 5.56Q70.46 5.56 70.46 5.26L70.46 5.26L70.46 5.26Q70.46 4.89 70.22 4.58L70.22 4.58L70.22 4.58Q69.99 4.27 69.64 4.26L69.64 4.26L69.64 4.26Q68.38 4.16 67.70 4.16L67.70 4.16L67.34 4.16L67.34 4.16Q66.61 4.16 66.49 4.26L66.49 4.26L66.49 4.26Q66.37 4.37 66.35 5.01L66.35 5.01L66.35 5.01Q66.29 6.02 66.29 7.35L66.29 7.35L66.29 7.35Q66.29 8.05 66.56 8.06L66.56 8.06L66.91 8.06L67.49 8.06L67.93 8.06L67.93 8.06Q68.77 8.06 69.05 8.01L69.05 8.01L69.05 8.01Q69.33 7.95 69.55 7.80L69.55 7.80L69.55 7.80Q69.82 7.62 69.87 7.28L69.87 7.28L69.87 7.28Q69.92 7.04 70.07 7.04L70.07 7.04L70.07 7.04Q70.20 7.04 70.22 7.08L70.22 7.08L70.22 7.08Q70.25 7.13 70.25 7.27L70.25 7.27L70.25 7.27Q70.25 7.36 70.20 7.91L70.20 7.91L70.20 7.91Q70.14 8.46 70.14 8.74L70.14 8.74L70.14 8.74Q70.14 9.00 70.16 9.24L70.16 9.24L70.16 9.24Q70.18 9.48 70.18 9.59L70.18 9.59L70.18 9.59Q70.18 9.94 70.08 9.94L70.08 9.94L70.08 9.94Q69.87 9.94 69.78 9.60L69.78 9.60L69.78 9.60Q69.58 9.02 69.43 8.92L69.43 8.92L69.43 8.92Q69.13 8.72 68.08 8.72L68.08 8.72L68.08 8.72Q67.66 8.72 67.40 8.72L67.40 8.72L67.40 8.72Q67.14 8.72 67.07 8.71L67.07 8.71L67.07 8.71Q66.99 8.71 66.94 8.71L66.94 8.71L66.94 8.71Q66.89 8.71 66.85 8.71L66.85 8.71L66.85 8.71Q66.28 8.71 66.28 8.97L66.28 8.97L66.28 8.97Q66.28 9.38 66.26 9.99L66.26 9.99L66.26 9.99Q66.25 10.60 66.25 10.99L66.25 10.99L66.25 11.55L66.25 11.55Q66.25 12.56 66.58 12.66L66.58 12.66L66.58 12.66Q66.93 12.77 67.19 12.77L67.19 12.77L67.19 12.77Q68.24 12.77 69.03 12.67L69.03 12.67L69.03 12.67Q69.82 12.57 70.22 12.42L70.22 12.42L70.22 12.42Q70.62 12.28 70.88 12.10L70.88 12.10L70.88 12.10Q71.15 11.93 71.22 11.78L71.22 11.78L71.22 11.78Q71.30 11.63 71.38 11.54L71.38 11.54L71.38 11.54Q71.46 11.44 71.54 11.44L71.54 11.44L71.54 11.44Q71.71 11.44 71.71 11.68L71.71 11.68L71.71 11.68Q71.71 12.28 71.11 12.89L71.11 12.89L71.11 12.89Q70.50 13.51 70.06 13.51L70.06 13.51L70.06 13.51Q69.05 13.51 67.78 13.44L67.78 13.44L67.78 13.44Q66.51 13.37 66.21 13.37L66.21 13.37L66.21 13.37Q65.81 13.37 65.23 13.43L65.23 13.43L65.23 13.43Q64.64 13.50 64.30 13.50L64.30 13.50L64.30 13.50Q64.01 13.50 64.01 13.36L64.01 13.36L64.01 13.36Q64.01 13.23 64.01 13.19L64.01 13.19L64.01 13.19Q64.01 13.15 64.05 13.12L64.05 13.12L64.05 13.12Q64.09 13.09 64.14 13.08L64.14 13.08L64.14 13.08Q64.19 13.08 64.32 13.03L64.32 13.03L64.32 13.03Q64.46 12.99 64.61 12.92L64.61 12.92L64.61 12.92Q64.95 12.75 65.05 12.26L65.05 12.26L65.05 12.26Q65.16 11.77 65.16 10.21L65.16 10.21L65.16 8.47L65.16 8.47Q65.16 8.09 65.18 7.29L65.18 7.29L65.18 7.29Q65.20 6.50 65.20 6.05L65.20 6.05L65.20 6.05Q65.20 5.67 65.17 4.77L65.17 4.77L65.17 4.77Q65.16 4.37 64.82 4.14L64.82 4.14L64.82 4.14Q64.48 3.92 64.04 3.91L64.04 3.91L64.04 3.91Q63.81 3.91 63.81 3.65ZM79.27 3.65L79.27 3.65L79.27 3.65Q79.27 3.50 79.66 3.50L79.66 3.50L79.66 3.50Q79.80 3.50 80.30 3.53L80.30 3.53L80.30 3.53Q80.81 3.56 81.24 3.56L81.24 3.56L81.24 3.56Q81.51 3.56 81.75 3.54L81.75 3.54L81.75 3.54Q82.00 3.53 82.47 3.53L82.47 3.53L82.47 3.53Q82.78 3.53 82.78 3.72L82.78 3.72L82.78 3.72Q82.78 3.96 82.29 3.96L82.29 3.96L82.29 3.96Q82.01 3.96 81.89 4.54L81.89 4.54L81.89 4.54Q81.76 5.11 81.76 5.71L81.76 5.71L81.76 6.23L81.76 6.23Q81.76 6.57 81.75 6.99L81.75 6.99L81.75 6.99Q81.73 7.42 81.73 7.52L81.73 7.52L81.73 7.52Q81.73 7.87 81.82 7.97L81.82 7.97L81.82 7.97Q81.90 8.06 82.21 8.06L82.21 8.06L82.21 8.06Q82.24 8.06 82.75 8.06L82.75 8.06L82.75 8.06Q83.27 8.05 84.50 8.05L84.50 8.05L84.50 8.05Q84.62 8.05 84.88 8.06L84.88 8.06L84.88 8.06Q85.15 8.06 85.76 8.07L85.76 8.07L85.76 8.07Q86.37 8.08 87.15 8.08L87.15 8.08L87.15 8.08Q87.25 8.08 87.28 7.84L87.28 7.84L87.28 7.84Q87.30 7.56 87.30 6.13L87.30 6.13L87.30 5.38L87.30 5.38Q87.30 4.83 87.19 4.51L87.19 4.51L87.19 4.51Q87.07 4.19 86.89 4.09L86.89 4.09L86.89 4.09Q86.72 3.99 86.54 3.96L86.54 3.96L86.54 3.96Q86.37 3.93 86.25 3.88L86.25 3.88L86.25 3.88Q86.13 3.84 86.13 3.70L86.13 3.70L86.13 3.70Q86.13 3.56 86.67 3.56L86.67 3.56L86.67 3.56Q86.81 3.56 87.28 3.57L87.28 3.57L87.28 3.57Q87.74 3.58 88.03 3.58L88.03 3.58L88.03 3.58Q88.17 3.58 88.51 3.57L88.51 3.57L88.51 3.57Q88.84 3.56 89.12 3.56L89.12 3.56L89.12 3.56Q89.45 3.56 89.45 3.74L89.45 3.74L89.45 3.74Q89.45 3.92 89.25 3.92L89.25 3.92L89.25 3.92Q88.86 3.92 88.66 4.16L88.66 4.16L88.66 4.16Q88.45 4.40 88.45 4.79L88.45 4.79L88.45 4.79Q88.45 5.25 88.43 6.42L88.43 6.42L88.43 6.42Q88.41 7.59 88.41 8.19L88.41 8.19L88.41 8.19Q88.41 8.51 88.40 9.20L88.40 9.20L88.40 9.20Q88.38 9.90 88.38 10.29L88.38 10.29L88.38 10.81L88.38 10.81Q88.38 11.23 88.41 11.58L88.41 11.58L88.41 11.58Q88.44 11.94 88.44 12.10L88.44 12.10L88.44 12.10Q88.44 13.01 89.61 13.13L89.61 13.13L89.61 13.13Q89.78 13.13 89.78 13.29L89.78 13.29L89.78 13.29Q89.78 13.38 89.64 13.41L89.64 13.41L89.64 13.41Q89.50 13.44 89.10 13.44L89.10 13.44L89.10 13.44Q88.94 13.44 88.58 13.40L88.58 13.40L88.58 13.40Q88.23 13.37 88.02 13.37L88.02 13.37L88.02 13.37Q87.77 13.37 87.41 13.40L87.41 13.40L87.41 13.40Q87.05 13.44 86.70 13.44L86.70 13.44L86.70 13.44Q86.53 13.44 86.46 13.44L86.46 13.44L86.46 13.44Q86.39 13.44 86.32 13.42L86.32 13.42L86.32 13.42Q86.24 13.40 86.22 13.36L86.22 13.36L86.22 13.36Q86.20 13.33 86.20 13.26L86.20 13.26L86.20 13.26Q86.20 13.17 86.34 13.10L86.34 13.10L86.34 13.10Q86.48 13.03 86.65 12.99L86.65 12.99L86.65 12.99Q86.81 12.95 86.97 12.83L86.97 12.83L86.97 12.83Q87.14 12.71 87.16 12.53L87.16 12.53L87.16 12.53Q87.26 12.03 87.26 11.51L87.26 11.51L87.26 11.51Q87.26 11.37 87.27 11.12L87.27 11.12L87.27 11.12Q87.28 10.86 87.28 10.75L87.28 10.75L87.28 10.75Q87.28 10.50 87.29 9.93L87.29 9.93L87.29 9.93Q87.30 9.35 87.30 9.03L87.30 9.03L87.30 9.03Q87.30 8.82 87.14 8.74L87.14 8.74L87.14 8.74Q86.97 8.65 86.42 8.65L86.42 8.65L86.42 8.65Q86.21 8.65 85.46 8.68L85.46 8.68L84.70 8.69L84.70 8.69Q84.08 8.69 83.31 8.67L83.31 8.67L83.31 8.67Q82.54 8.65 82.12 8.65L82.12 8.65L82.12 8.65Q81.91 8.65 81.84 8.74L81.84 8.74L81.84 8.74Q81.77 8.82 81.77 9.17L81.77 9.17L81.77 9.17Q81.77 9.52 81.75 10.08L81.75 10.08L81.75 10.08Q81.72 10.64 81.72 10.89L81.72 10.89L81.72 11.49L81.72 11.49Q81.72 12.10 81.83 12.39L81.83 12.39L81.83 12.39Q81.94 12.68 82.38 12.96L82.38 12.96L82.38 12.96Q82.49 13.03 82.98 13.03L82.98 13.03L82.98 13.03Q83.08 13.03 83.16 13.08L83.16 13.08L83.16 13.08Q83.24 13.13 83.24 13.19L83.24 13.19L83.24 13.19Q83.24 13.44 82.80 13.44L82.80 13.44L82.80 13.44Q82.38 13.44 82.10 13.41L82.10 13.41L82.10 13.41Q81.83 13.38 81.63 13.38L81.63 13.38L81.63 13.38Q81.24 13.38 80.79 13.42L80.79 13.42L80.79 13.42Q80.35 13.45 80.12 13.45L80.12 13.45L80.12 13.45Q79.46 13.45 79.46 13.24L79.46 13.24L79.46 13.24Q79.46 13.12 79.60 13.07L79.60 13.07L79.60 13.07Q79.73 13.02 79.90 13.00L79.90 13.00L79.90 13.00Q80.07 12.98 80.25 12.82L80.25 12.82L80.25 12.82Q80.43 12.66 80.50 12.35L80.50 12.35L80.50 12.35Q80.54 12.11 80.61 10.91L80.61 10.91L80.61 10.91Q80.68 9.70 80.68 8.61L80.68 8.61L80.68 7.81L80.68 7.81Q80.68 7.63 80.69 7.12L80.69 7.12L80.69 7.12Q80.70 6.61 80.70 6.30L80.70 6.30L80.70 6.30Q80.70 5.24 80.61 4.63L80.61 4.63L80.61 4.63Q80.57 4.28 80.24 4.09L80.24 4.09L80.24 4.09Q79.91 3.89 79.56 3.89L79.56 3.89L79.56 3.89Q79.42 3.89 79.34 3.80L79.34 3.80L79.34 3.80Q79.27 3.71 79.27 3.65ZM98.62 2.87L98.62 2.87L98.62 2.87Q98.62 2.80 98.71 2.65L98.71 2.65L98.71 2.65Q98.81 2.51 99.08 2.00L99.08 2.00L99.08 2.00Q99.36 1.50 99.67 0.74L99.67 0.74L99.67 0.74Q99.78 0.48 99.96 0.48L99.96 0.48L99.96 0.48Q100.11 0.48 100.40 0.57L100.40 0.57L100.40 0.57Q100.69 0.66 100.69 0.84L100.69 0.84L100.69 0.84Q100.69 1.16 99.33 2.59L99.33 2.59L99.33 2.59Q98.92 3.02 98.78 3.02L98.78 3.02L98.78 3.02Q98.62 3.02 98.62 2.87ZM97.34 3.71L97.34 3.71L97.34 3.71Q97.34 3.50 97.73 3.50L97.73 3.50L97.73 3.50Q97.87 3.50 98.38 3.53L98.38 3.53L98.38 3.53Q98.88 3.56 99.32 3.56L99.32 3.56L99.32 3.56Q99.58 3.56 99.83 3.54L99.83 3.54L99.83 3.54Q100.07 3.53 100.55 3.53L100.55 3.53L100.55 3.53Q100.93 3.53 100.93 3.72L100.93 3.72L100.93 3.72Q100.93 3.84 100.28 4.10L100.28 4.10L100.28 4.10Q99.83 4.28 99.83 5.71L99.83 5.71L99.83 5.71Q99.83 7.60 99.81 9.05L99.81 9.05L99.81 9.05Q99.79 10.50 99.79 10.89L99.79 10.89L99.79 10.89Q99.79 12.07 100.14 12.59L100.14 12.59L100.14 12.59Q100.45 13.02 100.81 13.02L100.81 13.02L100.81 13.02Q100.84 13.02 100.95 13.03L100.95 13.03L100.95 13.03Q101.07 13.03 101.09 13.03L101.09 13.03L101.09 13.03Q101.19 13.03 101.29 13.08L101.29 13.08L101.29 13.08Q101.39 13.13 101.39 13.19L101.39 13.19L101.39 13.19Q101.39 13.34 101.31 13.39L101.31 13.39L101.31 13.39Q101.23 13.44 101.04 13.44L101.04 13.44L101.04 13.44Q100.62 13.44 100.26 13.41L100.26 13.41L100.26 13.41Q99.90 13.38 99.71 13.38L99.71 13.38L99.71 13.38Q99.32 13.38 98.85 13.42L98.85 13.42L98.85 13.42Q98.39 13.45 98.17 13.45L98.17 13.45L98.17 13.45Q97.54 13.45 97.54 13.24L97.54 13.24L97.54 13.24Q97.54 13.12 97.67 13.07L97.67 13.07L97.67 13.07Q97.80 13.02 97.97 13.00L97.97 13.00L97.97 13.00Q98.14 12.98 98.32 12.82L98.32 12.82L98.32 12.82Q98.50 12.66 98.57 12.35L98.57 12.35L98.57 12.35Q98.60 12.25 98.66 10.76L98.66 10.76L98.66 10.76Q98.73 9.27 98.73 8.61L98.73 8.61L98.73 7.81L98.73 7.81Q98.73 7.63 98.73 7.12L98.73 7.12L98.73 7.12Q98.74 6.61 98.74 6.30L98.74 6.30L98.74 5.66L98.74 5.66Q98.74 5.04 98.69 4.63L98.69 4.63L98.69 4.63Q98.64 4.30 98.31 4.12L98.31 4.12L98.31 4.12Q97.99 3.93 97.64 3.92L97.64 3.92L97.64 3.92Q97.34 3.91 97.34 3.71ZM109.27 8.90L109.27 8.90L109.27 8.90Q109.27 7.38 109.86 6.16L109.86 6.16L109.86 6.16Q110.45 4.94 111.67 4.19L111.67 4.19L111.67 4.19Q112.90 3.44 114.58 3.44L114.58 3.44L114.58 3.44Q115.43 3.44 116.30 3.70L116.30 3.70L116.30 3.70Q117.17 3.95 117.68 4.20L117.68 4.20L118.20 4.47L118.20 4.47Q118.24 4.47 118.34 4.40L118.34 4.40L118.34 4.40Q118.44 4.33 118.50 4.33L118.50 4.33L118.50 4.33Q118.57 4.33 118.64 4.38L118.64 4.38L118.64 4.38Q118.71 4.44 118.71 4.55L118.71 4.55L118.71 4.55Q118.72 4.96 118.77 5.41L118.77 5.41L118.77 5.41Q118.82 5.87 118.86 6.16L118.86 6.16L118.86 6.16Q118.90 6.45 118.90 6.51L118.90 6.51L118.90 6.51Q118.90 6.76 118.73 6.76L118.73 6.76L118.73 6.76Q118.61 6.76 118.50 6.57L118.50 6.57L118.50 6.57Q117.14 4.02 114.58 4.02L114.58 4.02L114.58 4.02Q112.83 4.02 111.71 5.14L111.71 5.14L111.71 5.14Q110.59 6.26 110.59 8.06L110.59 8.06L110.59 8.06Q110.59 9.06 110.84 9.93L110.84 9.93L110.84 9.93Q111.10 10.79 111.63 11.51L111.63 11.51L111.63 11.51Q112.15 12.24 113.08 12.66L113.08 12.66L113.08 12.66Q114.00 13.08 115.23 13.08L115.23 13.08L115.23 13.08Q117.25 13.08 118.62 10.98L118.62 10.98L118.62 10.98Q118.68 10.88 118.83 10.88L118.83 10.88L118.83 10.88Q118.96 10.88 118.96 11.07L118.96 11.07L118.96 11.07Q118.96 11.23 118.91 11.49L118.91 11.49L118.91 11.49Q118.86 11.75 118.79 12.06L118.79 12.06L118.79 12.06Q118.72 12.38 118.71 12.45L118.71 12.45L118.71 12.45Q118.68 12.60 118.48 12.70L118.48 12.70L118.48 12.70Q117.73 13.06 117.30 13.24L117.30 13.24L117.30 13.24Q116.87 13.43 116.21 13.57L116.21 13.57L116.21 13.57Q115.56 13.72 114.87 13.72L114.87 13.72L114.87 13.72Q113.65 13.72 112.67 13.43L112.67 13.43L112.67 13.43Q111.69 13.13 111.07 12.66L111.07 12.66L111.07 12.66Q110.45 12.18 110.03 11.54L110.03 11.54L110.03 11.54Q109.61 10.91 109.44 10.25L109.44 10.25L109.44 10.25Q109.27 9.60 109.27 8.90ZM127.23 3.68L127.23 3.68L127.23 3.68Q127.23 3.61 127.25 3.58L127.25 3.58L127.25 3.58Q127.26 3.56 127.33 3.53L127.33 3.53L127.33 3.53Q127.40 3.50 127.55 3.50L127.55 3.50L127.55 3.50Q127.71 3.50 128.20 3.53L128.20 3.53L128.20 3.53Q128.69 3.56 129.14 3.56L129.14 3.56L129.14 3.56Q129.42 3.56 129.65 3.54L129.65 3.54L129.65 3.54Q129.88 3.53 130.45 3.53L130.45 3.53L130.45 3.53Q130.75 3.53 130.75 3.72L130.75 3.72L130.75 3.72Q130.75 3.85 130.65 3.88L130.65 3.88L130.65 3.88Q130.55 3.91 130.40 3.92L130.40 3.92L130.40 3.92Q130.26 3.93 130.11 4.02L130.11 4.02L130.11 4.02Q129.96 4.10 129.86 4.43L129.86 4.43L129.86 4.43Q129.77 4.76 129.77 5.32L129.77 5.32L129.77 5.71L129.77 5.71Q129.77 6.37 129.76 7.37L129.76 7.37L129.76 7.37Q129.75 8.37 129.75 8.74L129.75 8.74L129.75 8.74Q129.75 9.17 129.76 9.39L129.76 9.39L129.76 9.39Q129.77 9.62 129.79 10.04L129.79 10.04L129.79 10.04Q129.82 10.47 129.87 10.72L129.87 10.72L129.87 10.72Q129.92 10.96 130.03 11.32L130.03 11.32L130.03 11.32Q130.14 11.68 130.31 11.89L130.31 11.89L130.31 11.89Q130.47 12.10 130.71 12.35L130.71 12.35L130.71 12.35Q130.96 12.60 131.28 12.73L131.28 12.73L131.28 12.73Q131.60 12.87 132.03 12.96L132.03 12.96L132.03 12.96Q132.47 13.05 133 13.05L133 13.05L133 13.05Q133.45 13.05 133.70 13.03L133.70 13.03L133.70 13.03Q133.95 13.02 134.39 12.94L134.39 12.94L134.39 12.94Q134.83 12.87 135.09 12.72L135.09 12.72L135.09 12.72Q135.35 12.57 135.68 12.27L135.68 12.27L135.68 12.27Q136.01 11.97 136.19 11.54L136.19 11.54L136.19 11.54Q136.37 11.10 136.50 10.43L136.50 10.43L136.50 10.43Q136.63 9.76 136.63 8.90L136.63 8.90L136.63 8.90Q136.63 7.49 136.62 6.75L136.62 6.75L136.62 6.75Q136.61 6.01 136.61 5.94L136.61 5.94L136.61 5.94Q136.61 5.45 136.59 5.17L136.59 5.17L136.59 5.17Q136.57 4.89 136.45 4.55L136.45 4.55L136.45 4.55Q136.33 4.21 136.11 4.06L136.11 4.06L136.11 4.06Q135.97 3.96 135.74 3.93L135.74 3.93L135.74 3.93Q135.52 3.89 135.38 3.87L135.38 3.87L135.38 3.87Q135.24 3.85 135.24 3.75L135.24 3.75L135.24 3.75Q135.24 3.53 135.52 3.53L135.52 3.53L135.52 3.53Q135.60 3.53 136.07 3.54L136.07 3.54L136.07 3.54Q136.53 3.56 136.60 3.56L136.60 3.56L136.60 3.56Q136.93 3.56 137.31 3.54L137.31 3.54L137.31 3.54Q137.69 3.51 137.79 3.51L137.79 3.51L137.79 3.51Q138.08 3.51 138.08 3.70L138.08 3.70L138.08 3.70Q138.08 3.81 137.78 3.98L137.78 3.98L137.78 3.98Q137.48 4.16 137.41 4.30L137.41 4.30L137.41 4.30Q137.26 4.59 137.26 5.22L137.26 5.22L137.26 5.22Q137.26 5.32 137.26 5.62L137.26 5.62L137.26 5.62Q137.27 5.92 137.27 6.16L137.27 6.16L137.27 6.16Q137.27 8.85 137.05 10.28L137.05 10.28L137.05 10.28Q136.82 11.70 136.37 12.36L136.37 12.36L136.37 12.36Q135.91 13.01 135.00 13.40L135.00 13.40L135.00 13.40Q134.26 13.71 133 13.71L133 13.71L133 13.71Q130.66 13.71 129.68 12.81L129.68 12.81L129.68 12.81Q128.91 12.10 128.73 11.09L128.73 11.09L128.73 11.09Q128.55 10.09 128.55 7.64L128.55 7.64L128.55 7.41L128.55 7.41Q128.55 6.86 128.56 6.20L128.56 6.20L128.56 6.20Q128.58 5.54 128.58 5.39L128.58 5.39L128.58 5.39Q128.58 4.62 128.39 4.33L128.39 4.33L128.39 4.33Q128.21 4.05 127.54 3.95L127.54 3.95L127.54 3.95Q127.23 3.91 127.23 3.68ZM145.64 3.71L145.64 3.71L145.64 3.71Q145.64 3.46 146.02 3.46L146.02 3.46L146.02 3.46Q146.08 3.46 146.20 3.47L146.20 3.47L146.20 3.47Q146.33 3.49 146.40 3.49L146.40 3.49L146.40 3.49Q146.54 3.49 146.92 3.51L146.92 3.51L146.92 3.51Q147.31 3.54 147.62 3.54L147.62 3.54L147.62 3.54Q148.05 3.54 148.54 3.51L148.54 3.51L148.54 3.51Q149.03 3.49 149.09 3.49L149.09 3.49L149.09 3.49Q149.32 3.49 149.32 3.63L149.32 3.63L149.32 3.63Q149.32 3.82 149.16 3.88L149.16 3.88L149.16 3.88Q148.99 3.95 148.78 3.97L148.78 3.97L148.78 3.97Q148.58 3.99 148.39 4.28L148.39 4.28L148.39 4.28Q148.20 4.56 148.18 5.14L148.18 5.14L148.18 5.14Q148.15 5.68 148.11 8.19L148.11 8.19L148.11 8.19Q148.06 10.70 148.06 10.99L148.06 10.99L148.06 11.55L148.06 11.55Q148.06 12.56 148.40 12.66L148.40 12.66L148.40 12.66Q148.75 12.77 149.00 12.77L149.00 12.77L149.00 12.77Q150.05 12.77 150.84 12.67L150.84 12.67L150.84 12.67Q151.63 12.57 152.03 12.42L152.03 12.42L152.03 12.42Q152.43 12.28 152.70 12.10L152.70 12.10L152.70 12.10Q152.96 11.93 153.04 11.78L153.04 11.78L153.04 11.78Q153.12 11.63 153.19 11.54L153.19 11.54L153.19 11.54Q153.27 11.44 153.36 11.44L153.36 11.44L153.36 11.44Q153.52 11.44 153.52 11.68L153.52 11.68L153.52 11.68Q153.52 12.28 152.92 12.89L152.92 12.89L152.92 12.89Q152.32 13.51 151.87 13.51L151.87 13.51L151.87 13.51Q150.86 13.51 149.60 13.44L149.60 13.44L149.60 13.44Q148.33 13.37 148.02 13.37L148.02 13.37L148.02 13.37Q147.63 13.37 147.12 13.43L147.12 13.43L147.12 13.43Q146.61 13.48 146.27 13.48L146.27 13.48L146.27 13.48Q145.87 13.48 145.87 13.31L145.87 13.31L145.87 13.31Q145.87 13.22 145.94 13.15L145.94 13.15L145.94 13.15Q146.02 13.09 146.09 13.09L146.09 13.09L146.09 13.09Q146.30 13.09 146.50 12.95L146.50 12.95L146.50 12.95Q146.75 12.75 146.86 12.23L146.86 12.23L146.86 12.23Q146.97 11.70 146.97 10.21L146.97 10.21L146.97 8.47L146.97 8.47Q146.97 8.09 146.99 7.29L146.99 7.29L146.99 7.29Q147.01 6.50 147.01 6.05L147.01 6.05L147.01 6.05Q147.01 5.67 146.99 4.77L146.99 4.77L146.99 4.77Q146.97 4.37 146.64 4.14L146.64 4.14L146.64 4.14Q146.30 3.92 145.85 3.91L145.85 3.91L145.85 3.91Q145.71 3.91 145.68 3.86L145.68 3.86L145.68 3.86Q145.64 3.81 145.64 3.71ZM161.42 8.69L161.42 8.69L161.42 8.69Q161.42 6.34 162.83 4.84L162.83 4.84L162.83 4.84Q164.25 3.33 166.84 3.33L166.84 3.33L166.84 3.33Q168.04 3.33 169.01 3.68L169.01 3.68L169.01 3.68Q169.97 4.03 170.53 4.54L170.53 4.54L170.53 4.54Q171.09 5.05 171.47 5.71L171.47 5.71L171.47 5.71Q171.85 6.37 171.99 6.92L171.99 6.92L171.99 6.92Q172.13 7.48 172.13 7.95L172.13 7.95L172.13 7.95Q172.13 9.86 171.39 11.16L171.39 11.16L171.39 11.16Q170.65 12.47 169.44 13.07L169.44 13.07L169.44 13.07Q168.22 13.66 166.64 13.66L166.64 13.66L166.64 13.66Q164.98 13.66 163.77 12.94L163.77 12.94L163.77 12.94Q162.55 12.21 161.99 11.10L161.99 11.10L161.99 11.10Q161.42 10.00 161.42 8.69ZM162.65 7.98L162.65 7.98L162.65 7.98Q162.65 8.54 162.81 9.19L162.81 9.19L162.81 9.19Q162.96 9.84 163.31 10.54L163.31 10.54L163.31 10.54Q163.66 11.23 164.16 11.78L164.16 11.78L164.16 11.78Q164.65 12.33 165.42 12.69L165.42 12.69L165.42 12.69Q166.18 13.05 167.09 13.05L167.09 13.05L167.09 13.05Q167.57 13.05 168.09 12.90L168.09 12.90L168.09 12.90Q168.62 12.75 169.13 12.45L169.13 12.45L169.13 12.45Q169.65 12.14 170.06 11.70L170.06 11.70L170.06 11.70Q170.46 11.26 170.72 10.62L170.72 10.62L170.72 10.62Q170.98 9.98 170.98 9.24L170.98 9.24L170.98 9.24Q170.98 6.71 169.65 5.30L169.65 5.30L169.65 5.30Q168.32 3.89 166.36 3.89L166.36 3.89L166.36 3.89Q164.82 3.89 163.74 4.93L163.74 4.93L163.74 4.93Q162.65 5.96 162.65 7.98ZM190.01 3.65L190.01 3.65L190.01 3.65Q190.01 3.46 190.40 3.46L190.40 3.46L190.40 3.46Q190.46 3.46 190.58 3.47L190.58 3.47L190.58 3.47Q190.71 3.49 190.78 3.49L190.78 3.49L190.78 3.49Q190.82 3.49 192.09 3.52L192.09 3.52L192.09 3.52Q193.37 3.56 194.19 3.56L194.19 3.56L194.19 3.56Q194.49 3.56 195.64 3.53L195.64 3.53L195.64 3.53Q196.80 3.50 196.99 3.50L196.99 3.50L196.99 3.50Q197.26 3.50 197.26 3.82L197.26 3.82L197.26 3.82Q197.26 3.91 197.18 4.38L197.18 4.38L197.18 4.38Q197.09 4.84 197.09 5.25L197.09 5.25L197.09 5.25Q197.09 5.38 197.02 5.47L197.02 5.47L197.02 5.47Q196.95 5.56 196.87 5.56L196.87 5.56L196.87 5.56Q196.66 5.56 196.66 5.26L196.66 5.26L196.66 5.26Q196.66 4.89 196.42 4.58L196.42 4.58L196.42 4.58Q196.18 4.27 195.83 4.26L195.83 4.26L195.83 4.26Q194.57 4.16 193.90 4.16L193.90 4.16L193.54 4.16L193.54 4.16Q192.81 4.16 192.69 4.26L192.69 4.26L192.69 4.26Q192.57 4.37 192.54 5.01L192.54 5.01L192.54 5.01Q192.49 6.02 192.49 7.35L192.49 7.35L192.49 7.35Q192.49 8.05 192.75 8.06L192.75 8.06L193.10 8.06L193.69 8.06L194.12 8.06L194.12 8.06Q194.96 8.06 195.24 8.01L195.24 8.01L195.24 8.01Q195.52 7.95 195.75 7.80L195.75 7.80L195.75 7.80Q196.01 7.62 196.07 7.28L196.07 7.28L196.07 7.28Q196.11 7.04 196.27 7.04L196.27 7.04L196.27 7.04Q196.39 7.04 196.42 7.08L196.42 7.08L196.42 7.08Q196.45 7.13 196.45 7.27L196.45 7.27L196.45 7.27Q196.45 7.36 196.39 7.91L196.39 7.91L196.39 7.91Q196.34 8.46 196.34 8.74L196.34 8.74L196.34 8.74Q196.34 9.00 196.36 9.24L196.36 9.24L196.36 9.24Q196.38 9.48 196.38 9.59L196.38 9.59L196.38 9.59Q196.38 9.94 196.28 9.94L196.28 9.94L196.28 9.94Q196.07 9.94 195.97 9.60L195.97 9.60L195.97 9.60Q195.78 9.02 195.62 8.92L195.62 8.92L195.62 8.92Q195.33 8.72 194.28 8.72L194.28 8.72L194.28 8.72Q193.86 8.72 193.60 8.72L193.60 8.72L193.60 8.72Q193.34 8.72 193.26 8.71L193.26 8.71L193.26 8.71Q193.19 8.71 193.14 8.71L193.14 8.71L193.14 8.71Q193.09 8.71 193.05 8.71L193.05 8.71L193.05 8.71Q192.47 8.71 192.47 8.97L192.47 8.97L192.47 8.97Q192.47 9.38 192.46 9.99L192.46 9.99L192.46 9.99Q192.44 10.60 192.44 10.99L192.44 10.99L192.44 11.55L192.44 11.55Q192.44 12.56 192.78 12.66L192.78 12.66L192.78 12.66Q193.13 12.77 193.38 12.77L193.38 12.77L193.38 12.77Q194.43 12.77 195.22 12.67L195.22 12.67L195.22 12.67Q196.01 12.57 196.41 12.42L196.41 12.42L196.41 12.42Q196.81 12.28 197.08 12.10L197.08 12.10L197.08 12.10Q197.34 11.93 197.42 11.78L197.42 11.78L197.42 11.78Q197.50 11.63 197.58 11.54L197.58 11.54L197.58 11.54Q197.65 11.44 197.74 11.44L197.74 11.44L197.74 11.44Q197.90 11.44 197.90 11.68L197.90 11.68L197.90 11.68Q197.90 12.28 197.30 12.89L197.30 12.89L197.30 12.89Q196.70 13.51 196.25 13.51L196.25 13.51L196.25 13.51Q195.24 13.51 193.98 13.44L193.98 13.44L193.98 13.44Q192.71 13.37 192.40 13.37L192.40 13.37L192.40 13.37Q192.01 13.37 191.42 13.43L191.42 13.43L191.42 13.43Q190.83 13.50 190.50 13.50L190.50 13.50L190.50 13.50Q190.20 13.50 190.20 13.36L190.20 13.36L190.20 13.36Q190.20 13.23 190.20 13.19L190.20 13.19L190.20 13.19Q190.20 13.15 190.25 13.12L190.25 13.12L190.25 13.12Q190.29 13.09 190.34 13.08L190.34 13.08L190.34 13.08Q190.39 13.08 190.52 13.03L190.52 13.03L190.52 13.03Q190.65 12.99 190.81 12.92L190.81 12.92L190.81 12.92Q191.14 12.75 191.25 12.26L191.25 12.26L191.25 12.26Q191.35 11.77 191.35 10.21L191.35 10.21L191.35 8.47L191.35 8.47Q191.35 8.09 191.37 7.29L191.37 7.29L191.37 7.29Q191.39 6.50 191.39 6.05L191.39 6.05L191.39 6.05Q191.39 5.67 191.37 4.77L191.37 4.77L191.37 4.77Q191.35 4.37 191.02 4.14L191.02 4.14L191.02 4.14Q190.68 3.92 190.23 3.91L190.23 3.91L190.23 3.91Q190.01 3.91 190.01 3.65ZM205.46 3.77L205.46 3.77L205.46 3.77Q205.46 3.68 205.56 3.60L205.56 3.60L205.56 3.60Q205.66 3.53 205.81 3.53L205.81 3.53L205.81 3.53Q205.90 3.53 206.09 3.54L206.09 3.54L206.09 3.54Q206.29 3.54 206.35 3.54L206.35 3.54L206.35 3.54Q206.56 3.54 206.74 3.53L206.74 3.53L206.74 3.53Q206.92 3.51 207.03 3.51L207.03 3.51L207.03 3.51Q207.16 3.51 207.33 3.59L207.33 3.59L207.33 3.59Q207.49 3.67 207.52 3.75L207.52 3.75L207.52 3.75Q207.55 3.79 207.68 3.94L207.68 3.94L207.68 3.94Q207.80 4.09 208.01 4.33L208.01 4.33L208.01 4.33Q208.22 4.56 208.39 4.79L208.39 4.79L208.39 4.79Q210.29 7.27 213.49 10.77L213.49 10.77L213.49 10.77Q213.57 10.86 213.69 10.99L213.69 10.99L213.69 10.99Q213.81 11.12 213.86 11.18L213.86 11.18L213.86 11.18Q213.91 11.24 213.96 11.30L213.96 11.30L213.96 11.30Q214.02 11.35 214.05 11.38L214.05 11.38L214.05 11.38Q214.09 11.40 214.12 11.40L214.12 11.40L214.12 11.40Q214.26 11.40 214.26 10.53L214.26 10.53L214.26 8.89L214.26 8.89Q214.26 7.95 214.25 7.31L214.25 7.31L214.25 7.31Q214.24 6.66 214.23 6.38L214.23 6.38L214.23 6.38Q214.23 6.09 214.23 6.02L214.23 6.02L214.23 5.92L214.23 5.92Q214.23 5.45 214.16 5.11L214.16 5.11L214.16 5.11Q214.10 4.77 214.02 4.59L214.02 4.59L214.02 4.59Q213.93 4.41 213.77 4.28L213.77 4.28L213.77 4.28Q213.61 4.16 213.50 4.12L213.50 4.12L213.50 4.12Q213.39 4.09 213.18 4.05L213.18 4.05L213.18 4.05Q212.97 4.00 212.88 3.98L212.88 3.98L212.88 3.98Q212.60 3.89 212.60 3.74L212.60 3.74L212.60 3.74Q212.60 3.53 212.87 3.53L212.87 3.53L212.87 3.53Q212.95 3.53 213.54 3.54L213.54 3.54L213.54 3.54Q214.13 3.54 214.20 3.54L214.20 3.54L214.20 3.54Q214.54 3.54 214.95 3.53L214.95 3.53L214.95 3.53Q215.36 3.51 215.46 3.51L215.46 3.51L215.46 3.51Q215.70 3.51 215.79 3.56L215.79 3.56L215.79 3.56Q215.88 3.61 215.88 3.75L215.88 3.75L215.88 3.75Q215.88 3.81 215.80 3.86L215.80 3.86L215.80 3.86Q215.73 3.91 215.64 3.94L215.64 3.94L215.64 3.94Q215.56 3.98 215.47 4.00L215.47 4.00L215.39 4.03L215.39 4.03Q214.93 4.28 214.93 5.61L214.93 5.61L214.93 6.15L214.93 6.15Q214.93 7.21 214.85 9.83L214.85 9.83L214.85 9.83Q214.77 12.46 214.77 13.08L214.77 13.08L214.77 13.36L214.77 13.36Q214.77 13.68 214.58 13.68L214.58 13.68L214.58 13.68Q214.45 13.68 214.35 13.58L214.35 13.58L214.35 13.58Q209.71 8.19 208.80 7.17L208.80 7.17L208.80 7.17Q207.90 6.16 207.80 6.16L207.80 6.16L207.80 6.16Q207.66 6.16 207.66 7.11L207.66 7.11L207.66 7.11Q207.66 8.44 207.61 9.97L207.61 9.97L207.61 9.97Q207.55 11.51 207.55 11.65L207.55 11.65L207.55 11.65Q207.55 12.28 207.77 12.61L207.77 12.61L207.77 12.61Q207.98 12.94 208.24 12.98L208.24 12.98L208.24 12.98Q208.49 13.02 208.70 13.07L208.70 13.07L208.70 13.07Q208.92 13.12 208.92 13.26L208.92 13.26L208.92 13.26Q208.92 13.41 208.87 13.45L208.87 13.45L208.87 13.45Q208.82 13.50 208.70 13.50L208.70 13.50L208.70 13.50Q208.60 13.50 208.26 13.48L208.26 13.48L208.26 13.48Q207.91 13.47 207.20 13.47L207.20 13.47L207.20 13.47Q207.07 13.47 206.68 13.48L206.68 13.48L206.68 13.48Q206.29 13.50 206.01 13.50L206.01 13.50L206.01 13.50Q205.70 13.50 205.70 13.27L205.70 13.27L205.70 13.27Q205.70 13.15 205.88 13.11L205.88 13.11L205.88 13.11Q206.07 13.08 206.33 12.89L206.33 12.89L206.33 12.89Q206.60 12.71 206.74 12.21L206.74 12.21L206.74 12.21Q206.82 11.89 206.95 9.60L206.95 9.60L206.95 9.60Q207.07 7.32 207.07 6.45L207.07 6.45L207.07 6.45Q207.07 5.25 206.74 4.65L206.74 4.65L206.74 4.65Q206.40 4.06 205.65 3.98L205.65 3.98L205.65 3.98Q205.46 3.96 205.46 3.77ZM233.62 5.32L233.62 5.32L233.62 5.32Q233.62 4.76 233.76 3.88L233.76 3.88L233.76 3.88Q233.76 3.85 233.76 3.78L233.76 3.78L233.76 3.78Q233.77 3.71 233.78 3.69L233.78 3.69L233.78 3.69Q233.79 3.67 233.79 3.62L233.79 3.62L233.79 3.62Q233.80 3.57 233.81 3.55L233.81 3.55L233.81 3.55Q233.83 3.53 233.85 3.49L233.85 3.49L233.85 3.49Q233.87 3.46 233.90 3.44L233.90 3.44L233.90 3.44Q233.93 3.43 233.97 3.42L233.97 3.42L233.97 3.42Q234.01 3.40 234.07 3.39L234.07 3.39L234.07 3.39Q234.12 3.39 234.19 3.39L234.19 3.39L234.19 3.39Q234.42 3.39 235.38 3.44L235.38 3.44L235.38 3.44Q236.33 3.50 238.14 3.50L238.14 3.50L238.14 3.50Q241.22 3.50 242.45 3.43L242.45 3.43L242.45 3.43Q242.47 3.43 242.50 3.42L242.50 3.42L242.50 3.42Q242.54 3.42 242.55 3.42L242.55 3.42L242.55 3.42Q242.70 3.42 242.76 3.50L242.76 3.50L242.76 3.50Q242.82 3.58 242.82 3.65L242.82 3.65L242.82 3.65Q242.82 3.75 242.86 4.24L242.86 4.24L242.86 4.24Q242.90 4.73 242.90 4.79L242.90 4.79L242.90 4.79Q242.90 5.14 242.86 5.23L242.86 5.23L242.86 5.23Q242.82 5.32 242.68 5.32L242.68 5.32L242.68 5.32Q242.56 5.32 242.52 5.15L242.52 5.15L242.52 5.15Q242.41 4.75 242.33 4.60L242.33 4.60L242.33 4.60Q242.24 4.45 241.96 4.34L241.96 4.34L241.96 4.34Q241.68 4.23 241.11 4.23L241.11 4.23L239.29 4.23L239.29 4.23Q238.95 4.23 238.88 4.36L238.88 4.36L238.88 4.36Q238.80 4.49 238.80 5.12L238.80 5.12L238.80 5.81L238.80 5.81Q238.80 7.69 238.78 9.11L238.78 9.11L238.78 9.11Q238.76 10.54 238.76 10.93L238.76 10.93L238.76 10.93Q238.76 11.13 238.75 11.43L238.75 11.43L238.75 11.43Q238.74 11.73 238.74 11.84L238.74 11.84L238.74 11.84Q238.74 12.45 238.94 12.64L238.94 12.64L238.94 12.64Q239.12 12.81 239.34 12.90L239.34 12.90L239.34 12.90Q239.57 12.99 239.73 13.01L239.73 13.01L239.73 13.01Q239.89 13.02 240.00 13.08L240.00 13.08L240.00 13.08Q240.11 13.13 240.11 13.26L240.11 13.26L240.11 13.26Q240.11 13.41 240.04 13.45L240.04 13.45L240.04 13.45Q239.97 13.50 239.78 13.50L239.78 13.50L239.78 13.50Q239.61 13.50 239.04 13.44L239.04 13.44L239.04 13.44Q238.46 13.38 238.22 13.38L238.22 13.38L238.22 13.38Q238.06 13.38 237.54 13.43L237.54 13.43L237.54 13.43Q237.03 13.48 236.80 13.48L236.80 13.48L236.80 13.48Q236.28 13.48 236.28 13.26L236.28 13.26L236.28 13.26Q236.28 13.12 236.36 13.07L236.36 13.07L236.36 13.07Q236.45 13.02 236.69 12.98L236.69 12.98L236.69 12.98Q236.94 12.95 237.01 12.94L237.01 12.94L237.01 12.94Q237.48 12.82 237.54 12.38L237.54 12.38L237.54 12.38Q237.68 11.14 237.68 7.08L237.68 7.08L237.66 4.58L237.66 4.58Q237.66 4.31 237.51 4.25L237.51 4.25L237.51 4.25Q237.36 4.19 236.60 4.19L236.60 4.19L236.60 4.19Q235.62 4.19 235.12 4.24L235.12 4.24L235.12 4.24Q234.63 4.30 234.54 4.35L234.54 4.35L234.54 4.35Q234.46 4.40 234.35 4.54L234.35 4.54L234.35 4.54Q234.22 4.70 234.14 4.91L234.14 4.91L234.14 4.91Q234.07 5.11 234.04 5.24L234.04 5.24L234.04 5.24Q234.02 5.38 233.96 5.47L233.96 5.47L233.96 5.47Q233.90 5.56 233.77 5.56L233.77 5.56L233.77 5.56Q233.62 5.56 233.62 5.32ZM250.46 3.68L250.46 3.68L250.46 3.68Q250.46 3.61 250.47 3.58L250.47 3.58L250.47 3.58Q250.49 3.56 250.56 3.53L250.56 3.53L250.56 3.53Q250.63 3.50 250.78 3.50L250.78 3.50L250.78 3.50Q250.94 3.50 251.43 3.53L251.43 3.53L251.43 3.53Q251.92 3.56 252.36 3.56L252.36 3.56L252.36 3.56Q252.64 3.56 252.88 3.54L252.88 3.54L252.88 3.54Q253.11 3.53 253.68 3.53L253.68 3.53L253.68 3.53Q253.97 3.53 253.97 3.72L253.97 3.72L253.97 3.72Q253.97 3.85 253.88 3.88L253.88 3.88L253.88 3.88Q253.78 3.91 253.63 3.92L253.63 3.92L253.63 3.92Q253.48 3.93 253.34 4.02L253.34 4.02L253.34 4.02Q253.19 4.10 253.09 4.43L253.09 4.43L253.09 4.43Q252.99 4.76 252.99 5.32L252.99 5.32L252.99 5.71L252.99 5.71Q252.99 6.37 252.99 7.37L252.99 7.37L252.99 7.37Q252.98 8.37 252.98 8.74L252.98 8.74L252.98 8.74Q252.98 9.17 252.99 9.39L252.99 9.39L252.99 9.39Q252.99 9.62 253.02 10.04L253.02 10.04L253.02 10.04Q253.05 10.47 253.10 10.72L253.10 10.72L253.10 10.72Q253.15 10.96 253.26 11.32L253.26 11.32L253.26 11.32Q253.37 11.68 253.53 11.89L253.53 11.89L253.53 11.89Q253.69 12.10 253.94 12.35L253.94 12.35L253.94 12.35Q254.18 12.60 254.51 12.73L254.51 12.73L254.51 12.73Q254.83 12.87 255.26 12.96L255.26 12.96L255.26 12.96Q255.70 13.05 256.23 13.05L256.23 13.05L256.23 13.05Q256.68 13.05 256.93 13.03L256.93 13.03L256.93 13.03Q257.18 13.02 257.62 12.94L257.62 12.94L257.62 12.94Q258.06 12.87 258.32 12.72L258.32 12.72L258.32 12.72Q258.58 12.57 258.91 12.27L258.91 12.27L258.91 12.27Q259.24 11.97 259.42 11.54L259.42 11.54L259.42 11.54Q259.60 11.10 259.73 10.43L259.73 10.43L259.73 10.43Q259.85 9.76 259.85 8.90L259.85 8.90L259.85 8.90Q259.85 7.49 259.85 6.75L259.85 6.75L259.85 6.75Q259.84 6.01 259.84 5.94L259.84 5.94L259.84 5.94Q259.84 5.45 259.82 5.17L259.82 5.17L259.82 5.17Q259.80 4.89 259.68 4.55L259.68 4.55L259.68 4.55Q259.56 4.21 259.34 4.06L259.34 4.06L259.34 4.06Q259.20 3.96 258.97 3.93L258.97 3.93L258.97 3.93Q258.75 3.89 258.61 3.87L258.61 3.87L258.61 3.87Q258.47 3.85 258.47 3.75L258.47 3.75L258.47 3.75Q258.47 3.53 258.75 3.53L258.75 3.53L258.75 3.53Q258.83 3.53 259.29 3.54L259.29 3.54L259.29 3.54Q259.76 3.56 259.83 3.56L259.83 3.56L259.83 3.56Q260.16 3.56 260.54 3.54L260.54 3.54L260.54 3.54Q260.92 3.51 261.02 3.51L261.02 3.51L261.02 3.51Q261.31 3.51 261.31 3.70L261.31 3.70L261.31 3.70Q261.31 3.81 261.01 3.98L261.01 3.98L261.01 3.98Q260.71 4.16 260.64 4.30L260.64 4.30L260.64 4.30Q260.48 4.59 260.48 5.22L260.48 5.22L260.48 5.22Q260.48 5.32 260.49 5.62L260.49 5.62L260.49 5.62Q260.50 5.92 260.50 6.16L260.50 6.16L260.50 6.16Q260.50 8.85 260.27 10.28L260.27 10.28L260.27 10.28Q260.05 11.70 259.60 12.36L259.60 12.36L259.60 12.36Q259.14 13.01 258.23 13.40L258.23 13.40L258.23 13.40Q257.49 13.71 256.23 13.71L256.23 13.71L256.23 13.71Q253.89 13.71 252.91 12.81L252.91 12.81L252.91 12.81Q252.14 12.10 251.96 11.09L251.96 11.09L251.96 11.09Q251.78 10.09 251.78 7.64L251.78 7.64L251.78 7.41L251.78 7.41Q251.78 6.86 251.79 6.20L251.79 6.20L251.79 6.20Q251.80 5.54 251.80 5.39L251.80 5.39L251.80 5.39Q251.80 4.62 251.62 4.33L251.62 4.33L251.62 4.33Q251.44 4.05 250.77 3.95L250.77 3.95L250.77 3.95Q250.46 3.91 250.46 3.68ZM278.85 3.72L278.85 3.72L278.85 3.72Q278.85 3.51 278.98 3.51L278.98 3.51L278.98 3.51Q279.02 3.51 279.16 3.52L279.16 3.52L279.16 3.52Q279.30 3.53 279.54 3.53L279.54 3.53L279.54 3.53Q279.82 3.53 280.65 3.52L280.65 3.52L280.65 3.52Q281.48 3.51 281.58 3.51L281.58 3.51L281.58 3.51Q281.90 3.51 282.39 3.49L282.39 3.49L282.39 3.49Q282.88 3.47 283.12 3.47L283.12 3.47L283.12 3.47Q284.40 3.47 285.25 4.08L285.25 4.08L285.25 4.08Q286.10 4.69 286.10 5.81L286.10 5.81L286.10 5.81Q286.10 6.22 285.96 6.57L285.96 6.57L285.96 6.57Q285.81 6.93 285.61 7.15L285.61 7.15L285.61 7.15Q285.40 7.38 285.20 7.54L285.20 7.54L285.20 7.54Q285.00 7.70 284.85 7.79L284.85 7.79L284.85 7.79Q284.70 7.88 284.70 7.90L284.70 7.90L284.70 7.90Q284.70 7.94 284.94 8.00L284.94 8.00L284.94 8.00Q285.18 8.06 285.52 8.21L285.52 8.21L285.52 8.21Q285.85 8.36 286.18 8.61L286.18 8.61L286.18 8.61Q286.51 8.86 286.75 9.36L286.75 9.36L286.75 9.36Q286.99 9.86 286.99 10.53L286.99 10.53L286.99 10.53Q286.99 11.13 286.64 11.82L286.64 11.82L286.64 11.82Q286.29 12.50 285.81 12.82L285.81 12.82L285.81 12.82Q285.19 13.26 284.66 13.40L284.66 13.40L284.66 13.40Q284.13 13.55 283.37 13.55L283.37 13.55L283.37 13.55Q282.81 13.55 281.89 13.47L281.89 13.47L281.89 13.47Q280.97 13.40 280.87 13.40L280.87 13.40L280.87 13.40Q280.71 13.40 280.32 13.43L280.32 13.43L280.32 13.43Q279.92 13.45 279.66 13.45L279.66 13.45L279.47 13.45L279.47 13.45Q279.17 13.45 279.17 13.24L279.17 13.24L279.17 13.24Q279.17 13.05 279.33 13.05L279.33 13.05L279.33 13.05Q279.41 13.05 279.51 13.04L279.51 13.04L279.51 13.04Q279.61 13.03 279.65 13.03L279.65 13.03L279.65 13.03Q279.78 13.03 279.90 12.94L279.90 12.94L279.90 12.94Q280.01 12.85 280.14 12.54L280.14 12.54L280.14 12.54Q280.27 12.22 280.28 11.73L280.28 11.73L280.28 11.73Q280.32 10.82 280.32 7.36L280.32 7.36L280.32 4.98L280.32 4.98Q280.32 4.89 280.29 4.75L280.29 4.75L280.29 4.75Q280.25 4.62 280.15 4.40L280.15 4.40L280.15 4.40Q280.04 4.19 279.77 4.04L279.77 4.04L279.77 4.04Q279.50 3.89 279.09 3.89L279.09 3.89L279.09 3.89Q278.85 3.89 278.85 3.72ZM281.39 12.15L281.39 12.15L281.39 12.15Q281.39 12.99 282.76 12.99L282.76 12.99L283.08 12.99L283.08 12.99Q283.84 12.99 284.28 12.92L284.28 12.92L284.28 12.92Q284.94 12.81 285.37 12.24L285.37 12.24L285.37 12.24Q285.80 11.66 285.80 10.86L285.80 10.86L285.80 10.86Q285.80 10.18 285.54 9.68L285.54 9.68L285.54 9.68Q285.29 9.18 284.97 8.93L284.97 8.93L284.97 8.93Q284.65 8.68 284.21 8.54L284.21 8.54L284.21 8.54Q283.77 8.40 283.52 8.37L283.52 8.37L283.52 8.37Q283.28 8.34 283.05 8.34L283.05 8.34L283.05 8.34Q282.60 8.34 282.32 8.34L282.32 8.34L282.32 8.34Q282.03 8.33 281.95 8.33L281.95 8.33L281.95 8.33Q281.88 8.33 281.83 8.32L281.83 8.32L281.83 8.32Q281.78 8.32 281.75 8.32L281.75 8.32L281.75 8.32Q281.62 8.32 281.57 8.35L281.57 8.35L281.57 8.35Q281.51 8.39 281.46 8.62L281.46 8.62L281.46 8.62Q281.41 8.85 281.41 9.28L281.41 9.28L281.41 9.28Q281.40 9.72 281.40 10.58L281.40 10.58L281.40 10.70L281.40 10.70Q281.40 11.21 281.40 11.54L281.40 11.54L281.40 11.54Q281.40 11.86 281.39 11.99L281.39 11.99L281.39 11.99Q281.39 12.12 281.39 12.15ZM281.47 5.40L281.47 5.81L281.47 5.81Q281.47 6.51 281.48 6.90L281.48 6.90L281.48 6.90Q281.48 7.29 281.51 7.50L281.51 7.50L281.51 7.50Q281.54 7.71 281.57 7.77L281.57 7.77L281.57 7.77Q281.60 7.83 281.65 7.83L281.65 7.83L281.65 7.83Q282.04 7.87 282.37 7.87L282.37 7.87L283.26 7.87L283.26 7.87Q284.14 7.87 284.59 7.41L284.59 7.41L284.59 7.41Q285.03 6.94 285.03 6.22L285.03 6.22L285.03 6.22Q285.03 5.43 284.29 4.70L284.29 4.70L284.29 4.70Q283.56 3.96 282.20 3.96L282.20 3.96L282.20 3.96Q281.76 3.96 281.62 4.22L281.62 4.22L281.62 4.22Q281.47 4.48 281.47 5.40L281.47 5.40ZM295.01 8.69L295.01 8.69L295.01 8.69Q295.01 6.34 296.42 4.84L296.42 4.84L296.42 4.84Q297.84 3.33 300.43 3.33L300.43 3.33L300.43 3.33Q301.63 3.33 302.60 3.68L302.60 3.68L302.60 3.68Q303.56 4.03 304.12 4.54L304.12 4.54L304.12 4.54Q304.68 5.05 305.06 5.71L305.06 5.71L305.06 5.71Q305.44 6.37 305.58 6.92L305.58 6.92L305.58 6.92Q305.72 7.48 305.72 7.95L305.72 7.95L305.72 7.95Q305.72 9.86 304.98 11.16L304.98 11.16L304.98 11.16Q304.23 12.47 303.02 13.07L303.02 13.07L303.02 13.07Q301.81 13.66 300.23 13.66L300.23 13.66L300.23 13.66Q298.56 13.66 297.35 12.94L297.35 12.94L297.35 12.94Q296.14 12.21 295.58 11.10L295.58 11.10L295.58 11.10Q295.01 10.00 295.01 8.69ZM296.24 7.98L296.24 7.98L296.24 7.98Q296.24 8.54 296.39 9.19L296.39 9.19L296.39 9.19Q296.55 9.84 296.90 10.54L296.90 10.54L296.90 10.54Q297.25 11.23 297.75 11.78L297.75 11.78L297.75 11.78Q298.24 12.33 299.01 12.69L299.01 12.69L299.01 12.69Q299.77 13.05 300.68 13.05L300.68 13.05L300.68 13.05Q301.15 13.05 301.68 12.90L301.68 12.90L301.68 12.90Q302.20 12.75 302.72 12.45L302.72 12.45L302.72 12.45Q303.24 12.14 303.65 11.70L303.65 11.70L303.65 11.70Q304.05 11.26 304.31 10.62L304.31 10.62L304.31 10.62Q304.57 9.98 304.57 9.24L304.57 9.24L304.57 9.24Q304.57 6.71 303.24 5.30L303.24 5.30L303.24 5.30Q301.91 3.89 299.95 3.89L299.95 3.89L299.95 3.89Q298.41 3.89 297.33 4.93L297.33 4.93L297.33 4.93Q296.24 5.96 296.24 7.98ZM313.61 3.71L313.61 3.71L313.61 3.71Q313.61 3.46 313.99 3.46L313.99 3.46L313.99 3.46Q314.05 3.46 314.17 3.47L314.17 3.47L314.17 3.47Q314.30 3.49 314.37 3.49L314.37 3.49L314.37 3.49Q314.51 3.49 314.90 3.51L314.90 3.51L314.90 3.51Q315.28 3.54 315.59 3.54L315.59 3.54L315.59 3.54Q316.02 3.54 316.51 3.51L316.51 3.51L316.51 3.51Q317.00 3.49 317.06 3.49L317.06 3.49L317.06 3.49Q317.30 3.49 317.30 3.63L317.30 3.63L317.30 3.63Q317.30 3.82 317.13 3.88L317.13 3.88L317.13 3.88Q316.96 3.95 316.76 3.97L316.76 3.97L316.76 3.97Q316.55 3.99 316.37 4.28L316.37 4.28L316.37 4.28Q316.18 4.56 316.15 5.14L316.15 5.14L316.15 5.14Q316.12 5.68 316.08 8.19L316.08 8.19L316.08 8.19Q316.04 10.70 316.04 10.99L316.04 10.99L316.04 11.55L316.04 11.55Q316.04 12.56 316.37 12.66L316.37 12.66L316.37 12.66Q316.72 12.77 316.97 12.77L316.97 12.77L316.97 12.77Q318.02 12.77 318.82 12.67L318.82 12.67L318.82 12.67Q319.61 12.57 320.01 12.42L320.01 12.42L320.01 12.42Q320.40 12.28 320.67 12.10L320.67 12.10L320.67 12.10Q320.94 11.93 321.01 11.78L321.01 11.78L321.01 11.78Q321.09 11.63 321.17 11.54L321.17 11.54L321.17 11.54Q321.24 11.44 321.33 11.44L321.33 11.44L321.33 11.44Q321.50 11.44 321.50 11.68L321.50 11.68L321.50 11.68Q321.50 12.28 320.89 12.89L320.89 12.89L320.89 12.89Q320.29 13.51 319.84 13.51L319.84 13.51L319.84 13.51Q318.84 13.51 317.57 13.44L317.57 13.44L317.57 13.44Q316.30 13.37 315.99 13.37L315.99 13.37L315.99 13.37Q315.60 13.37 315.09 13.43L315.09 13.43L315.09 13.43Q314.58 13.48 314.24 13.48L314.24 13.48L314.24 13.48Q313.84 13.48 313.84 13.31L313.84 13.31L313.84 13.31Q313.84 13.22 313.92 13.15L313.92 13.15L313.92 13.15Q313.99 13.09 314.06 13.09L314.06 13.09L314.06 13.09Q314.27 13.09 314.47 12.95L314.47 12.95L314.47 12.95Q314.72 12.75 314.83 12.23L314.83 12.23L314.83 12.23Q314.94 11.70 314.94 10.21L314.94 10.21L314.94 8.47L314.94 8.47Q314.94 8.09 314.97 7.29L314.97 7.29L314.97 7.29Q314.99 6.50 314.99 6.05L314.99 6.05L314.99 6.05Q314.99 5.67 314.96 4.77L314.96 4.77L314.96 4.77Q314.94 4.37 314.61 4.14L314.61 4.14L314.61 4.14Q314.27 3.92 313.82 3.91L313.82 3.91L313.82 3.91Q313.68 3.91 313.65 3.86L313.65 3.86L313.65 3.86Q313.61 3.81 313.61 3.71ZM329.60 10.82L329.60 10.82L329.60 10.82Q329.60 10.53 329.80 10.53L329.80 10.53L329.80 10.53Q329.98 10.53 330.02 10.67L330.02 10.67L330.02 10.67Q330.16 11.00 330.28 11.25L330.28 11.25L330.28 11.25Q330.40 11.49 330.67 11.85L330.67 11.85L330.67 11.85Q330.93 12.21 331.24 12.44L331.24 12.44L331.24 12.44Q331.55 12.67 332.03 12.84L332.03 12.84L332.03 12.84Q332.51 13.01 333.09 13.01L333.09 13.01L333.09 13.01Q334.14 13.01 334.78 12.45L334.78 12.45L334.78 12.45Q335.41 11.90 335.41 11.00L335.41 11.00L335.41 11.00Q335.41 10.35 334.98 9.90L334.98 9.90L334.98 9.90Q334.54 9.46 333.98 9.27L333.98 9.27L333.98 9.27Q333.42 9.09 332.56 8.77L332.56 8.77L332.56 8.77Q331.70 8.46 331.16 8.13L331.16 8.13L331.16 8.13Q329.88 7.38 329.88 6.08L329.88 6.08L329.88 6.08Q329.88 4.83 330.79 4.08L330.79 4.08L330.79 4.08Q331.69 3.33 333.13 3.33L333.13 3.33L333.13 3.33Q333.66 3.33 334.40 3.56L334.40 3.56L334.40 3.56Q335.13 3.79 335.15 3.79L335.15 3.79L335.15 3.79Q335.19 3.79 335.30 3.74L335.30 3.74L335.30 3.74Q335.41 3.68 335.47 3.68L335.47 3.68L335.47 3.68Q335.65 3.68 335.68 3.79L335.68 3.79L335.68 3.79Q335.97 5.49 335.97 5.70L335.97 5.70L335.97 5.70Q335.97 6.09 335.78 6.09L335.78 6.09L335.78 6.09Q335.65 6.09 335.58 5.89L335.58 5.89L335.58 5.89Q335.41 5.49 335.25 5.24L335.25 5.24L335.25 5.24Q335.09 4.98 335.02 4.91L335.02 4.91L335.02 4.91Q334.95 4.84 334.66 4.58L334.66 4.58L334.66 4.58Q333.90 3.91 332.82 3.91L332.82 3.91L332.82 3.91Q331.95 3.91 331.37 4.33L331.37 4.33L331.37 4.33Q330.78 4.75 330.78 5.46L330.78 5.46L330.78 5.46Q330.78 6.09 331.12 6.50L331.12 6.50L331.12 6.50Q331.46 6.90 332.04 7.13L332.04 7.13L332.04 7.13Q332.61 7.35 333.24 7.55L333.24 7.55L333.24 7.55Q333.87 7.74 334.58 8.09L334.58 8.09L334.58 8.09Q335.29 8.44 335.75 8.93L335.75 8.93L335.75 8.93Q336.31 9.53 336.31 10.43L336.31 10.43L336.31 10.43Q336.31 11.90 335.37 12.76L335.37 12.76L335.37 12.76Q334.43 13.62 333.05 13.62L333.05 13.62L333.05 13.62Q332.08 13.62 331.49 13.52L331.49 13.52L331.49 13.52Q330.90 13.41 330.29 13.09L330.29 13.09L330.29 13.09Q330.11 12.98 329.85 12.00L329.85 12.00L329.85 12.00Q329.60 11.02 329.60 10.82ZM344.40 3.71L344.40 3.71L344.40 3.71Q344.40 3.50 344.79 3.50L344.79 3.50L344.79 3.50Q344.93 3.50 345.44 3.53L345.44 3.53L345.44 3.53Q345.94 3.56 346.37 3.56L346.37 3.56L346.37 3.56Q346.64 3.56 346.89 3.54L346.89 3.54L346.89 3.54Q347.13 3.53 347.61 3.53L347.61 3.53L347.61 3.53Q347.98 3.53 347.98 3.72L347.98 3.72L347.98 3.72Q347.98 3.84 347.34 4.10L347.34 4.10L347.34 4.10Q346.89 4.28 346.89 5.71L346.89 5.71L346.89 5.71Q346.89 7.60 346.87 9.05L346.87 9.05L346.87 9.05Q346.85 10.50 346.85 10.89L346.85 10.89L346.85 10.89Q346.85 12.07 347.20 12.59L347.20 12.59L347.20 12.59Q347.51 13.02 347.87 13.02L347.87 13.02L347.87 13.02Q347.90 13.02 348.01 13.03L348.01 13.03L348.01 13.03Q348.12 13.03 348.15 13.03L348.15 13.03L348.15 13.03Q348.25 13.03 348.35 13.08L348.35 13.08L348.35 13.08Q348.45 13.13 348.45 13.19L348.45 13.19L348.45 13.19Q348.45 13.34 348.37 13.39L348.37 13.39L348.37 13.39Q348.29 13.44 348.10 13.44L348.10 13.44L348.10 13.44Q347.68 13.44 347.32 13.41L347.32 13.41L347.32 13.41Q346.96 13.38 346.77 13.38L346.77 13.38L346.77 13.38Q346.37 13.38 345.91 13.42L345.91 13.42L345.91 13.42Q345.45 13.45 345.23 13.45L345.23 13.45L345.23 13.45Q344.60 13.45 344.60 13.24L344.60 13.24L344.60 13.24Q344.60 13.12 344.73 13.07L344.73 13.07L344.73 13.07Q344.86 13.02 345.03 13.00L345.03 13.00L345.03 13.00Q345.20 12.98 345.38 12.82L345.38 12.82L345.38 12.82Q345.56 12.66 345.63 12.35L345.63 12.35L345.63 12.35Q345.66 12.25 345.72 10.76L345.72 10.76L345.72 10.76Q345.79 9.27 345.79 8.61L345.79 8.61L345.79 7.81L345.79 7.81Q345.79 7.63 345.79 7.12L345.79 7.12L345.79 7.12Q345.80 6.61 345.80 6.30L345.80 6.30L345.80 5.66L345.80 5.66Q345.80 5.04 345.74 4.63L345.74 4.63L345.74 4.63Q345.70 4.30 345.37 4.12L345.37 4.12L345.37 4.12Q345.04 3.93 344.69 3.92L344.69 3.92L344.69 3.92Q344.40 3.91 344.40 3.71ZM355.99 3.71L355.99 3.71L355.99 3.71Q355.99 3.46 356.37 3.46L356.37 3.46L356.37 3.46Q356.43 3.46 356.55 3.47L356.55 3.47L356.55 3.47Q356.68 3.49 356.75 3.49L356.75 3.49L356.75 3.49Q356.89 3.49 357.27 3.51L357.27 3.51L357.27 3.51Q357.66 3.54 357.97 3.54L357.97 3.54L357.97 3.54Q358.40 3.54 358.89 3.51L358.89 3.51L358.89 3.51Q359.38 3.49 359.44 3.49L359.44 3.49L359.44 3.49Q359.67 3.49 359.67 3.63L359.67 3.63L359.67 3.63Q359.67 3.82 359.51 3.88L359.51 3.88L359.51 3.88Q359.34 3.95 359.14 3.97L359.14 3.97L359.14 3.97Q358.93 3.99 358.74 4.28L358.74 4.28L358.74 4.28Q358.55 4.56 358.53 5.14L358.53 5.14L358.53 5.14Q358.50 5.68 358.46 8.19L358.46 8.19L358.46 8.19Q358.41 10.70 358.41 10.99L358.41 10.99L358.41 11.55L358.41 11.55Q358.41 12.56 358.75 12.66L358.75 12.66L358.75 12.66Q359.10 12.77 359.35 12.77L359.35 12.77L359.35 12.77Q360.40 12.77 361.19 12.67L361.19 12.67L361.19 12.67Q361.98 12.57 362.38 12.42L362.38 12.42L362.38 12.42Q362.78 12.28 363.05 12.10L363.05 12.10L363.05 12.10Q363.31 11.93 363.39 11.78L363.39 11.78L363.39 11.78Q363.47 11.63 363.55 11.54L363.55 11.54L363.55 11.54Q363.62 11.44 363.71 11.44L363.71 11.44L363.71 11.44Q363.87 11.44 363.87 11.68L363.87 11.68L363.87 11.68Q363.87 12.28 363.27 12.89L363.27 12.89L363.27 12.89Q362.67 13.51 362.22 13.51L362.22 13.51L362.22 13.51Q361.21 13.51 359.95 13.44L359.95 13.44L359.95 13.44Q358.68 13.37 358.37 13.37L358.37 13.37L358.37 13.37Q357.98 13.37 357.47 13.43L357.47 13.43L357.47 13.43Q356.96 13.48 356.62 13.48L356.62 13.48L356.62 13.48Q356.22 13.48 356.22 13.31L356.22 13.31L356.22 13.31Q356.22 13.22 356.29 13.15L356.29 13.15L356.29 13.15Q356.37 13.09 356.44 13.09L356.44 13.09L356.44 13.09Q356.65 13.09 356.85 12.95L356.85 12.95L356.85 12.95Q357.10 12.75 357.21 12.23L357.21 12.23L357.21 12.23Q357.32 11.70 357.32 10.21L357.32 10.21L357.32 8.47L357.32 8.47Q357.32 8.09 357.34 7.29L357.34 7.29L357.34 7.29Q357.36 6.50 357.36 6.05L357.36 6.05L357.36 6.05Q357.36 5.67 357.34 4.77L357.34 4.77L357.34 4.77Q357.32 4.37 356.99 4.14L356.99 4.14L356.99 4.14Q356.65 3.92 356.20 3.91L356.20 3.91L356.20 3.91Q356.06 3.91 356.03 3.86L356.03 3.86L356.03 3.86Q355.99 3.81 355.99 3.71ZM371.43 3.71L371.43 3.71L371.43 3.71Q371.43 3.46 371.81 3.46L371.81 3.46L371.81 3.46Q371.87 3.46 371.99 3.47L371.99 3.47L371.99 3.47Q372.12 3.49 372.19 3.49L372.19 3.49L372.19 3.49Q372.33 3.49 372.72 3.51L372.72 3.51L372.72 3.51Q373.10 3.54 373.41 3.54L373.41 3.54L373.41 3.54Q373.84 3.54 374.33 3.51L374.33 3.51L374.33 3.51Q374.82 3.49 374.88 3.49L374.88 3.49L374.88 3.49Q375.12 3.49 375.12 3.63L375.12 3.63L375.12 3.63Q375.12 3.82 374.95 3.88L374.95 3.88L374.95 3.88Q374.78 3.95 374.58 3.97L374.58 3.97L374.58 3.97Q374.37 3.99 374.19 4.28L374.19 4.28L374.19 4.28Q374.00 4.56 373.97 5.14L373.97 5.14L373.97 5.14Q373.94 5.68 373.90 8.19L373.90 8.19L373.90 8.19Q373.86 10.70 373.86 10.99L373.86 10.99L373.86 11.55L373.86 11.55Q373.86 12.56 374.19 12.66L374.19 12.66L374.19 12.66Q374.54 12.77 374.79 12.77L374.79 12.77L374.79 12.77Q375.84 12.77 376.64 12.67L376.64 12.67L376.64 12.67Q377.43 12.57 377.83 12.42L377.83 12.42L377.83 12.42Q378.22 12.28 378.49 12.10L378.49 12.10L378.49 12.10Q378.76 11.93 378.83 11.78L378.83 11.78L378.83 11.78Q378.91 11.63 378.99 11.54L378.99 11.54L378.99 11.54Q379.06 11.44 379.15 11.44L379.15 11.44L379.15 11.44Q379.32 11.44 379.32 11.68L379.32 11.68L379.32 11.68Q379.32 12.28 378.71 12.89L378.71 12.89L378.71 12.89Q378.11 13.51 377.66 13.51L377.66 13.51L377.66 13.51Q376.66 13.51 375.39 13.44L375.39 13.44L375.39 13.44Q374.12 13.37 373.81 13.37L373.81 13.37L373.81 13.37Q373.42 13.37 372.91 13.43L372.91 13.43L372.91 13.43Q372.40 13.48 372.06 13.48L372.06 13.48L372.06 13.48Q371.66 13.48 371.66 13.31L371.66 13.31L371.66 13.31Q371.66 13.22 371.74 13.15L371.74 13.15L371.74 13.15Q371.81 13.09 371.88 13.09L371.88 13.09L371.88 13.09Q372.09 13.09 372.29 12.95L372.29 12.95L372.29 12.95Q372.54 12.75 372.65 12.23L372.65 12.23L372.65 12.23Q372.76 11.70 372.76 10.21L372.76 10.21L372.76 8.47L372.76 8.47Q372.76 8.09 372.79 7.29L372.79 7.29L372.79 7.29Q372.81 6.50 372.81 6.05L372.81 6.05L372.81 6.05Q372.81 5.67 372.78 4.77L372.78 4.77L372.78 4.77Q372.76 4.37 372.43 4.14L372.43 4.14L372.43 4.14Q372.09 3.92 371.64 3.91L371.64 3.91L371.64 3.91Q371.50 3.91 371.47 3.86L371.47 3.86L371.47 3.86Q371.43 3.81 371.43 3.71ZM387.21 8.69L387.21 8.69L387.21 8.69Q387.21 6.34 388.63 4.84L388.63 4.84L388.63 4.84Q390.04 3.33 392.63 3.33L392.63 3.33L392.63 3.33Q393.83 3.33 394.80 3.68L394.80 3.68L394.80 3.68Q395.77 4.03 396.33 4.54L396.33 4.54L396.33 4.54Q396.89 5.05 397.26 5.71L397.26 5.71L397.26 5.71Q397.64 6.37 397.78 6.92L397.78 6.92L397.78 6.92Q397.92 7.48 397.92 7.95L397.92 7.95L397.92 7.95Q397.92 9.86 397.18 11.16L397.18 11.16L397.18 11.16Q396.44 12.47 395.23 13.07L395.23 13.07L395.23 13.07Q394.02 13.66 392.43 13.66L392.43 13.66L392.43 13.66Q390.77 13.66 389.56 12.94L389.56 12.94L389.56 12.94Q388.35 12.21 387.78 11.10L387.78 11.10L387.78 11.10Q387.21 10.00 387.21 8.69ZM388.44 7.98L388.44 7.98L388.44 7.98Q388.44 8.54 388.60 9.19L388.60 9.19L388.60 9.19Q388.75 9.84 389.10 10.54L389.10 10.54L389.10 10.54Q389.45 11.23 389.95 11.78L389.95 11.78L389.95 11.78Q390.45 12.33 391.21 12.69L391.21 12.69L391.21 12.69Q391.97 13.05 392.88 13.05L392.88 13.05L392.88 13.05Q393.36 13.05 393.88 12.90L393.88 12.90L393.88 12.90Q394.41 12.75 394.93 12.45L394.93 12.45L394.93 12.45Q395.44 12.14 395.85 11.70L395.85 11.70L395.85 11.70Q396.26 11.26 396.52 10.62L396.52 10.62L396.52 10.62Q396.77 9.98 396.77 9.24L396.77 9.24L396.77 9.24Q396.77 6.71 395.44 5.30L395.44 5.30L395.44 5.30Q394.11 3.89 392.15 3.89L392.15 3.89L392.15 3.89Q390.61 3.89 389.53 4.93L389.53 4.93L389.53 4.93Q388.44 5.96 388.44 7.98Z"></path></g></svg>