<svg data-v-fde0c5aa="" xmlns="http://www.w3.org/2000/svg" viewBox="0 0 300 300" class="icon"><!----><defs data-v-fde0c5aa=""><!----></defs><rect data-v-fde0c5aa="" fill="transparent" x="0" y="0" width="300px" height="300px" class="logo-background-square"></rect><!----><defs data-v-fde0c5aa=""><linearGradient data-v-fde0c5aa="" gradientTransform="rotate(25)" id="0e731fe5-dfbd-4f94-ab2e-4d532bb04ac8" x1="0%" y1="0%" x2="100%" y2="0%"><stop data-v-fde0c5aa="" offset="0%" stop-color="#08C7D6" stop-opacity="1"></stop><stop data-v-fde0c5aa="" offset="100%" stop-color="#02023E" stop-opacity="1"></stop></linearGradient></defs><g data-v-fde0c5aa="" id="edc0b3ec-1b78-41c7-8281-4cb44df0c59f" fill="url(#0e731fe5-dfbd-4f94-ab2e-4d532bb04ac8)" stroke="none" transform="matrix(2.4444444444444446,0,0,2.4444444444444446,27.777777777777764,27.777774280971947)"><path d="M50.001 18.34C67.458 18.34 81.66 32.542 81.66 50c0 17.457-14.202 31.66-31.659 31.66C32.543 81.66 18.34 67.457 18.34 50c0-17.458 14.203-31.66 31.661-31.66m0-2.34C31.222 16 16 31.222 16 50c0 18.777 15.222 34 34.001 34C68.779 84 84 68.777 84 50c0-18.778-15.221-34-33.999-34zM50 40.794c3.031 0 9.387-9.661 9.515-13.551.128-3.892-7.93-3.946-9.515-3.946s-9.643.055-9.515 3.946c.128 3.89 6.485 13.551 9.515 13.551zm-8.759 6.359c.937-2.882-6.288-11.914-9.948-13.236-3.661-1.325-6.202 6.322-6.692 7.829s-2.929 9.188.813 10.268c3.737 1.082 14.891-1.979 15.827-4.861zm3.345 10.296c-2.452-1.781-13.272 2.299-15.664 5.368-2.39 3.074 4.098 7.854 5.379 8.785 1.281.933 7.833 5.627 10.017 2.4 2.183-3.219 2.718-14.773.268-16.553zm10.824 0c-2.452 1.78-1.917 13.332.265 16.556 2.186 3.223 8.735-1.47 10.02-2.402 1.28-.928 7.771-5.711 5.377-8.785-2.387-3.07-13.212-7.15-15.662-5.369zm3.347-10.292c.934 2.884 12.087 5.945 15.826 4.865 3.74-1.084 1.302-8.761.812-10.27-.486-1.508-3.029-9.156-6.693-7.83-3.658 1.324-10.885 10.356-9.945 13.235zm-8.751 6.128a1.729 1.729 0 1 0 0 3.457 1.729 1.729 0 0 0 0-3.457zm-4.77-3.466a1.73 1.73 0 1 0 .003 3.459 1.73 1.73 0 0 0-.003-3.459zm1.818-5.601a1.728 1.728 0 1 0 0 3.457 1.728 1.728 0 0 0 0-3.457zm5.891 0a1.728 1.728 0 1 0 0 3.457 1.728 1.728 0 0 0 0-3.457zm1.827 5.606a1.73 1.73 0 1 0 .002 3.458 1.73 1.73 0 0 0-.002-3.458zM50.001 5.003C25.147 5.003 5 25.148 5 50c0 24.851 20.147 44.997 45.001 44.997S95 74.851 95 50C95 25.148 74.854 5.003 50.001 5.003zM50 84.999c-19.33 0-34.999-15.672-34.999-34.999S30.67 15.001 50 15.001 85 30.673 85 50 69.33 84.999 50 84.999z"></path></g><!----></svg>